<svg id="Layer_1" data-name="Layer 1" xmlns="http://www.w3.org/2000/svg" viewBox="0 0 691 100.28"><defs><style>.cls-1{fill-rule:evenodd;}</style></defs><title>per4max-black</title><path class="cls-1" d="M371.87,4.54h45.86s9.26-1.13,11.54,5.74H432s2.09-6,10.33-6h36.58q12.79,3.36,6.78,21.88L452.3,104.57H425.58l31.64-71.66s2.76-7.07-5.51-7.07H437.44l-35.72,78.73H376.44L408.8,31.95s4.07-6.11-7.31-6.11H388.42l-34.64,78.73H327.06l44.82-100h0Zm-71,79.24H255.2L262,66.16l71.49-61.3h16.42L326.46,66.59H337.6L331,84h-9.59l-8.87,20.6H292.42l8.5-20.78h0Zm6.36-16.72H286.67v-1.8l32.6-27.81-12,29.6h0ZM210.06,4.38h0L166.58,104.57H192l18.1-41.37a2,2,0,0,1,1.54-1.09h13.21s4.31-.77,2.5,5.45-15.45,37-15.45,37h25.89L253,69.46s3-7.43-3.6-12.34l0.21-1.8s8.12,0.61,12-6.53,15-32.06,15-32.06,1.32-12.34-10.07-12.34H210.06ZM227.31,25h0l-7.57,16.26h14.42s5.07,0.07,6.55-2.22,4-9,4-9S246.55,25,240.51,25s-13.2.05-13.2,0.05h0Zm-80.72.27H186.9l9.52-20.8H128.74L85.46,104.57h66.41l10.42-24.24H122.05l6.19-15.22h41.47l8.41-20.92h-40.7l9.15-18.91h0ZM515,26.07h0l9.67-21.69h50s5.15,0.24,5.69,4.55a18.38,18.38,0,0,1-1.14,8.33l-28.16,87.3H461.17L515.82,41.9h22.05L505.16,79.29s-1.32,2.16.6,2.16h28l15-48.3s2.52-7.31-5.39-7.31S515,26.07,515,26.07h0Zm170.92-.3h0L695,4.5H670.61a17.54,17.54,0,0,0-10.48,5c-4.55,4.67-19.42,19.54-19.42,19.54h-1.32L631.72,4.38H607.51l11.75,44.7L592,75.81s-5.71,4.61-10.94,5.22a50.79,50.79,0,0,1-9.72.17l-10.26,23.37h26.61s7.67,0.61,15-6.82,23.13-21.33,23.13-21.33l9,28.15h23.25L646.46,56.4l29-27.69a14.26,14.26,0,0,1,10.42-2.94h0ZM39.43,25.14h0l9.25-20.7h57.5s12.27,0.3,8.65,10.21-19.32,42-19.32,42-2.15,5.55-11.44,5.55H48.75L30.43,104.57H4L31.75,41.66H73.21s2.22,0.3,4.07-2.52,5.09-9.59,5.09-9.59,2-4.43-5.81-4.43l-37.14,0h0Z" transform="translate(-4 -4.3)"/></svg>