<?xml version="1.0" encoding="utf-8"?>
<!-- Generator: Adobe Illustrator 16.0.0, SVG Export Plug-In . SVG Version: 6.00 Build 0)  -->
<!DOCTYPE svg PUBLIC "-//W3C//DTD SVG 1.1//EN" "http://www.w3.org/Graphics/SVG/1.1/DTD/svg11.dtd">
<svg version="1.1" id="Layer_1" xmlns="http://www.w3.org/2000/svg" xmlns:xlink="http://www.w3.org/1999/xlink" x="0px" y="0px"
	 width="200px" height="200px" viewBox="0 0 200 200" enable-background="new 0 0 200 200" xml:space="preserve">
<circle fill="#FFFFFF" stroke="#87CCC3" stroke-width="4.813" stroke-miterlimit="10" cx="100" cy="99.999" r="94.672"/>
<linearGradient id="SVGID_1_" gradientUnits="userSpaceOnUse" x1="100.0005" y1="149.5488" x2="100.0005" y2="50.4517">
	<stop  offset="0" style="stop-color:#87CCC3"/>
	<stop  offset="1" style="stop-color:#F4BC17"/>
</linearGradient>
<path fill="url(#SVGID_1_)" d="M46.934,107.695c0,23.113,18.746,41.854,41.861,41.854c18.377,0,33.939-11.854,39.58-28.308h13.09
	c0.762,5.95,1.42,11.101,1.703,13.318c-2.371,1.118-4.025,3.507-4.025,6.298c0,3.841,3.117,6.957,6.967,6.957
	c3.84,0,6.957-3.116,6.957-6.957c0-3.215-2.178-5.885-5.143-6.697c-0.301-2.486-0.926-7.37-1.631-12.919h1.297v-10.973H144.9
	c-0.83-6.415-1.592-12.354-1.992-15.435c-0.131-0.881-0.682-3.972-2.834-6.785c-2.129-2.769-5.029-4.233-8.404-4.233h-8.516
	c-0.123-0.176-0.26-0.345-0.396-0.526h2.51V83.28c3.074-0.11,5.527-2.632,5.527-5.73c0-3.095-2.453-5.612-5.527-5.734v-0.004h-6.068
	c-2.541-1.737-6.611-4.515-6.641-4.534c-5.443-3.769-12.367-7.966-24.184-8.22l0.016,0.084c-0.08-0.016-0.123-0.075-0.203-0.075
	c-0.061-0.004-0.555-0.004-1.117-0.004h-5.332v-6.547c0-1.138-0.926-2.064-2.066-2.064H65.637c-1.152,0-2.072,0.926-2.072,2.064
	v0.672c0,1.142,0.92,2.07,2.072,2.07h2.232l-0.029,3.805h-2.203c-1.152,0-2.072,0.928-2.072,2.072v0.66
	c0,0.555,0.215,1.075,0.605,1.462c0.404,0.397,0.912,0.613,1.467,0.613l2.156-0.007l-0.057,7.699
	C55.301,78.82,46.934,92.264,46.934,107.695z M145.625,140.397c0.1-0.071,0.197-0.142,0.324-0.142c0.328,0,0.602,0.264,0.602,0.593
	s-0.273,0.583-0.602,0.583c-0.32,0-0.578-0.254-0.578-0.583c0-0.104,0.061-0.179,0.107-0.259l-4.414-2.74
	c0.461-0.752,1.105-1.382,1.854-1.852L145.625,140.397z M57.082,90.631l22.33,12.89c-0.555,1.241-0.859,2.6-0.889,4.051H52.795
	C52.811,101.441,54.371,95.677,57.082,90.631z M62.666,82.975l18.217,18.216c-0.314,0.39-0.605,0.782-0.869,1.21l-22.27-12.867
	C59.131,87.165,60.781,84.96,62.666,82.975z M63.531,82.048c4.205-4.127,9.4-7.222,15.199-8.909l6.68,24.89
	c-1.387,0.481-2.637,1.233-3.672,2.216L63.531,82.048z M88.16,71.72v25.757c-0.518,0.026-1.039,0.065-1.527,0.169L79.977,72.82
	C82.6,72.157,85.34,71.771,88.16,71.72z M114.055,82.048l-18.195,18.197c-0.367-0.343-0.752-0.677-1.17-0.966l12.854-22.284
	C109.912,78.441,112.098,80.124,114.055,82.048z M123.51,98.248l-24.863,6.66c-0.381-1.387-1.043-2.635-1.932-3.718l18.209-18.216
	C118.951,87.223,121.93,92.439,123.51,98.248z M126.016,88.599h5.654c5.424,0,6.477,6.796,6.486,6.864
	c0.398,3.009,1.133,8.658,1.918,14.806h-9.543c0.047-0.854,0.119-1.708,0.119-2.573C130.65,100.807,128.963,94.326,126.016,88.599z
	 M124.799,107.572H99.064c0-0.483-0.07-0.955-0.137-1.416l24.902-6.674C124.441,102.086,124.789,104.786,124.799,107.572z
	 M120.061,125.519l-22.299-12.874c0.635-1.151,1.045-2.435,1.203-3.803h25.781C124.555,114.896,122.877,120.569,120.061,125.519z
	 M114.449,132.952l-18.205-18.199c0.307-0.321,0.592-0.663,0.852-1.021l22.311,12.877
	C117.969,128.9,116.324,131.039,114.449,132.952z M98.584,142.324l-6.65-24.883c1.242-0.397,2.375-1.02,3.365-1.833l18.225,18.223
	C109.363,137.766,104.264,140.717,98.584,142.324z M89.428,117.919c0.443-0.024,0.865-0.052,1.275-0.13l6.654,24.855
	c-2.547,0.611-5.203,0.978-7.93,1.024V117.919z M89.428,71.72c6.195,0.11,11.986,1.772,17.035,4.62L93.59,98.636
	c-1.262-0.655-2.662-1.074-4.162-1.159V71.72z M88.795,65.835c-2.412,0-4.752,0.254-7.057,0.639v-2.622l6.492-0.007
	c0.094,0,0.254-0.033,0.428-0.096l0.01,0.096c8.516,0.087,15.482,3.619,21.084,7.257c0,0,0.418,0.289,1.029,0.71h-0.512
	C103.99,68.042,96.658,65.835,88.795,65.835z M71.572,139.316l12.889-22.326c1.133,0.535,2.383,0.852,3.699,0.929v25.75
	C82.162,143.565,76.514,142.014,71.572,139.316z M64.066,133.831l18.232-18.223c0.33,0.272,0.668,0.542,1.049,0.778l-12.861,22.271
	C68.164,137.285,66.008,135.674,64.066,133.831z M54.328,118.095l24.916-6.667c0.488,1.246,1.197,2.376,2.109,3.325l-18.199,18.199
	C59.104,128.842,56.039,123.768,54.328,118.095z M52.852,108.842h25.775c0.047,0.469,0.123,0.926,0.23,1.368l-24.84,6.655
	C53.336,114.287,52.938,111.608,52.852,108.842z"/>
</svg>
