<svg id="Layer_1" data-name="Layer 1" xmlns="http://www.w3.org/2000/svg" viewBox="0 0 251.42 187.61"><defs><style>.cls-1{fill:#fff;stroke:#4f9dff;}.cls-1,.cls-2,.cls-3{stroke-miterlimit:10;}.cls-2,.cls-3{fill:none;stroke:#000;}.cls-2{opacity:0.5;}.cls-3{stroke-width:2px;}</style></defs><title>axle_size</title><rect class="cls-1" x="74.03" y="48.65" width="90.99" height="11.66"/><polygon class="cls-1" points="72.89 53.67 67.33 53.67 66.74 0.82 72.3 0.53 72.89 53.67"/><rect class="cls-1" x="74.03" y="60.31" width="109.57" height="6.76"/><polygon class="cls-1" points="161.33 134.41 154.51 132.13 154.51 132.13 107.3 116.34 107.3 123.4 135.71 132.9 135.71 132.9 136.97 133.32 151.66 138.23 151.66 138.22 159.04 140.68 161.33 134.41"/><rect class="cls-1" x="100.2" y="59.71" width="12.77" height="7.98"/><rect class="cls-1" x="126.17" y="59.71" width="12.77" height="7.98"/><rect class="cls-1" x="152.25" y="59.71" width="12.77" height="7.98"/><rect class="cls-1" x="101.98" y="67.7" width="7.06" height="47.91"/><polygon class="cls-1" points="104.66 124.82 40.62 159.11 35.06 159.11 35.06 150.75 104.66 113.48 104.66 124.82"/><path class="cls-1" d="M107.3,123.4v-7.06L152,131.29a2,2,0,0,1,1.23,2.55l-0.93,2.57a2,2,0,0,1-2.49,1.21Z"/><path class="cls-1" d="M206.54,76.88c-2.82-10.27-11.78-16.54-22.94-16.57V67a17.6,17.6,0,0,1,16.58,12Z"/><rect class="cls-1" x="173.68" y="130.44" width="9.17" height="5.3" transform="translate(45.18 311.36) rotate(-90)"/><rect class="cls-1" x="172.31" y="140.06" width="11.91" height="7.15" transform="translate(34.64 321.9) rotate(-90)"/><rect class="cls-1" x="174.77" y="150.44" width="7" height="5.3" transform="translate(25.18 331.36) rotate(-90)"/><rect class="cls-1" x="178.27" y="166.67" width="20.81" height="5.3"/><rect class="cls-1" x="178.27" y="166.67" width="20.81" height="5.3"/><polygon class="cls-1" points="159.04 140.68 161.34 134.38 228.41 156.71 206.59 156.51 159.04 140.68"/><path class="cls-1" d="M67.12,29.8H56.94A2.19,2.19,0,0,0,55,32.18a2.19,2.19,0,0,0,1.93,2.38H67.12a2.19,2.19,0,0,0,1.93-2.38A2.19,2.19,0,0,0,67.12,29.8Z"/><circle class="cls-1" cx="33.29" cy="175.53" r="9.65"/><circle class="cls-1" cx="33.29" cy="175.53" r="6.76"/><path class="cls-1" d="M234.43,156.59H215.87v6.58h18.56c1.07,0,1.93-1.47,1.93-3.29S235.5,156.59,234.43,156.59Z"/><path class="cls-1" d="M224.54,156.59h-8.67v6.58h8.67c1.07,0,1.93-1.47,1.93-3.29S225.61,156.59,224.54,156.59Z"/><polygon class="cls-1" points="35.94 178.01 29.12 178.01 35.59 161.31 42.4 161.31 35.94 178.01"/><polygon class="cls-1" points="41.38 163.86 34.56 163.86 35.59 161.31 42.4 161.31 41.38 163.86"/><circle class="cls-1" cx="33.29" cy="175.53" r="0.97"/><path class="cls-1" d="M43.75,148V145H34.29v14.66h9.47v-1.31a2,2,0,0,0-2.19-1.86,4.26,4.26,0,0,0-2.8,1.21V153A5,5,0,0,0,43.75,148Z"/><path class="cls-1" d="M56.94,34.56A2.19,2.19,0,0,1,55,32.18a2.19,2.19,0,0,1,1.92-2.38H51.5a2.19,2.19,0,0,0-1.94,2.37,2.19,2.19,0,0,0,1.93,2.38h5.46Z"/><path class="cls-1" d="M74,56.38a16.84,16.84,0,0,1-1.14-2.71h-5.4A13,13,0,0,0,74,63.85V56.38Z"/><circle class="cls-1" cx="105.51" cy="119.15" r="6.24"/><path class="cls-1" d="M215.87,156.59H174.21c-1.07,0-1.93,1.47-1.93,3.29s0.86,3.29,1.93,3.29h41.66c1.07,0,1.93-1.47,1.93-3.29S216.94,156.59,215.87,156.59Z"/><polygon class="cls-1" points="233.29 158.78 225.53 156.64 200.17 79 206.54 76.88 233.29 158.78"/><path class="cls-1" d="M175.62,163.17v7a2.85,2.85,0,0,0,5.3,0v-7h-5.3Z"/><path class="cls-1" d="M87.54,64.21a2.64,2.64,0,0,0-.74.11V59.71H74v8h9.9l-23.79,70a9,9,0,0,0,8.54-6.12L90.88,66.2A0.39,0.39,0,0,0,91,66C91,65.35,90.56,64.21,87.54,64.21Z"/><line class="cls-1" x1="74.03" y1="63.85" x2="86.8" y2="63.85"/><line class="cls-1" x1="100.2" y1="63.85" x2="112.97" y2="63.85"/><line class="cls-1" x1="126.17" y1="63.85" x2="138.94" y2="63.85"/><line class="cls-1" x1="152.25" y1="63.85" x2="165.02" y2="63.85"/><path class="cls-1" d="M198.79,156.62H188.67l-7.23-7a3.57,3.57,0,0,1-.3-4.8h0a3.57,3.57,0,0,1,5.28-.32Z"/><path class="cls-1" d="M208.27,167.81a9.75,9.75,0,0,1,1,.05l0.26,0v-1.17H199.08V172h1.26A9.64,9.64,0,0,1,208.27,167.81Z"/><circle class="cls-1" cx="208.27" cy="177.46" r="9.65"/><circle class="cls-1" cx="208.27" cy="177.46" r="6.76"/><polygon class="cls-1" points="210.92 179.95 204.1 179.95 210.57 163.25 217.39 163.25 210.92 179.95"/><polygon class="cls-1" points="216.36 165.79 209.54 165.79 210.57 163.25 217.39 163.25 216.36 165.79"/><circle class="cls-1" cx="208.27" cy="177.46" r="0.97"/><polygon class="cls-1" points="109.64 118.27 107.57 121.85 103.44 121.85 101.38 118.27 103.44 114.7 107.57 114.7 109.64 118.27"/><circle class="cls-1" cx="105.51" cy="118.27" r="2.25"/><rect class="cls-1" x="103.44" y="121.85" width="4.32" height="1.92"/><rect class="cls-1" x="211.03" y="147.02" width="9.17" height="9.97" transform="translate(63.61 367.61) rotate(-90)"/><line class="cls-2" x1="244.44" y1="187.11" y2="187.11"/><line class="cls-3" x1="109.76" y1="117.43" x2="165.02" y2="94.16"/><polygon points="119.04 122.4 119.73 120.52 110.47 117.14 114.52 108.14 112.69 107.32 107.76 118.28 119.04 122.4"/></svg>