<svg id="Layer_1" data-name="Layer 1" xmlns="http://www.w3.org/2000/svg" viewBox="0 0 244.4 187.6"><title>back_angle</title><line x1="97.7" y1="33.6" x2="68.6" y2="44.6" fill="none" stroke="#000" stroke-miterlimit="10" stroke-width="2"/><polygon points="71.9 34.6 73.7 35.5 69.3 44.3 78.4 48 77.7 49.9 66.6 45.4 71.9 34.6"/><rect x="62.7" y="48.6" width="91" height="11.66" fill="#fff" stroke="#4f9dff" stroke-miterlimit="10"/><polygon points="61.6 53.7 56 53.7 55.4 0.8 61 0.5 61.6 53.7" fill="#fff" stroke="#4f9dff" stroke-miterlimit="10"/><rect x="62.7" y="60.3" width="109.6" height="6.76" fill="#fff" stroke="#4f9dff" stroke-miterlimit="10"/><polygon points="150 134.4 143.2 132.1 143.2 132.1 96 116.3 96 123.4 124.4 132.9 124.4 132.9 125.6 133.3 140.3 138.2 140.3 138.2 147.7 140.7 150 134.4" fill="#fff" stroke="#4f9dff" stroke-miterlimit="10"/><rect x="88.9" y="59.7" width="12.8" height="7.98" fill="#fff" stroke="#4f9dff" stroke-miterlimit="10"/><rect x="114.8" y="59.7" width="12.8" height="7.98" fill="#fff" stroke="#4f9dff" stroke-miterlimit="10"/><rect x="140.9" y="59.7" width="12.8" height="7.98" fill="#fff" stroke="#4f9dff" stroke-miterlimit="10"/><rect x="90.6" y="67.7" width="7.1" height="47.91" fill="#fff" stroke="#4f9dff" stroke-miterlimit="10"/><polygon points="93.3 124.8 29.3 159.1 23.7 159.1 23.7 150.8 93.3 113.5 93.3 124.8" fill="#fff" stroke="#4f9dff" stroke-miterlimit="10"/><path d="M96,123.4v-7.1l44.7,14.9a2,2,0,0,1,1.2,2.6l-0.9,2.6a2,2,0,0,1-2.5,1.2Z" fill="#fff" stroke="#4f9dff" stroke-miterlimit="10"/><path d="M195.2,76.9c-2.8-10.3-11.8-16.5-22.9-16.6V67a17.6,17.6,0,0,1,16.6,12Z" fill="#fff" stroke="#4f9dff" stroke-miterlimit="10"/><rect x="162.4" y="130.4" width="9.2" height="5.3" transform="translate(33.8 300) rotate(-90)" fill="#fff" stroke="#4f9dff" stroke-miterlimit="10"/><rect x="161" y="140.1" width="11.9" height="7.15" transform="translate(23.3 310.6) rotate(-90)" fill="#fff" stroke="#4f9dff" stroke-miterlimit="10"/><rect x="163.4" y="150.4" width="7" height="5.3" transform="translate(13.8 320) rotate(-90)" fill="#fff" stroke="#4f9dff" stroke-miterlimit="10"/><rect x="166.9" y="166.7" width="20.8" height="5.3" fill="#fff" stroke="#4f9dff" stroke-miterlimit="10"/><rect x="166.9" y="166.7" width="20.8" height="5.3" fill="#fff" stroke="#4f9dff" stroke-miterlimit="10"/><polygon points="147.7 140.7 150 134.4 217.1 156.7 195.3 156.5 147.7 140.7" fill="#fff" stroke="#4f9dff" stroke-miterlimit="10"/><path d="M55.8,29.8H45.6a2.2,2.2,0,0,0-1.9,2.4,2.2,2.2,0,0,0,1.9,2.4H55.8a2.2,2.2,0,0,0,1.9-2.4A2.2,2.2,0,0,0,55.8,29.8Z" fill="#fff" stroke="#4f9dff" stroke-miterlimit="10"/><circle cx="22" cy="175.5" r="9.7" fill="#fff" stroke="#4f9dff" stroke-miterlimit="10"/><circle cx="22" cy="175.5" r="6.8" fill="#fff" stroke="#4f9dff" stroke-miterlimit="10"/><path d="M223.1,156.6H204.5v6.6h18.6c1.1,0,1.9-1.5,1.9-3.3S224.2,156.6,223.1,156.6Z" fill="#fff" stroke="#4f9dff" stroke-miterlimit="10"/><path d="M213.2,156.6h-8.7v6.6h8.7c1.1,0,1.9-1.5,1.9-3.3S214.3,156.6,213.2,156.6Z" fill="#fff" stroke="#4f9dff" stroke-miterlimit="10"/><polygon points="24.6 178 17.8 178 24.3 161.3 31.1 161.3 24.6 178" fill="#fff" stroke="#4f9dff" stroke-miterlimit="10"/><polygon points="30 163.9 23.2 163.9 24.3 161.3 31.1 161.3 30 163.9" fill="#fff" stroke="#4f9dff" stroke-miterlimit="10"/><circle cx="22" cy="175.5" r="1" fill="#fff" stroke="#4f9dff" stroke-miterlimit="10"/><path d="M32.4,148V145H23v14.7h9.5v-1.3a2,2,0,0,0-2.2-1.9,4.3,4.3,0,0,0-2.8,1.2V153A5,5,0,0,0,32.4,148Z" fill="#fff" stroke="#4f9dff" stroke-miterlimit="10"/><path d="M45.6,34.6a2.2,2.2,0,0,1-1.9-2.4,2.2,2.2,0,0,1,1.9-2.4H40.2a2.2,2.2,0,0,0-1.9,2.4,2.2,2.2,0,0,0,1.9,2.4h5.5Z" fill="#fff" stroke="#4f9dff" stroke-miterlimit="10"/><path d="M62.7,56.4a16.8,16.8,0,0,1-1.1-2.7H56.2a13,13,0,0,0,6.5,10.2h0V56.4Z" fill="#fff" stroke="#4f9dff" stroke-miterlimit="10"/><circle cx="94.2" cy="119.2" r="6.2" fill="#fff" stroke="#4f9dff" stroke-miterlimit="10"/><path d="M204.5,156.6H162.9c-1.1,0-1.9,1.5-1.9,3.3s0.9,3.3,1.9,3.3h41.7c1.1,0,1.9-1.5,1.9-3.3S205.6,156.6,204.5,156.6Z" fill="#fff" stroke="#4f9dff" stroke-miterlimit="10"/><polygon points="222 158.8 214.2 156.6 188.8 79 195.2 76.9 222 158.8" fill="#fff" stroke="#4f9dff" stroke-miterlimit="10"/><path d="M164.3,163.2v7a2.9,2.9,0,0,0,5.3,0v-7h-5.3Z" fill="#fff" stroke="#4f9dff" stroke-miterlimit="10"/><path d="M76.2,64.2H75.5V59.7H62.7v8h9.9l-23.8,70a9,9,0,0,0,8.5-6.1L79.6,66.2V66C79.6,65.4,79.2,64.2,76.2,64.2Z" fill="#fff" stroke="#4f9dff" stroke-miterlimit="10"/><line x1="62.7" y1="63.8" x2="75.5" y2="63.8" fill="#fff" stroke="#4f9dff" stroke-miterlimit="10"/><line x1="88.9" y1="63.8" x2="101.6" y2="63.8" fill="#fff" stroke="#4f9dff" stroke-miterlimit="10"/><line x1="114.8" y1="63.8" x2="127.6" y2="63.8" fill="#fff" stroke="#4f9dff" stroke-miterlimit="10"/><line x1="140.9" y1="63.8" x2="153.7" y2="63.8" fill="#fff" stroke="#4f9dff" stroke-miterlimit="10"/><path d="M187.5,156.6H177.3l-7.2-7a3.6,3.6,0,0,1-.3-4.8h0a3.6,3.6,0,0,1,5.3-.3Z" fill="#fff" stroke="#4f9dff" stroke-miterlimit="10"/><path d="M196.9,167.8h1.3v-1.2H187.7V172H189A9.6,9.6,0,0,1,196.9,167.8Z" fill="#fff" stroke="#4f9dff" stroke-miterlimit="10"/><circle cx="196.9" cy="177.5" r="9.7" fill="#fff" stroke="#4f9dff" stroke-miterlimit="10"/><circle cx="196.9" cy="177.5" r="6.8" fill="#fff" stroke="#4f9dff" stroke-miterlimit="10"/><polygon points="199.6 179.9 192.8 179.9 199.2 163.2 206.1 163.2 199.6 179.9" fill="#fff" stroke="#4f9dff" stroke-miterlimit="10"/><polygon points="205 165.8 198.2 165.8 199.2 163.2 206.1 163.2 205 165.8" fill="#fff" stroke="#4f9dff" stroke-miterlimit="10"/><circle cx="196.9" cy="177.5" r="1" fill="#fff" stroke="#4f9dff" stroke-miterlimit="10"/><polygon points="98.3 118.3 96.2 121.9 92.1 121.9 90 118.3 92.1 114.7 96.2 114.7 98.3 118.3" fill="#fff" stroke="#4f9dff" stroke-miterlimit="10"/><circle cx="94.2" cy="118.3" r="2.3" fill="#fff" stroke="#4f9dff" stroke-miterlimit="10"/><rect x="92.1" y="121.9" width="4.3" height="1.92" fill="#fff" stroke="#4f9dff" stroke-miterlimit="10"/><rect x="199.7" y="147" width="9.2" height="9.97" transform="translate(52.3 356.3) rotate(-90)" fill="#fff" stroke="#4f9dff" stroke-miterlimit="10"/><line x1="244.4" y1="187.1" y2="187.1" fill="none" stroke="#000" stroke-miterlimit="10" opacity="0.5"/></svg>