<svg id="Layer_1" data-name="Layer 1" xmlns="http://www.w3.org/2000/svg" viewBox="0 0 244.4 187.6"><title>backrest_height</title><line x1="17.7" y1="3.7" x2="17.7" y2="57.1" fill="none" stroke="#000" stroke-miterlimit="10" stroke-width="2"/><polygon points="9.6 10.3 11 11.7 17.7 4.5 24.5 11.7 25.9 10.3 17.7 1.5 9.6 10.3"/><polygon points="9.6 50.5 11 49.1 17.7 56.4 24.5 49.1 25.9 50.5 17.7 59.3 9.6 50.5"/><rect x="62.6" y="48.6" width="91" height="11.66" fill="#fff" stroke="#4f9dff" stroke-miterlimit="10"/><polygon points="61.4 53.7 55.9 53.7 55.3 0.8 60.9 0.5 61.4 53.7" fill="#fff" stroke="#4f9dff" stroke-miterlimit="10"/><rect x="62.6" y="60.3" width="109.6" height="6.76" fill="#fff" stroke="#4f9dff" stroke-miterlimit="10"/><polygon points="149.9 134.4 143.1 132.1 143.1 132.1 95.9 116.3 95.9 123.4 124.3 132.9 124.3 132.9 125.5 133.3 140.2 138.2 140.2 138.2 147.6 140.7 149.9 134.4" fill="#fff" stroke="#4f9dff" stroke-miterlimit="10"/><rect x="88.8" y="59.7" width="12.8" height="7.98" fill="#fff" stroke="#4f9dff" stroke-miterlimit="10"/><rect x="114.7" y="59.7" width="12.8" height="7.98" fill="#fff" stroke="#4f9dff" stroke-miterlimit="10"/><rect x="140.8" y="59.7" width="12.8" height="7.98" fill="#fff" stroke="#4f9dff" stroke-miterlimit="10"/><rect x="90.5" y="67.7" width="7.1" height="47.91" fill="#fff" stroke="#4f9dff" stroke-miterlimit="10"/><polygon points="93.2 124.8 29.2 159.1 23.6 159.1 23.6 150.8 93.2 113.5 93.2 124.8" fill="#fff" stroke="#4f9dff" stroke-miterlimit="10"/><path d="M95.9,123.4v-7.1l44.7,14.9a2,2,0,0,1,1.2,2.6l-0.9,2.6a2,2,0,0,1-2.5,1.2Z" fill="#fff" stroke="#4f9dff" stroke-miterlimit="10"/><path d="M195.1,76.9c-2.8-10.3-11.8-16.5-22.9-16.6V67a17.6,17.6,0,0,1,16.6,12Z" fill="#fff" stroke="#4f9dff" stroke-miterlimit="10"/><rect x="162.2" y="130.4" width="9.2" height="5.3" transform="translate(33.7 299.9) rotate(-90)" fill="#fff" stroke="#4f9dff" stroke-miterlimit="10"/><rect x="160.9" y="140.1" width="11.9" height="7.15" transform="translate(23.2 310.5) rotate(-90)" fill="#fff" stroke="#4f9dff" stroke-miterlimit="10"/><rect x="163.3" y="150.4" width="7" height="5.3" transform="translate(13.7 319.9) rotate(-90)" fill="#fff" stroke="#4f9dff" stroke-miterlimit="10"/><rect x="166.8" y="166.7" width="20.8" height="5.3" fill="#fff" stroke="#4f9dff" stroke-miterlimit="10"/><rect x="166.8" y="166.7" width="20.8" height="5.3" fill="#fff" stroke="#4f9dff" stroke-miterlimit="10"/><polygon points="147.6 140.7 149.9 134.4 217 156.7 195.1 156.5 147.6 140.7" fill="#fff" stroke="#4f9dff" stroke-miterlimit="10"/><path d="M55.7,29.8H45.5a2.2,2.2,0,0,0-1.9,2.4,2.2,2.2,0,0,0,1.9,2.4H55.7a2.2,2.2,0,0,0,1.9-2.4A2.2,2.2,0,0,0,55.7,29.8Z" fill="#fff" stroke="#4f9dff" stroke-miterlimit="10"/><circle cx="21.8" cy="175.5" r="9.7" fill="#fff" stroke="#4f9dff" stroke-miterlimit="10"/><circle cx="21.8" cy="175.5" r="6.8" fill="#fff" stroke="#4f9dff" stroke-miterlimit="10"/><path d="M223,156.6H204.4v6.6H223c1.1,0,1.9-1.5,1.9-3.3S224.1,156.6,223,156.6Z" fill="#fff" stroke="#4f9dff" stroke-miterlimit="10"/><path d="M213.1,156.6h-8.7v6.6h8.7c1.1,0,1.9-1.5,1.9-3.3S214.2,156.6,213.1,156.6Z" fill="#fff" stroke="#4f9dff" stroke-miterlimit="10"/><polygon points="24.5 178 17.7 178 24.1 161.3 31 161.3 24.5 178" fill="#fff" stroke="#4f9dff" stroke-miterlimit="10"/><polygon points="29.9 163.9 23.1 163.9 24.1 161.3 31 161.3 29.9 163.9" fill="#fff" stroke="#4f9dff" stroke-miterlimit="10"/><circle cx="21.8" cy="175.5" r="1" fill="#fff" stroke="#4f9dff" stroke-miterlimit="10"/><path d="M32.3,148V145H22.8v14.7h9.5v-1.3a2,2,0,0,0-2.2-1.9,4.3,4.3,0,0,0-2.8,1.2V153A5,5,0,0,0,32.3,148Z" fill="#fff" stroke="#4f9dff" stroke-miterlimit="10"/><path d="M45.5,34.6a2.2,2.2,0,0,1-1.9-2.4,2.2,2.2,0,0,1,1.9-2.4H40.1a2.2,2.2,0,0,0-1.9,2.4A2.2,2.2,0,0,0,40,34.5h5.5Z" fill="#fff" stroke="#4f9dff" stroke-miterlimit="10"/><path d="M62.6,56.4a16.8,16.8,0,0,1-1.1-2.7H56a13,13,0,0,0,6.5,10.2h0V56.4Z" fill="#fff" stroke="#4f9dff" stroke-miterlimit="10"/><circle cx="94.1" cy="119.2" r="6.2" fill="#fff" stroke="#4f9dff" stroke-miterlimit="10"/><path d="M204.4,156.6H162.8c-1.1,0-1.9,1.5-1.9,3.3s0.9,3.3,1.9,3.3h41.7c1.1,0,1.9-1.5,1.9-3.3S205.5,156.6,204.4,156.6Z" fill="#fff" stroke="#4f9dff" stroke-miterlimit="10"/><polygon points="221.8 158.8 214.1 156.6 188.7 79 195.1 76.9 221.8 158.8" fill="#fff" stroke="#4f9dff" stroke-miterlimit="10"/><path d="M164.2,163.2v7a2.9,2.9,0,0,0,5.3,0v-7h-5.3Z" fill="#fff" stroke="#4f9dff" stroke-miterlimit="10"/><path d="M76.1,64.2H75.4V59.7H62.6v8h9.9l-23.8,70a9,9,0,0,0,8.5-6.1L79.4,66.2V66C79.5,65.4,79.1,64.2,76.1,64.2Z" fill="#fff" stroke="#4f9dff" stroke-miterlimit="10"/><line x1="62.6" y1="63.8" x2="75.4" y2="63.8" fill="#fff" stroke="#4f9dff" stroke-miterlimit="10"/><line x1="88.8" y1="63.8" x2="101.5" y2="63.8" fill="#fff" stroke="#4f9dff" stroke-miterlimit="10"/><line x1="114.7" y1="63.8" x2="127.5" y2="63.8" fill="#fff" stroke="#4f9dff" stroke-miterlimit="10"/><line x1="140.8" y1="63.8" x2="153.6" y2="63.8" fill="#fff" stroke="#4f9dff" stroke-miterlimit="10"/><path d="M187.3,156.6H177.2l-7.2-7a3.6,3.6,0,0,1-.3-4.8h0a3.6,3.6,0,0,1,5.3-.3Z" fill="#fff" stroke="#4f9dff" stroke-miterlimit="10"/><path d="M196.8,167.8h1.3v-1.2H187.6V172h1.3A9.6,9.6,0,0,1,196.8,167.8Z" fill="#fff" stroke="#4f9dff" stroke-miterlimit="10"/><circle cx="196.8" cy="177.5" r="9.7" fill="#fff" stroke="#4f9dff" stroke-miterlimit="10"/><circle cx="196.8" cy="177.5" r="6.8" fill="#fff" stroke="#4f9dff" stroke-miterlimit="10"/><polygon points="199.5 179.9 192.7 179.9 199.1 163.2 205.9 163.2 199.5 179.9" fill="#fff" stroke="#4f9dff" stroke-miterlimit="10"/><polygon points="204.9 165.8 198.1 165.8 199.1 163.2 205.9 163.2 204.9 165.8" fill="#fff" stroke="#4f9dff" stroke-miterlimit="10"/><circle cx="196.8" cy="177.5" r="1" fill="#fff" stroke="#4f9dff" stroke-miterlimit="10"/><polygon points="98.2 118.3 96.1 121.9 92 121.9 89.9 118.3 92 114.7 96.1 114.7 98.2 118.3" fill="#fff" stroke="#4f9dff" stroke-miterlimit="10"/><circle cx="94.1" cy="118.3" r="2.3" fill="#fff" stroke="#4f9dff" stroke-miterlimit="10"/><rect x="92" y="121.9" width="4.3" height="1.92" fill="#fff" stroke="#4f9dff" stroke-miterlimit="10"/><rect x="199.6" y="147" width="9.2" height="9.97" transform="translate(52.2 356.2) rotate(-90)" fill="#fff" stroke="#4f9dff" stroke-miterlimit="10"/><line x1="62.6" y1="60.3" y2="60.3" fill="none" stroke="#000" stroke-miterlimit="10" opacity="0.5"/><line x1="58.4" y1="0.5" y2="0.5" fill="none" stroke="#000" stroke-miterlimit="10" opacity="0.5"/><line x1="244.4" y1="187.1" y2="187.1" fill="none" stroke="#000" stroke-miterlimit="10" opacity="0.5"/></svg>