<svg id="Layer_1" data-name="Layer 1" xmlns="http://www.w3.org/2000/svg" viewBox="0 0 244.44 187.61"><defs><style>.cls-1,.cls-2{fill:#fff;}.cls-1{stroke:#4f9dff;}.cls-1,.cls-2,.cls-3{stroke-miterlimit:10;}.cls-2{stroke:#c1c1c1;}.cls-3{fill:none;stroke:#000;opacity:0.5;}.cls-4{font-size:12px;font-family:Franklin Gothic Book;}</style></defs><title>back_angle</title><rect class="cls-1" x="62.69" y="48.65" width="90.99" height="11.66"/><rect class="cls-1" x="62.69" y="60.31" width="109.57" height="6.76"/><polygon class="cls-1" points="150 134.41 143.18 132.13 143.18 132.13 95.97 116.34 95.97 123.4 124.37 132.9 124.37 132.9 125.63 133.32 140.32 138.23 140.33 138.22 147.71 140.68 150 134.41"/><rect class="cls-1" x="88.86" y="59.71" width="12.77" height="7.98"/><rect class="cls-1" x="114.84" y="59.71" width="12.77" height="7.98"/><rect class="cls-1" x="140.91" y="59.71" width="12.77" height="7.98"/><rect class="cls-1" x="90.65" y="67.7" width="7.06" height="47.91"/><polygon class="cls-1" points="93.33 124.82 29.29 159.11 23.72 159.11 23.72 150.75 93.33 113.48 93.33 124.82"/><path class="cls-1" d="M96,123.4v-7.06l44.71,14.95a2,2,0,0,1,1.23,2.55L141,136.41a2,2,0,0,1-2.49,1.21Z"/><path class="cls-1" d="M195.2,76.88c-2.82-10.27-11.78-16.54-22.94-16.57V67a17.6,17.6,0,0,1,16.58,12Z"/><rect class="cls-1" x="162.35" y="130.44" width="9.17" height="5.3" transform="translate(33.85 300.02) rotate(-90)"/><rect class="cls-1" x="160.98" y="140.06" width="11.91" height="7.15" transform="translate(23.31 310.57) rotate(-90)"/><rect class="cls-1" x="163.44" y="150.44" width="7" height="5.3" transform="translate(13.85 320.02) rotate(-90)"/><rect class="cls-1" x="166.94" y="166.67" width="20.81" height="5.3"/><rect class="cls-1" x="166.94" y="166.67" width="20.81" height="5.3"/><polygon class="cls-1" points="147.71 140.68 150 134.38 217.08 156.71 195.26 156.51 147.71 140.68"/><circle class="cls-1" cx="21.95" cy="175.53" r="9.65"/><circle class="cls-1" cx="21.95" cy="175.53" r="6.76"/><path class="cls-1" d="M223.1,156.59H204.54v6.58H223.1c1.07,0,1.93-1.47,1.93-3.29S224.16,156.59,223.1,156.59Z"/><path class="cls-1" d="M213.21,156.59h-8.67v6.58h8.67c1.07,0,1.93-1.47,1.93-3.29S214.28,156.59,213.21,156.59Z"/><polygon class="cls-1" points="24.61 178.01 17.79 178.01 24.25 161.31 31.07 161.31 24.61 178.01"/><polygon class="cls-1" points="30.04 163.86 23.23 163.86 24.25 161.31 31.07 161.31 30.04 163.86"/><circle class="cls-1" cx="21.95" cy="175.53" r="0.97"/><path class="cls-1" d="M32.42,148V145H23v14.66h9.47v-1.31a2,2,0,0,0-2.19-1.86,4.26,4.26,0,0,0-2.8,1.21V153A5,5,0,0,0,32.42,148Z"/><path class="cls-1" d="M62.69,56.38a16.84,16.84,0,0,1-1.14-2.71h-5.4a13,13,0,0,0,6.53,10.18V56.38Z"/><circle class="cls-1" cx="94.17" cy="119.15" r="6.24"/><path class="cls-1" d="M204.54,156.59H162.88c-1.07,0-1.93,1.47-1.93,3.29s0.86,3.29,1.93,3.29h41.66c1.07,0,1.93-1.47,1.93-3.29S205.61,156.59,204.54,156.59Z"/><polygon class="cls-2" points="61.3 54.74 55.86 53.58 66.29 1.77 71.79 2.64 61.3 54.74"/><path class="cls-2" d="M60.62,30.2l-10-2.12A2.19,2.19,0,0,0,48.28,30a2.19,2.19,0,0,0,1.39,2.73l10,2.12A2.19,2.19,0,0,0,62,32.92,2.19,2.19,0,0,0,60.62,30.2Z"/><path class="cls-2" d="M49.68,32.73A2.19,2.19,0,0,1,48.28,30a2.19,2.19,0,0,1,2.38-1.92l-5.32-1.15A2.19,2.19,0,0,0,43,28.85a2.19,2.19,0,0,0,1.39,2.73Z"/><polygon class="cls-2" points="61.56 53.4 56.12 54.55 44.62 2.97 50 1.53 61.56 53.4"/><path class="cls-2" d="M51,31.25l-10,2.1a2.19,2.19,0,0,0-1.4,2.73A2.19,2.19,0,0,0,42,38l10-2.1a2.19,2.19,0,0,0,1.4-2.73A2.19,2.19,0,0,0,51,31.25Z"/><path class="cls-2" d="M42,38a2.19,2.19,0,0,1-2.38-1.93A2.19,2.19,0,0,1,41,33.35l-5.33,1.11a2.19,2.19,0,0,0-1.41,2.72,2.19,2.19,0,0,0,2.38,1.93Z"/><polygon class="cls-1" points="221.95 158.78 214.19 156.64 188.84 79 195.2 76.88 221.95 158.78"/><path class="cls-1" d="M164.29,163.17v7a2.85,2.85,0,0,0,5.3,0v-7h-5.3Z"/><path class="cls-1" d="M76.21,64.21a2.64,2.64,0,0,0-.74.11V59.71H62.69v8h9.9l-23.79,70a9,9,0,0,0,8.54-6.12L79.55,66.2A0.39,0.39,0,0,0,79.63,66C79.63,65.35,79.23,64.21,76.21,64.21Z"/><line class="cls-1" x1="62.69" y1="63.85" x2="75.46" y2="63.85"/><line class="cls-1" x1="88.86" y1="63.85" x2="101.64" y2="63.85"/><line class="cls-1" x1="114.84" y1="63.85" x2="127.61" y2="63.85"/><line class="cls-1" x1="140.91" y1="63.85" x2="153.68" y2="63.85"/><path class="cls-1" d="M187.46,156.62H177.34l-7.23-7a3.57,3.57,0,0,1-.3-4.8h0a3.57,3.57,0,0,1,5.28-.32Z"/><path class="cls-1" d="M196.94,167.81a9.75,9.75,0,0,1,1,.05l0.26,0v-1.17H187.74V172H189A9.64,9.64,0,0,1,196.94,167.81Z"/><circle class="cls-1" cx="196.94" cy="177.46" r="9.65"/><circle class="cls-1" cx="196.94" cy="177.46" r="6.76"/><polygon class="cls-1" points="199.59 179.95 192.77 179.95 199.24 163.25 206.05 163.25 199.59 179.95"/><polygon class="cls-1" points="205.02 165.79 198.21 165.79 199.24 163.25 206.05 163.25 205.02 165.79"/><circle class="cls-1" cx="196.94" cy="177.46" r="0.97"/><polygon class="cls-1" points="98.31 118.27 96.24 121.85 92.11 121.85 90.04 118.27 92.11 114.7 96.24 114.7 98.31 118.27"/><circle class="cls-1" cx="94.17" cy="118.27" r="2.25"/><rect class="cls-1" x="92.11" y="121.85" width="4.32" height="1.92"/><rect class="cls-1" x="199.69" y="147.02" width="9.17" height="9.97" transform="translate(52.28 356.28) rotate(-90)"/><line class="cls-3" x1="244.44" y1="187.11" y2="187.11"/><polygon class="cls-1" points="61.56 53.67 56 53.67 55.41 0.82 60.97 0.53 61.56 53.67"/><path class="cls-1" d="M55.78,29.8H45.61a2.19,2.19,0,0,0-1.93,2.38,2.19,2.19,0,0,0,1.93,2.38H55.78a2.19,2.19,0,0,0,1.93-2.38A2.19,2.19,0,0,0,55.78,29.8Z"/><path class="cls-1" d="M45.61,34.56a2.19,2.19,0,0,1-1.93-2.38A2.19,2.19,0,0,1,45.6,29.8H40.16a2.19,2.19,0,0,0-1.94,2.37,2.19,2.19,0,0,0,1.93,2.38h5.46Z"/><text class="cls-4" transform="translate(73.16 14.14)">+3°</text><text class="cls-4" transform="translate(29.79 14.14)">-3°</text></svg>