<svg id="Layer_1" data-name="Layer 1" xmlns="http://www.w3.org/2000/svg" viewBox="0 0 244.4 232.7"><title>backrest_to_center_axle</title><line x1="64.7" y1="197.1" x2="90.8" y2="197.4" fill="none" stroke="#000" stroke-miterlimit="10" stroke-width="2"/><polygon points="71.3 205.3 72.6 203.9 65.5 197.1 72.8 190.5 71.4 189 62.6 197.1 71.3 205.3"/><polygon points="84.1 205.5 82.7 204 90 197.4 82.9 190.6 84.3 189.1 93 197.4 84.1 205.5"/><rect x="62.7" y="93.7" width="91" height="11.66" fill="#fff" stroke="#4f9dff" stroke-miterlimit="10"/><polygon points="61.6 98.7 56 98.7 55.4 45.9 61 45.6 61.6 98.7" fill="#fff" stroke="#4f9dff" stroke-miterlimit="10"/><rect x="62.7" y="105.4" width="109.6" height="6.76" fill="#fff" stroke="#4f9dff" stroke-miterlimit="10"/><polygon points="150 179.5 143.2 177.2 143.2 177.2 96 161.4 96 168.4 124.4 177.9 124.4 177.9 125.6 178.4 140.3 183.3 140.3 183.3 147.7 185.7 150 179.5" fill="#fff" stroke="#4f9dff" stroke-miterlimit="10"/><rect x="88.9" y="104.8" width="12.8" height="7.98" fill="#fff" stroke="#4f9dff" stroke-miterlimit="10"/><rect x="114.8" y="104.8" width="12.8" height="7.98" fill="#fff" stroke="#4f9dff" stroke-miterlimit="10"/><rect x="140.9" y="104.8" width="12.8" height="7.98" fill="#fff" stroke="#4f9dff" stroke-miterlimit="10"/><rect x="90.6" y="112.7" width="7.1" height="47.91" fill="#fff" stroke="#4f9dff" stroke-miterlimit="10"/><polygon points="93.3 169.9 29.3 204.2 23.7 204.2 23.7 195.8 93.3 158.5 93.3 169.9" fill="#fff" stroke="#4f9dff" stroke-miterlimit="10"/><path d="M96,168.4v-7.1l44.7,14.9a2,2,0,0,1,1.2,2.6l-0.9,2.6a2,2,0,0,1-2.5,1.2Z" fill="#fff" stroke="#4f9dff" stroke-miterlimit="10"/><path d="M195.2,121.9c-2.8-10.3-11.8-16.5-22.9-16.6v6.7a17.6,17.6,0,0,1,16.6,12Z" fill="#fff" stroke="#4f9dff" stroke-miterlimit="10"/><rect x="162.3" y="175.5" width="9.2" height="5.3" transform="translate(-11.2 345.1) rotate(-90)" fill="#fff" stroke="#4f9dff" stroke-miterlimit="10"/><rect x="161" y="185.1" width="11.9" height="7.15" transform="translate(-21.7 355.6) rotate(-90)" fill="#fff" stroke="#4f9dff" stroke-miterlimit="10"/><rect x="163.4" y="195.5" width="7" height="5.3" transform="translate(-31.2 365.1) rotate(-90)" fill="#fff" stroke="#4f9dff" stroke-miterlimit="10"/><rect x="166.9" y="211.7" width="20.8" height="5.3" fill="#fff" stroke="#4f9dff" stroke-miterlimit="10"/><rect x="166.9" y="211.7" width="20.8" height="5.3" fill="#fff" stroke="#4f9dff" stroke-miterlimit="10"/><polygon points="147.7 185.7 150 179.4 217.1 201.8 195.3 201.6 147.7 185.7" fill="#fff" stroke="#4f9dff" stroke-miterlimit="10"/><path d="M55.8,74.9H45.6a2.4,2.4,0,0,0,0,4.8H55.8A2.4,2.4,0,0,0,55.8,74.9Z" fill="#fff" stroke="#4f9dff" stroke-miterlimit="10"/><circle cx="22" cy="220.6" r="9.7" fill="#fff" stroke="#4f9dff" stroke-miterlimit="10"/><circle cx="22" cy="220.6" r="6.8" fill="#fff" stroke="#4f9dff" stroke-miterlimit="10"/><path d="M223.1,201.6H204.5v6.6h18.6c1.1,0,1.9-1.5,1.9-3.3S224.2,201.6,223.1,201.6Z" fill="#fff" stroke="#4f9dff" stroke-miterlimit="10"/><path d="M213.2,201.6h-8.7v6.6h8.7c1.1,0,1.9-1.5,1.9-3.3S214.3,201.6,213.2,201.6Z" fill="#fff" stroke="#4f9dff" stroke-miterlimit="10"/><polygon points="24.6 223.1 17.8 223.1 24.3 206.4 31.1 206.4 24.6 223.1" fill="#fff" stroke="#4f9dff" stroke-miterlimit="10"/><polygon points="30 208.9 23.2 208.9 24.3 206.4 31.1 206.4 30 208.9" fill="#fff" stroke="#4f9dff" stroke-miterlimit="10"/><circle cx="22" cy="220.6" r="1" fill="#fff" stroke="#4f9dff" stroke-miterlimit="10"/><path d="M32.4,193v-2.9H23v14.7h9.5v-1.3a2,2,0,0,0-2.2-1.9,4.3,4.3,0,0,0-2.8,1.2V198A5,5,0,0,0,32.4,193Z" fill="#fff" stroke="#4f9dff" stroke-miterlimit="10"/><path d="M45.6,79.6a2.4,2.4,0,0,1,0-4.8H40.2a2.4,2.4,0,0,0,0,4.8h5.5Z" fill="#fff" stroke="#4f9dff" stroke-miterlimit="10"/><path d="M62.7,101.4a16.8,16.8,0,0,1-1.1-2.7H56.2a13,13,0,0,0,6.5,10.2h0v-7.3Z" fill="#fff" stroke="#4f9dff" stroke-miterlimit="10"/><circle cx="94.2" cy="164.2" r="6.2" fill="#fff" stroke="#4f9dff" stroke-miterlimit="10"/><path d="M204.5,201.6H162.9c-1.1,0-1.9,1.5-1.9,3.3s0.9,3.3,1.9,3.3h41.7c1.1,0,1.9-1.5,1.9-3.3S205.6,201.6,204.5,201.6Z" fill="#fff" stroke="#4f9dff" stroke-miterlimit="10"/><polygon points="222 203.8 214.2 201.7 188.8 124 195.2 121.9 222 203.8" fill="#fff" stroke="#4f9dff" stroke-miterlimit="10"/><path d="M164.3,208.2v7a2.9,2.9,0,0,0,5.3,0v-7h-5.3Z" fill="#fff" stroke="#4f9dff" stroke-miterlimit="10"/><path d="M76.2,109.3H75.5v-4.6H62.7v8h9.9l-23.8,70a9,9,0,0,0,8.5-6.1l22.2-65.4V111C79.6,110.4,79.2,109.3,76.2,109.3Z" fill="#fff" stroke="#4f9dff" stroke-miterlimit="10"/><line x1="62.7" y1="108.9" x2="75.5" y2="108.9" fill="#fff" stroke="#4f9dff" stroke-miterlimit="10"/><line x1="88.9" y1="108.9" x2="101.6" y2="108.9" fill="#fff" stroke="#4f9dff" stroke-miterlimit="10"/><line x1="114.8" y1="108.9" x2="127.6" y2="108.9" fill="#fff" stroke="#4f9dff" stroke-miterlimit="10"/><line x1="140.9" y1="108.9" x2="153.7" y2="108.9" fill="#fff" stroke="#4f9dff" stroke-miterlimit="10"/><path d="M187.5,201.7H177.3l-7.2-7a3.6,3.6,0,0,1-.3-4.8h0a3.6,3.6,0,0,1,5.3-.3Z" fill="#fff" stroke="#4f9dff" stroke-miterlimit="10"/><path d="M196.9,212.9h1.3v-1.2H187.7V217H189A9.6,9.6,0,0,1,196.9,212.9Z" fill="#fff" stroke="#4f9dff" stroke-miterlimit="10"/><circle cx="196.9" cy="222.5" r="9.7" fill="#fff" stroke="#4f9dff" stroke-miterlimit="10"/><circle cx="196.9" cy="222.5" r="6.8" fill="#fff" stroke="#4f9dff" stroke-miterlimit="10"/><polygon points="199.6 225 192.8 225 199.2 208.3 206 208.3 199.6 225" fill="#fff" stroke="#4f9dff" stroke-miterlimit="10"/><polygon points="205 210.8 198.2 210.8 199.2 208.3 206 208.3 205 210.8" fill="#fff" stroke="#4f9dff" stroke-miterlimit="10"/><circle cx="196.9" cy="222.5" r="1" fill="#fff" stroke="#4f9dff" stroke-miterlimit="10"/><polygon points="98.3 163.3 96.2 166.9 92.1 166.9 90 163.3 92.1 159.7 96.2 159.7 98.3 163.3" fill="#fff" stroke="#4f9dff" stroke-miterlimit="10"/><circle cx="94.2" cy="163.3" r="2.3" fill="#fff" stroke="#4f9dff" stroke-miterlimit="10"/><rect x="92.1" y="166.9" width="4.3" height="1.92" fill="#fff" stroke="#4f9dff" stroke-miterlimit="10"/><rect x="199.7" y="192.1" width="9.2" height="9.97" transform="translate(7.2 401.3) rotate(-90)" fill="#fff" stroke="#4f9dff" stroke-miterlimit="10"/><line x1="94" y1="208.2" x2="94" y2="163.3" fill="none" stroke="#000" stroke-miterlimit="10" opacity="0.5"/><line x1="61.5" y1="208.3" x2="61.6" fill="none" stroke="#000" stroke-miterlimit="10" opacity="0.5"/><line x1="244.4" y1="232.2" y2="232.2" fill="none" stroke="#000" stroke-miterlimit="10" opacity="0.5"/></svg>