<svg id="Layer_1" data-name="Layer 1" xmlns="http://www.w3.org/2000/svg" viewBox="0 0 243.4 200"><title>camber_angle</title><line x1="27.4" y1="31.8" x2="62.5" y2="31.8" fill="none" stroke="#000" stroke-miterlimit="10" stroke-width="2"/><polygon points="34 40 35.4 38.5 28.1 31.8 35.4 25.1 34 23.6 25.2 31.8 34 40"/><polygon points="55.9 40 54.5 38.5 61.8 31.8 54.5 25.1 55.9 23.6 64.7 31.8 55.9 40"/><path d="M29.8,172.5c-1.3-5-1.6-18.7,6.8-56A346.6,346.6,0,0,1,47.9,76.2c5.6-15.4,8.8-17.8,9.5-18.1l0.2,0.5a34,34,0,0,1,2.6-4.5,4.5,4.5,0,0,0-4.1-.7c-2.5.8-6.5,3.8-12.8,21.5a349,349,0,0,0-11.4,40.4c-11.9,53.4-6.6,60.2-4.8,62.4a5.8,5.8,0,0,0,3,2.1A34.4,34.4,0,0,1,29.8,172.5Z" fill="none" stroke="#4f9dff" stroke-miterlimit="10"/><rect x="84.4" y="29.9" width="72.3" height="4.96" transform="translate(241.1 64.8) rotate(180)" fill="none" stroke="#4f9dff" stroke-miterlimit="10"/><rect x="156.7" y="0.5" width="4.7" height="48.77" fill="none" stroke="#4f9dff" stroke-miterlimit="10"/><rect x="79.7" y="0.5" width="4.7" height="48.77" fill="none" stroke="#4f9dff" stroke-miterlimit="10"/><rect x="79" y="49.3" width="83.1" height="10.62" fill="none" stroke="#4f9dff" stroke-miterlimit="10"/><rect x="59.1" y="114.6" width="4" height="9.4" fill="none" stroke="#4f9dff" stroke-miterlimit="10"/><rect x="63.1" y="112.9" width="1.5" height="12.53" transform="translate(127.7 238.4) rotate(180)" fill="none" stroke="#4f9dff" stroke-miterlimit="10"/><rect x="176.5" y="112.9" width="1.5" height="12.53" transform="translate(354.6 238.4) rotate(180)" fill="none" stroke="#4f9dff" stroke-miterlimit="10"/><polygon points="146.3 156.9 150.1 156.9 150.1 150 147.5 150 146.3 156.9" fill="none" stroke="#4f9dff" stroke-miterlimit="10"/><polygon points="90.9 150 90.9 156.9 94.4 156.9 93.3 150 90.9 150" fill="none" stroke="#4f9dff" stroke-miterlimit="10"/><path d="M142.7,163.6a5.4,5.4,0,0,1-5.1,3.7h-34a5.4,5.4,0,0,1-5.1-3.7H92.7a11,11,0,0,0,10.8,8.8h34.3a11,11,0,0,0,10.8-8.8h-5.7Z" fill="none" stroke="#4f9dff" stroke-miterlimit="10"/><rect x="156.8" y="169.1" width="6.7" height="17.91" rx="2.5" ry="2.5" fill="none" stroke="#4f9dff" stroke-miterlimit="10"/><polygon points="164.8 164.4 155.6 164.4 154.3 164.4 153.7 164.4 153.7 181.1 155.6 181.1 155.6 166.3 164.8 166.3 164.8 181.1 166.7 181.1 166.7 166.3 166.7 164.4 164.8 164.4" fill="none" stroke="#4f9dff" stroke-miterlimit="10"/><line x1="160.2" y1="169.1" x2="160.2" y2="187" fill="none" stroke="#4f9dff" stroke-miterlimit="10"/><rect x="77.6" y="169.1" width="6.7" height="17.91" rx="2.5" ry="2.5" fill="none" stroke="#4f9dff" stroke-miterlimit="10"/><polygon points="85.6 164.4 76.4 164.4 75.1 164.4 74.5 164.4 74.5 181.1 76.4 181.1 76.4 166.3 85.6 166.3 85.6 181.1 87.5 181.1 87.5 166.3 87.5 164.4 85.6 164.4" fill="none" stroke="#4f9dff" stroke-miterlimit="10"/><line x1="81" y1="169.1" x2="81" y2="187" fill="none" stroke="#4f9dff" stroke-miterlimit="10"/><rect x="49.2" y="169.1" width="6.7" height="17.91" rx="2.5" ry="2.5" fill="none" stroke="#4f9dff" stroke-miterlimit="10"/><line x1="52.6" y1="169.1" x2="52.6" y2="187" fill="none" stroke="#4f9dff" stroke-miterlimit="10"/><rect x="185.2" y="169.1" width="6.7" height="17.91" rx="2.5" ry="2.5" fill="none" stroke="#4f9dff" stroke-miterlimit="10"/><line x1="188.6" y1="169.1" x2="188.6" y2="187" fill="none" stroke="#4f9dff" stroke-miterlimit="10"/><rect x="178" y="116.4" width="4" height="5.6" fill="none" stroke="#4f9dff" stroke-miterlimit="10"/><polygon points="156.7 143.1 156.7 148 164.5 148 164.5 153.6 171.7 156.9 186.4 156.9 156.7 143.1" fill="none" stroke="#4f9dff" stroke-miterlimit="10"/><polygon points="84.4 143.1 54.7 156.9 69.4 156.9 76.6 153.6 76.6 148 84.4 148 84.4 143.1" fill="none" stroke="#4f9dff" stroke-miterlimit="10"/><polygon points="82.2 127.5 83.9 125.5 80 125.5 82.2 127.5" fill="none" stroke="#4f9dff" stroke-miterlimit="10"/><polygon points="144 131.6 139.6 156.9 142.9 159.5 146.3 156.9 150.3 133.8 144 131.6" fill="none" stroke="#4f9dff" stroke-miterlimit="10"/><polygon points="90.5 133.9 94.4 156.9 97.8 159.5 101.1 156.9 96.8 131.7 90.5 133.9" fill="none" stroke="#4f9dff" stroke-miterlimit="10"/><polygon points="155.5 130.5 128.3 120.9 126.6 125.5 151.5 134.2 155.5 130.5" fill="none" stroke="#4f9dff" stroke-miterlimit="10"/><path d="M120.6,124.4a17.4,17.4,0,0,0-6.1,1.1l-1.7-4.5,1.7,4.5h12.1l1.7-4.5-1.7,4.5A17.4,17.4,0,0,0,120.6,124.4Z" fill="none" stroke="#4f9dff" stroke-miterlimit="10"/><polygon points="89.6 134.3 114.5 125.5 112.8 120.9 85.6 130.5 89.6 134.3" fill="none" stroke="#4f9dff" stroke-miterlimit="10"/><rect x="178" y="114.6" width="4" height="9.4" fill="none" stroke="#4f9dff" stroke-miterlimit="10"/><path d="M86.9,112.9H65.8v12.5h5.9l-3.1-2.8a2.8,2.8,0,1,1,3.5-4.3h0l7.9,7.1h9.1Z" fill="none" stroke="#4f9dff" stroke-miterlimit="10"/><path d="M147.2,112.9H93.6l2.1,12.5h4.2l12.9-4.5a22.7,22.7,0,0,1,7.7-1.3,23.6,23.6,0,0,1,7.7,1.3l12.9,4.5H145Z" fill="none" stroke="#4f9dff" stroke-miterlimit="10"/><path d="M153.8,112.9l-2.1,12.5h9.4l7.9-7.1h0a2.8,2.8,0,1,1,3.5,4.3l-3.1,2.8h5.9V112.9H153.8Z" fill="none" stroke="#4f9dff" stroke-miterlimit="10"/><rect x="40.1" y="113.7" width="12.9" height="8.16" transform="translate(25.5 -7.1) rotate(12)" fill="none" stroke="#4f9dff" stroke-miterlimit="10"/><polygon points="78.9 66.2 77.7 66.2 67.8 112.9 74.5 112.9 81.4 80.5 78.9 66.2" fill="none" stroke="#4f9dff" stroke-miterlimit="10"/><polygon points="163.4 66.2 161.8 66.2 159.6 79.5 166.7 112.9 173.3 112.9 163.4 66.2" fill="none" stroke="#4f9dff" stroke-miterlimit="10"/><path d="M78.7,64.9a3.3,3.3,0,0,1,1.4-3.3H78.5v4.5h0.4Z" fill="none" stroke="#4f9dff" stroke-miterlimit="10"/><path d="M85.2,63.8l0.4,2.3h69.6l0.4-2.3a3.3,3.3,0,0,1,1.4-2.2H83.8A3.3,3.3,0,0,1,85.2,63.8Z" fill="none" stroke="#4f9dff" stroke-miterlimit="10"/><polygon points="78.9 66.2 78.5 66.2 78.5 68 79.2 68 78.9 66.2" fill="none" stroke="#4f9dff" stroke-miterlimit="10"/><polygon points="85.9 68 154.9 68 155.2 66.2 85.6 66.2 85.9 68" fill="none" stroke="#4f9dff" stroke-miterlimit="10"/><path d="M96,126.9l-10.8-63a3.3,3.3,0,1,0-6.5,1.1l11,64.1Z" fill="none" stroke="#4f9dff" stroke-miterlimit="10"/><path d="M158.8,61.1a3.3,3.3,0,0,0-3.2,2.7l-10.8,62.9,6.3,2.2,11-64A3.3,3.3,0,0,0,158.8,61.1Z" fill="none" stroke="#4f9dff" stroke-miterlimit="10"/><path d="M78.5,59.9v1.8h1.6a3.2,3.2,0,0,1,3.7,0H157a3.2,3.2,0,0,1,3.7,0h2V59.9H78.5Z" fill="none" stroke="#4f9dff" stroke-miterlimit="10"/><rect x="59.1" y="116.4" width="4" height="5.6" fill="none" stroke="#4f9dff" stroke-miterlimit="10"/><path d="M211.5,172.5c1.3-5,1.6-18.7-6.8-56a346.6,346.6,0,0,0-11.3-40.2c-5.6-15.4-8.8-17.8-9.5-18.1l-0.2.5a34,34,0,0,0-2.6-4.5,4.5,4.5,0,0,1,4.1-.7c2.5,0.8,6.5,3.8,12.8,21.5a349,349,0,0,1,11.4,40.4c11.9,53.4,6.6,60.2,4.8,62.4a5.8,5.8,0,0,1-3,2.1A34.4,34.4,0,0,0,211.5,172.5Z" fill="none" stroke="#4f9dff" stroke-miterlimit="10"/><rect x="188.3" y="113.7" width="12.9" height="8.16" transform="matrix(-0.98, 0.21, -0.21, -0.98, 409.69, 192.58)" fill="none" stroke="#4f9dff" stroke-miterlimit="10"/><path d="M171,117.5a2.8,2.8,0,0,0-2,.8h0l-18.8,17.1v21.5h5.5V148h1V136.9l15.8-14.3A2.8,2.8,0,0,0,171,117.5Z" fill="none" stroke="#4f9dff" stroke-miterlimit="10"/><rect x="155.7" y="148" width="8.9" height="8.88" fill="none" stroke="#4f9dff" stroke-miterlimit="10"/><path d="M72.1,118.3h0a2.8,2.8,0,1,0-3.5,4.3l15.8,14.3V148h1.1v8.9h5.4V135.4Z" fill="none" stroke="#4f9dff" stroke-miterlimit="10"/><rect x="76.6" y="148" width="8.9" height="8.88" fill="none" stroke="#4f9dff" stroke-miterlimit="10"/><path d="M187.8,121l1.6,6.5c3,12.1,5.5,21.8,7.7,29.4h5c-2.8-9.2-5.5-20.5-8-30.6l-1-4-3.8.8-1.7-8,3.5-.7A360.1,360.1,0,0,1,184.2,78l-0.3-2.3a118.1,118.1,0,0,0-5.5-14.3c-0.4,5.5.5,12.5,0.9,16.3A376.3,376.3,0,0,0,187.8,121Z" fill="none" stroke="#4f9dff" stroke-miterlimit="10"/><path d="M204.7,165l-0.5-1.4h-5c2.3,6.9,4.2,11.3,6.2,13.8a1.1,1.1,0,0,0,.1-0.5A68.6,68.6,0,0,0,204.7,165Z" fill="none" stroke="#4f9dff" stroke-miterlimit="10"/><path d="M44.2,156.9c2.2-7.6,4.7-17.3,7.7-29.4l1.6-6.5a376.3,376.3,0,0,0,8.4-43.2c0.5-3.8,1.3-10.8.9-16.3a118.1,118.1,0,0,0-5.5,14.3L57.1,78a360.1,360.1,0,0,1-6.9,36.4l3.5,0.7-1.7,8-3.8-.8-1,4c-2.5,10.1-5.3,21.4-8,30.6h5Z" fill="none" stroke="#4f9dff" stroke-miterlimit="10"/><path d="M37.1,163.6L36.6,165a68.6,68.6,0,0,0-.9,12,1.1,1.1,0,0,0,.1.5c2-2.5,4-7,6.2-13.8h-5Z" fill="none" stroke="#4f9dff" stroke-miterlimit="10"/><polygon points="146.3 156.9 142.9 159.5 139.6 156.9 101.1 156.9 97.8 159.5 94.4 156.9 36.8 156.9 36.8 163.6 204.4 163.6 204.4 156.9 146.3 156.9" fill="none" stroke="#4f9dff" stroke-miterlimit="10"/><polygon points="193.2 164.4 184 164.4 182.7 164.4 182.1 164.4 182.1 181.1 184 181.1 184 166.3 193.2 166.3 193.2 181.1 195.1 181.1 195.1 166.3 195.1 164.4 193.2 164.4" fill="none" stroke="#4f9dff" stroke-miterlimit="10"/><path d="M48,167.1l0.2-.7H48v0.7Z" fill="none" stroke="#4f9dff" stroke-miterlimit="10"/><polygon points="57.2 164.4 48 164.4 46.7 164.4 46.1 164.4 46.1 181.1 48 181.1 48 166.3 57.2 166.3 57.2 181.1 59.1 181.1 59.1 166.3 59.1 164.4 57.2 164.4" fill="none" stroke="#4f9dff" stroke-miterlimit="10"/><path d="M193.2,149v7.9h2.3Z" fill="none" stroke="#4f9dff" stroke-miterlimit="10"/><path d="M200.7,116.9c-3.6-16.2-7.6-31.3-11.3-42.5-6.3-19.2-10-22.7-12.8-23.6l-1.4-.2a4.6,4.6,0,0,0-3.1,1.3c-1.2,1.1-3.7,3.4-.4,25.4,1.6,10.5,4.2,23.6,7.5,37.4h3.1V124h-0.8c1.8,7,3.6,14.5,5.6,21.7h5.3c-2.3-8.3-4.4-16.9-6.4-24.7-7.8-31.2-10.7-51.8-10.8-60.6a1.5,1.5,0,0,1,2.9-.7,108.7,108.7,0,0,1,6.8,17.1c3.5,10.9,7.4,25.6,11,41.4s6.4,28.7,8.2,38.9h0.5V160l0.2,1.5A83.5,83.5,0,0,1,206,177a1.5,1.5,0,0,1-1.2,1.5h-0.3a1.6,1.6,0,0,1-1.4-.9,101.7,101.7,0,0,1-5.4-14h-5.4l0.3,0.8h2.6V172c4.3,11.4,7.1,14.1,10,14.1v0a5.1,5.1,0,0,0,4-2C214,177.9,209.6,156.8,200.7,116.9Z" fill="#4f9dff"/><polygon points="186.4 145.7 169.4 125.5 162.5 131.7 183.7 156.9 183.9 156.9 183.9 145.7 186.4 145.7" fill="none" stroke="#4f9dff" stroke-miterlimit="10"/><polygon points="193.2 153.9 193.2 156.9 195.8 156.9 193.2 153.9" fill="none" stroke="#4f9dff" stroke-miterlimit="10"/><rect x="183.9" y="145.7" width="9.3" height="11.2" fill="none" stroke="#4f9dff" stroke-miterlimit="10"/><path d="M69.2,51.8a4.6,4.6,0,0,0-3.1-1.3l-1.4.2c-2.8.9-6.5,4.4-12.8,23.6-3.7,11.2-7.7,26.3-11.3,42.5-8.9,39.9-13.3,61-8.5,67.2a5.1,5.1,0,0,0,4,2v0c2.8,0,5.6-2.6,9.8-13.7v-8h2.8l0.3-.8H43.7a101.7,101.7,0,0,1-5.4,14,1.6,1.6,0,0,1-1.4.9H36.5a1.5,1.5,0,0,1-1.2-1.5,83.5,83.5,0,0,1,1.4-15.5v-4.6h0.7c1.8-10.2,4.6-22.8,8.2-38.9s7.4-30.4,11-41.4a108.7,108.7,0,0,1,6.8-17.1,1.5,1.5,0,0,1,2.9.7c-0.1,8.8-3,29.4-10.8,60.6-2,7.9-4.1,16.5-6.4,24.7h5.3c2-7.2,3.9-14.7,5.6-21.7H59.1v-9.4h3.1c3.3-13.8,5.9-26.9,7.5-37.4C72.9,55.2,70.4,52.9,69.2,51.8Z" fill="#4f9dff"/><path d="M47.9,156.9v-7.3l-2.1,7.3h2.1Z" fill="none" stroke="#4f9dff" stroke-miterlimit="10"/><polygon points="45.3 156.9 47.9 156.9 47.9 153.9 45.3 156.9" fill="none" stroke="#4f9dff" stroke-miterlimit="10"/><polygon points="71.7 125.5 54.8 145.7 57.2 145.7 57.2 156.9 57.4 156.9 78.6 131.7 71.7 125.5" fill="none" stroke="#4f9dff" stroke-miterlimit="10"/><rect x="47.9" y="145.7" width="9.3" height="11.2" fill="none" stroke="#4f9dff" stroke-miterlimit="10"/><polygon points="159 127.5 157.3 125.5 161.2 125.5 159 127.5" fill="none" stroke="#4f9dff" stroke-miterlimit="10"/><polyline points="69 18.9 24.3 199.5 24.1 199.5 24.1 19" fill="none" stroke="#000" stroke-miterlimit="10" opacity="0.5"/><line x1="243.4" y1="187" y2="187" fill="none" stroke="#000" stroke-miterlimit="10" opacity="0.5"/></svg>