<svg id="Layer_1" data-name="Layer 1" xmlns="http://www.w3.org/2000/svg" viewBox="0 0 244.4 205.8"><title>caster_housing_to_front_foot_plate</title><line x1="212.4" y1="197.6" x2="181.4" y2="197.6" fill="none" stroke="#000" stroke-miterlimit="10" stroke-width="2"/><polygon points="205.8 189.5 204.5 190.9 211.7 197.6 204.5 204.4 205.8 205.8 214.6 197.6 205.8 189.5"/><polygon points="188.1 189.5 189.4 190.9 182.2 197.6 189.4 204.4 188.1 205.8 179.3 197.6 188.1 189.5"/><rect x="74" y="48.6" width="91" height="11.66" fill="#fff" stroke="#4f9dff" stroke-miterlimit="10"/><polygon points="72.9 53.7 67.3 53.7 66.7 0.8 72.3 0.5 72.9 53.7" fill="#fff" stroke="#4f9dff" stroke-miterlimit="10"/><rect x="74" y="60.3" width="109.6" height="6.76" fill="#fff" stroke="#4f9dff" stroke-miterlimit="10"/><polygon points="161.3 134.4 154.5 132.1 154.5 132.1 107.3 116.3 107.3 123.4 135.7 132.9 135.7 132.9 137 133.3 151.7 138.2 151.7 138.2 159 140.7 161.3 134.4" fill="#fff" stroke="#4f9dff" stroke-miterlimit="10"/><rect x="100.2" y="59.7" width="12.8" height="7.98" fill="#fff" stroke="#4f9dff" stroke-miterlimit="10"/><rect x="126.2" y="59.7" width="12.8" height="7.98" fill="#fff" stroke="#4f9dff" stroke-miterlimit="10"/><rect x="152.2" y="59.7" width="12.8" height="7.98" fill="#fff" stroke="#4f9dff" stroke-miterlimit="10"/><rect x="102" y="67.7" width="7.1" height="47.91" fill="#fff" stroke="#4f9dff" stroke-miterlimit="10"/><polygon points="104.7 124.8 40.6 159.1 35.1 159.1 35.1 150.8 104.7 113.5 104.7 124.8" fill="#fff" stroke="#4f9dff" stroke-miterlimit="10"/><path d="M107.3,123.4v-7.1L152,131.3a2,2,0,0,1,1.2,2.6l-0.9,2.6a2,2,0,0,1-2.5,1.2Z" fill="#fff" stroke="#4f9dff" stroke-miterlimit="10"/><path d="M206.5,76.9c-2.8-10.3-11.8-16.5-22.9-16.6V67a17.6,17.6,0,0,1,16.6,12Z" fill="#fff" stroke="#4f9dff" stroke-miterlimit="10"/><rect x="173.7" y="130.4" width="9.2" height="5.3" transform="translate(45.2 311.4) rotate(-90)" fill="#fff" stroke="#4f9dff" stroke-miterlimit="10"/><rect x="172.3" y="140.1" width="11.9" height="7.15" transform="translate(34.6 321.9) rotate(-90)" fill="#fff" stroke="#4f9dff" stroke-miterlimit="10"/><rect x="174.8" y="150.4" width="7" height="5.3" transform="translate(25.2 331.4) rotate(-90)" fill="#fff" stroke="#4f9dff" stroke-miterlimit="10"/><rect x="178.3" y="166.7" width="20.8" height="5.3" fill="#fff" stroke="#4f9dff" stroke-miterlimit="10"/><rect x="178.3" y="166.7" width="20.8" height="5.3" fill="#fff" stroke="#4f9dff" stroke-miterlimit="10"/><polygon points="159 140.7 161.3 134.4 228.4 156.7 206.6 156.5 159 140.7" fill="#fff" stroke="#4f9dff" stroke-miterlimit="10"/><path d="M67.1,29.8H56.9A2.2,2.2,0,0,0,55,32.2a2.2,2.2,0,0,0,1.9,2.4H67.1a2.2,2.2,0,0,0,1.9-2.4A2.2,2.2,0,0,0,67.1,29.8Z" fill="#fff" stroke="#4f9dff" stroke-miterlimit="10"/><circle cx="33.3" cy="175.5" r="9.7" fill="#fff" stroke="#4f9dff" stroke-miterlimit="10"/><circle cx="33.3" cy="175.5" r="6.8" fill="#fff" stroke="#4f9dff" stroke-miterlimit="10"/><path d="M234.4,156.6H215.9v6.6h18.6c1.1,0,1.9-1.5,1.9-3.3S235.5,156.6,234.4,156.6Z" fill="#fff" stroke="#4f9dff" stroke-miterlimit="10"/><path d="M224.5,156.6h-8.7v6.6h8.7c1.1,0,1.9-1.5,1.9-3.3S225.6,156.6,224.5,156.6Z" fill="#fff" stroke="#4f9dff" stroke-miterlimit="10"/><polygon points="35.9 178 29.1 178 35.6 161.3 42.4 161.3 35.9 178" fill="#fff" stroke="#4f9dff" stroke-miterlimit="10"/><polygon points="41.4 163.9 34.6 163.9 35.6 161.3 42.4 161.3 41.4 163.9" fill="#fff" stroke="#4f9dff" stroke-miterlimit="10"/><circle cx="33.3" cy="175.5" r="1" fill="#fff" stroke="#4f9dff" stroke-miterlimit="10"/><path d="M43.8,148V145H34.3v14.7h9.5v-1.3a2,2,0,0,0-2.2-1.9,4.3,4.3,0,0,0-2.8,1.2V153A5,5,0,0,0,43.8,148Z" fill="#fff" stroke="#4f9dff" stroke-miterlimit="10"/><path d="M56.9,34.6A2.2,2.2,0,0,1,55,32.2a2.2,2.2,0,0,1,1.9-2.4H51.5a2.2,2.2,0,0,0-1.9,2.4,2.2,2.2,0,0,0,1.9,2.4h5.5Z" fill="#fff" stroke="#4f9dff" stroke-miterlimit="10"/><path d="M74,56.4a16.8,16.8,0,0,1-1.1-2.7H67.5A13,13,0,0,0,74,63.8h0V56.4Z" fill="#fff" stroke="#4f9dff" stroke-miterlimit="10"/><circle cx="105.5" cy="119.2" r="6.2" fill="#fff" stroke="#4f9dff" stroke-miterlimit="10"/><path d="M215.9,156.6H174.2c-1.1,0-1.9,1.5-1.9,3.3s0.9,3.3,1.9,3.3h41.7c1.1,0,1.9-1.5,1.9-3.3S216.9,156.6,215.9,156.6Z" fill="#fff" stroke="#4f9dff" stroke-miterlimit="10"/><polygon points="233.3 158.8 225.5 156.6 200.2 79 206.5 76.9 233.3 158.8" fill="#fff" stroke="#4f9dff" stroke-miterlimit="10"/><path d="M175.6,163.2v7a2.9,2.9,0,0,0,5.3,0v-7h-5.3Z" fill="#fff" stroke="#4f9dff" stroke-miterlimit="10"/><path d="M87.5,64.2H86.8V59.7H74v8h9.9l-23.8,70a9,9,0,0,0,8.5-6.1L90.9,66.2V66C91,65.4,90.6,64.2,87.5,64.2Z" fill="#fff" stroke="#4f9dff" stroke-miterlimit="10"/><line x1="74" y1="63.8" x2="86.8" y2="63.8" fill="#fff" stroke="#4f9dff" stroke-miterlimit="10"/><line x1="100.2" y1="63.8" x2="113" y2="63.8" fill="#fff" stroke="#4f9dff" stroke-miterlimit="10"/><line x1="126.2" y1="63.8" x2="138.9" y2="63.8" fill="#fff" stroke="#4f9dff" stroke-miterlimit="10"/><line x1="152.2" y1="63.8" x2="165" y2="63.8" fill="#fff" stroke="#4f9dff" stroke-miterlimit="10"/><path d="M198.8,156.6H188.7l-7.2-7a3.6,3.6,0,0,1-.3-4.8h0a3.6,3.6,0,0,1,5.3-.3Z" fill="#fff" stroke="#4f9dff" stroke-miterlimit="10"/><path d="M208.3,167.8h1.3v-1.2H199.1V172h1.3A9.6,9.6,0,0,1,208.3,167.8Z" fill="#fff" stroke="#4f9dff" stroke-miterlimit="10"/><circle cx="208.3" cy="177.5" r="9.7" fill="#fff" stroke="#4f9dff" stroke-miterlimit="10"/><circle cx="208.3" cy="177.5" r="6.8" fill="#fff" stroke="#4f9dff" stroke-miterlimit="10"/><polygon points="210.9 179.9 204.1 179.9 210.6 163.2 217.4 163.2 210.9 179.9" fill="#fff" stroke="#4f9dff" stroke-miterlimit="10"/><polygon points="216.4 165.8 209.5 165.8 210.6 163.2 217.4 163.2 216.4 165.8" fill="#fff" stroke="#4f9dff" stroke-miterlimit="10"/><circle cx="208.3" cy="177.5" r="1" fill="#fff" stroke="#4f9dff" stroke-miterlimit="10"/><polygon points="109.6 118.3 107.6 121.9 103.4 121.9 101.4 118.3 103.4 114.7 107.6 114.7 109.6 118.3" fill="#fff" stroke="#4f9dff" stroke-miterlimit="10"/><circle cx="105.5" cy="118.3" r="2.3" fill="#fff" stroke="#4f9dff" stroke-miterlimit="10"/><rect x="103.4" y="121.9" width="4.3" height="1.92" fill="#fff" stroke="#4f9dff" stroke-miterlimit="10"/><rect x="211" y="147" width="9.2" height="9.97" transform="translate(63.6 367.6) rotate(-90)" fill="#fff" stroke="#4f9dff" stroke-miterlimit="10"/><line x1="244.4" y1="187.1" y2="187.1" fill="none" stroke="#000" stroke-miterlimit="10" opacity="0.5"/><line x1="178.3" y1="203.2" x2="178.3" y2="152" fill="none" stroke="#000" stroke-miterlimit="10" stroke-width="0.5" opacity="0.5"/><line x1="178.3" y1="203.2" x2="178.3" y2="152" fill="none" stroke="#000" stroke-miterlimit="10" opacity="0.5"/><line x1="215.9" y1="203.2" x2="215.9" y2="152" fill="none" stroke="#000" stroke-miterlimit="10" opacity="0.5"/></svg>