<svg id="Layer_1" data-name="Layer 1" xmlns="http://www.w3.org/2000/svg" viewBox="0 0 243.44 199.46"><defs><style>.cls-1,.cls-2,.cls-4{fill:none;}.cls-1,.cls-4{stroke:#000;}.cls-1,.cls-2,.cls-4,.cls-5{stroke-miterlimit:10;}.cls-1{stroke-width:2px;}.cls-2,.cls-5{stroke:#4f9dff;}.cls-3{fill:#4f9dff;}.cls-4{opacity:0.5;}.cls-5{fill:#fff;}</style></defs><title>foot_width</title><line class="cls-1" x1="101.57" y1="182.16" x2="139.17" y2="182.16"/><polygon points="108.2 190.34 109.56 188.87 102.34 182.16 109.56 175.44 108.2 173.98 99.4 182.16 108.2 190.34"/><polygon points="132.54 190.34 131.18 188.87 138.4 182.16 131.18 175.44 132.54 173.98 141.34 182.16 132.54 190.34"/><path class="cls-2" d="M29.8,172.45c-1.31-5-1.58-18.73,6.76-56A346.59,346.59,0,0,1,47.9,76.19c5.58-15.36,8.82-17.75,9.49-18.1a2.86,2.86,0,0,1,.2.51,34,34,0,0,1,2.58-4.46,4.47,4.47,0,0,0-4.1-.68c-2.46.77-6.47,3.84-12.85,21.54a349,349,0,0,0-11.36,40.38c-11.93,53.4-6.58,60.16-4.82,62.38a5.83,5.83,0,0,0,3,2.06A34.43,34.43,0,0,1,29.8,172.45Z"/><rect class="cls-2" x="84.4" y="29.9" width="72.33" height="4.96" transform="translate(241.13 64.76) rotate(180)"/><rect class="cls-2" x="156.73" y="0.5" width="4.71" height="48.77"/><rect class="cls-2" x="79.69" y="0.5" width="4.71" height="48.77"/><rect class="cls-2" x="79.01" y="49.27" width="83.11" height="10.62"/><rect class="cls-2" x="59.12" y="114.6" width="3.97" height="9.4"/><rect class="cls-2" x="63.09" y="112.93" width="1.53" height="12.53" transform="translate(127.71 238.39) rotate(180)"/><rect class="cls-2" x="176.51" y="112.93" width="1.53" height="12.53" transform="translate(354.56 238.39) rotate(180)"/><polygon class="cls-2" points="146.32 156.92 150.14 156.92 150.14 150.04 147.49 150.04 146.32 156.92"/><polygon class="cls-2" points="90.91 150.04 90.91 156.92 94.44 156.92 93.26 150.04 90.91 150.04"/><path class="cls-2" d="M142.73,163.64a5.44,5.44,0,0,1-5.15,3.69h-34a5.44,5.44,0,0,1-5.15-3.69H92.68a11,11,0,0,0,10.76,8.78h34.25a11,11,0,0,0,10.76-8.78h-5.71Z"/><rect class="cls-2" x="156.8" y="169.12" width="6.74" height="17.91" rx="2.52" ry="2.52"/><polygon class="cls-2" points="164.77 164.42 155.57 164.42 154.26 164.42 153.66 164.42 153.66 181.06 155.57 181.06 155.57 166.32 164.77 166.32 164.77 181.06 166.67 181.06 166.67 166.32 166.67 164.42 164.77 164.42"/><line class="cls-2" x1="160.17" y1="169.12" x2="160.17" y2="187.03"/><rect class="cls-2" x="77.6" y="169.12" width="6.74" height="17.91" rx="2.52" ry="2.52"/><polygon class="cls-2" points="85.57 164.42 76.36 164.42 75.06 164.42 74.46 164.42 74.46 181.06 76.36 181.06 76.36 166.32 85.57 166.32 85.57 181.06 87.47 181.06 87.47 166.32 87.47 164.42 85.57 164.42"/><line class="cls-2" x1="80.96" y1="169.12" x2="80.96" y2="187.03"/><rect class="cls-2" x="49.19" y="169.12" width="6.74" height="17.91" rx="2.52" ry="2.52"/><line class="cls-2" x1="52.56" y1="169.12" x2="52.56" y2="187.03"/><rect class="cls-2" x="185.2" y="169.12" width="6.74" height="17.91" rx="2.52" ry="2.52"/><line class="cls-2" x1="188.57" y1="169.12" x2="188.57" y2="187.03"/><rect class="cls-2" x="178.04" y="116.4" width="3.97" height="5.6"/><polygon class="cls-2" points="156.69 143.1 156.69 148.03 164.54 148.03 164.54 153.6 171.69 156.92 186.41 156.92 156.69 143.1"/><polygon class="cls-2" points="84.4 143.12 54.73 156.92 69.44 156.92 76.59 153.6 76.59 148.03 84.4 148.03 84.4 143.12"/><polygon class="cls-2" points="82.18 127.47 83.87 125.46 79.95 125.46 82.18 127.47"/><polygon class="cls-2" points="143.98 131.6 139.65 156.92 142.92 159.47 146.32 156.92 150.27 133.82 143.98 131.6"/><polygon class="cls-2" points="90.51 133.95 94.44 156.92 97.84 159.47 101.11 156.92 96.8 131.73 90.51 133.95"/><polygon class="cls-2" points="155.54 130.54 128.31 120.91 126.61 125.46 151.46 134.24 155.54 130.54"/><path class="cls-2" d="M120.57,124.36a17.37,17.37,0,0,0-6.05,1.07l-1.69-4.51,1.71,4.55h12.08l1.71-4.55-1.69,4.51A17.37,17.37,0,0,0,120.57,124.36Z"/><polygon class="cls-2" points="89.65 134.25 114.53 125.46 112.82 120.91 85.56 130.55 89.65 134.25"/><rect class="cls-2" x="178.04" y="114.6" width="3.97" height="9.4"/><path class="cls-2" d="M86.91,112.93H65.8v12.53h5.88l-3.08-2.78a2.79,2.79,0,1,1,3.47-4.34l0,0L80,125.46h9.1Z"/><path class="cls-2" d="M147.17,112.93H93.58l2.14,12.53h4.22l12.87-4.55a22.71,22.71,0,0,1,7.75-1.34,23.56,23.56,0,0,1,7.75,1.34l12.87,4.55H145Z"/><path class="cls-2" d="M153.84,112.93l-2.14,12.53h9.44l7.87-7.14,0,0a2.79,2.79,0,1,1,3.47,4.34l-3.08,2.78h5.92V112.93H153.84Z"/><rect class="cls-2" x="40.12" y="113.74" width="12.88" height="8.16" transform="translate(25.51 -7.11) rotate(12)"/><polygon class="cls-2" points="78.91 66.17 77.73 66.17 67.79 112.93 74.46 112.93 81.36 80.48 78.91 66.17"/><polygon class="cls-2" points="163.4 66.17 161.85 66.17 159.56 79.5 166.67 112.93 173.35 112.93 163.4 66.17"/><path class="cls-2" d="M78.7,64.95a3.27,3.27,0,0,1,1.42-3.27H78.54v4.5h0.37Z"/><path class="cls-2" d="M85.18,63.84l0.4,2.34h69.59l0.4-2.34A3.27,3.27,0,0,1,157,61.67H83.77A3.27,3.27,0,0,1,85.18,63.84Z"/><polygon class="cls-2" points="78.91 66.17 78.54 66.17 78.54 67.95 79.21 67.95 78.91 66.17"/><polygon class="cls-2" points="85.89 67.95 154.87 67.95 155.17 66.17 85.58 66.17 85.89 67.95"/><path class="cls-2" d="M96,126.87l-10.79-63a3.29,3.29,0,1,0-6.48,1.11l11,64.15Z"/><path class="cls-2" d="M158.82,61.1a3.29,3.29,0,0,0-3.24,2.73l-10.76,62.91L151.1,129l11-64A3.29,3.29,0,0,0,158.82,61.1Z"/><path class="cls-2" d="M78.54,59.89v1.78h1.58a3.21,3.21,0,0,1,3.65,0H157a3.21,3.21,0,0,1,3.65,0h2V59.89H78.54Z"/><rect class="cls-2" x="59.12" y="116.4" width="3.97" height="5.6"/><path class="cls-2" d="M211.48,172.45c1.31-5,1.58-18.73-6.76-56a346.59,346.59,0,0,0-11.34-40.23c-5.58-15.36-8.82-17.75-9.49-18.1a2.86,2.86,0,0,0-.2.51,34,34,0,0,0-2.58-4.46,4.47,4.47,0,0,1,4.1-.68c2.46,0.77,6.47,3.84,12.85,21.54a349,349,0,0,1,11.36,40.38c11.93,53.4,6.58,60.16,4.82,62.38a5.83,5.83,0,0,1-3,2.06A34.43,34.43,0,0,0,211.48,172.45Z"/><rect class="cls-2" x="188.29" y="113.74" width="12.88" height="8.16" transform="translate(409.69 192.58) rotate(168)"/><path class="cls-2" d="M171,117.52a2.79,2.79,0,0,0-2,.82l0,0L150.18,135.4v21.52h5.48V148h1V136.95l15.8-14.27A2.79,2.79,0,0,0,171,117.52Z"/><rect class="cls-2" x="155.66" y="148.03" width="8.88" height="8.88"/><path class="cls-2" d="M72.08,118.32l0,0a2.79,2.79,0,1,0-3.47,4.34l15.8,14.27V148h1.07v8.88h5.44V135.4Z"/><rect class="cls-2" x="76.59" y="148.03" width="8.88" height="8.88"/><path class="cls-2" d="M187.75,121c0.53,2.11,1.07,4.29,1.62,6.52,3,12.14,5.51,21.82,7.72,29.41h5c-2.75-9.2-5.55-20.5-8-30.56l-1-4-3.76.8-1.7-8,3.51-.75A360.06,360.06,0,0,1,184.22,78c-0.1-.78-0.19-1.53-0.27-2.25a118.13,118.13,0,0,0-5.51-14.26C178,67,178.89,74,179.35,77.81A376.27,376.27,0,0,0,187.75,121Z"/><path class="cls-2" d="M204.68,165l-0.48-1.36h-5c2.25,6.86,4.24,11.33,6.24,13.83a1.11,1.11,0,0,0,.15-0.49A68.64,68.64,0,0,0,204.68,165Z"/><path class="cls-2" d="M44.2,156.92c2.22-7.58,4.72-17.26,7.72-29.41,0.55-2.22,1.09-4.41,1.62-6.52a376.27,376.27,0,0,0,8.4-43.19C62.4,74,63.26,67,62.85,61.49a118.13,118.13,0,0,0-5.51,14.26c-0.08.72-.17,1.47-0.27,2.25a360.06,360.06,0,0,1-6.88,36.42l3.51,0.75-1.7,8-3.76-.8-1,4c-2.49,10.05-5.28,21.36-8,30.56h5Z"/><path class="cls-2" d="M37.08,163.64L36.61,165a68.64,68.64,0,0,0-.87,12,1.11,1.11,0,0,0,.15.49c2-2.51,4-7,6.24-13.83h-5Z"/><polygon class="cls-2" points="146.32 156.92 142.92 159.47 139.65 156.92 101.11 156.92 97.84 159.47 94.44 156.92 36.77 156.92 36.77 163.64 204.37 163.64 204.37 156.92 146.32 156.92"/><polygon class="cls-2" points="193.18 164.42 183.97 164.42 182.67 164.42 182.07 164.42 182.07 181.06 183.97 181.06 183.97 166.32 193.18 166.32 193.18 181.06 195.08 181.06 195.08 166.32 195.08 164.42 193.18 164.42"/><path class="cls-2" d="M48,167.07l0.25-.75H48v0.75Z"/><polygon class="cls-2" points="57.16 164.42 47.96 164.42 46.66 164.42 46.06 164.42 46.06 181.06 47.96 181.06 47.96 166.32 57.16 166.32 57.16 181.06 59.06 181.06 59.06 166.32 59.06 164.42 57.16 164.42"/><path class="cls-2" d="M193.23,149v7.87h2.27C194.73,154.37,194,151.73,193.23,149Z"/><path class="cls-3" d="M200.66,116.91C197,100.66,193,85.56,189.35,74.39c-6.3-19.23-10-22.73-12.83-23.61a4.52,4.52,0,0,0-1.35-.21,4.58,4.58,0,0,0-3.12,1.27c-1.2,1.11-3.7,3.41-.42,25.35,1.58,10.53,4.19,23.59,7.46,37.4h3.07V124H181.4c1.75,7,3.65,14.46,5.61,21.71h5.31c-2.26-8.28-4.43-16.88-6.4-24.75-7.8-31.24-10.7-51.81-10.82-60.65a1.52,1.52,0,0,1,2.86-.74,108.71,108.71,0,0,1,6.76,17.08c3.55,10.94,7.44,25.63,11,41.36,3.59,16,6.36,28.67,8.17,38.9h0.53V160c0.08,0.5.17,1,.24,1.49A83.53,83.53,0,0,1,206,177a1.55,1.55,0,0,1-1.23,1.46,1.58,1.58,0,0,1-.35,0,1.55,1.55,0,0,1-1.39-.86,101.69,101.69,0,0,1-5.43-14h-5.38l0.25,0.78h2.61V172c4.25,11.41,7.14,14.07,10,14.07v0.44l0.06-.44a5.14,5.14,0,0,0,4-2C214,177.92,209.58,156.81,200.66,116.91Z"/><polygon class="cls-2" points="186.37 145.71 169.38 125.49 162.51 131.7 183.7 156.92 183.92 156.92 183.92 145.71 186.37 145.71"/><polygon class="cls-2" points="193.23 153.87 193.23 156.92 195.79 156.92 193.23 153.87"/><rect class="cls-2" x="183.92" y="145.71" width="9.31" height="11.2"/><path class="cls-3" d="M69.23,51.84a4.58,4.58,0,0,0-3.12-1.27,4.52,4.52,0,0,0-1.35.21c-2.81.88-6.52,4.37-12.83,23.61-3.66,11.17-7.68,26.27-11.31,42.52-8.92,39.9-13.34,61-8.46,67.18a5.14,5.14,0,0,0,4,2l0.06,0.44v-0.44c2.78,0,5.63-2.58,9.8-13.65v-8h2.77l0.25-.78H43.7a101.69,101.69,0,0,1-5.43,14,1.55,1.55,0,0,1-1.39.86,1.58,1.58,0,0,1-.35,0A1.55,1.55,0,0,1,35.3,177a83.53,83.53,0,0,1,1.38-15.5l0.09-.55v-4h0.68c1.81-10.23,4.59-22.85,8.17-38.9,3.52-15.74,7.41-30.43,11-41.36a108.71,108.71,0,0,1,6.76-17.08,1.52,1.52,0,0,1,2.86.74c-0.12,8.84-3,29.41-10.82,60.65-2,7.86-4.14,16.47-6.4,24.75h5.31c2-7.25,3.86-14.71,5.61-21.71H59.12v-9.4h3.07c3.27-13.81,5.88-26.88,7.46-37.4C72.93,55.25,70.43,52.95,69.23,51.84Z"/><path class="cls-2" d="M47.91,156.92v-7.33c-0.7,2.5-1.4,5-2.11,7.33h2.11Z"/><polygon class="cls-2" points="45.34 156.92 47.91 156.92 47.91 153.87 45.34 156.92"/><polygon class="cls-2" points="71.74 125.51 54.76 145.71 57.21 145.71 57.21 156.92 57.43 156.92 78.61 131.72 71.74 125.51"/><rect class="cls-2" x="47.91" y="145.71" width="9.31" height="11.2"/><polygon class="cls-2" points="158.98 127.47 157.29 125.46 161.2 125.46 158.98 127.47"/><line class="cls-4" x1="142.34" y1="163.66" x2="142.34" y2="199.46"/><line class="cls-4" x1="98.4" y1="163.66" x2="98.4" y2="199.46"/><line class="cls-4" x1="243.44" y1="187.03" y2="187.03"/><path class="cls-5" d="M158.8,61.1a3.29,3.29,0,0,0-3.24,2.73L144,131.6l-4.33,25.32,3.27,2.55,3.4-2.55L150,135.36l12-70.41A3.29,3.29,0,0,0,158.8,61.1Z"/><path class="cls-5" d="M96.78,131.73L85.16,63.84a3.29,3.29,0,1,0-6.48,1.11l11.81,69,3.93,23,3.4,2.55,3.27-2.55Z"/></svg>