<svg id="Layer_1" data-name="Layer 1" xmlns="http://www.w3.org/2000/svg" viewBox="0 0 243.44 187.53"><defs><style>.cls-1,.cls-2,.cls-4{fill:none;}.cls-1,.cls-4{stroke:#000;}.cls-1,.cls-2,.cls-4,.cls-5{stroke-miterlimit:10;}.cls-1{stroke-width:2px;}.cls-2,.cls-5{stroke:#4f9dff;}.cls-3{fill:#4f9dff;}.cls-4{opacity:0.5;}.cls-5{fill:#fff;}</style></defs><title>lower_leg_length</title><line class="cls-1" x1="227.81" y1="52.37" x2="227.81" y2="163.89"/><polygon points="219.63 59 221.1 60.36 227.81 53.14 234.53 60.36 235.99 59 227.81 50.2 219.63 59"/><polygon points="219.63 157.26 221.1 155.9 227.81 163.12 234.53 155.9 235.99 157.26 227.81 166.06 219.63 157.26"/><path class="cls-2" d="M29.23,172.45c-1.31-5-1.58-18.73,6.76-56A346.59,346.59,0,0,1,47.33,76.19c5.58-15.36,8.82-17.75,9.49-18.1a2.86,2.86,0,0,1,.2.51,34,34,0,0,1,2.58-4.46,4.47,4.47,0,0,0-4.1-.68C53,54.23,49,57.3,42.66,75A349,349,0,0,0,31.3,115.37c-11.93,53.4-6.58,60.16-4.82,62.38a5.83,5.83,0,0,0,3,2.06A34.43,34.43,0,0,1,29.23,172.45Z"/><rect class="cls-2" x="83.83" y="29.9" width="72.33" height="4.96" transform="translate(239.99 64.76) rotate(180)"/><rect class="cls-2" x="156.16" y="0.5" width="4.71" height="48.77"/><rect class="cls-2" x="79.12" y="0.5" width="4.71" height="48.77"/><rect class="cls-2" x="78.44" y="49.27" width="83.11" height="10.62"/><rect class="cls-2" x="58.55" y="114.6" width="3.97" height="9.4"/><rect class="cls-2" x="62.52" y="112.93" width="1.53" height="12.53" transform="translate(126.57 238.39) rotate(180)"/><rect class="cls-2" x="175.95" y="112.93" width="1.53" height="12.53" transform="translate(353.42 238.39) rotate(180)"/><polygon class="cls-2" points="145.75 156.92 149.57 156.92 149.57 150.04 146.92 150.04 145.75 156.92"/><polygon class="cls-2" points="90.34 150.04 90.34 156.92 93.87 156.92 92.69 150.04 90.34 150.04"/><path class="cls-2" d="M142.17,163.64a5.44,5.44,0,0,1-5.15,3.69H103a5.44,5.44,0,0,1-5.15-3.69H92.11a11,11,0,0,0,10.76,8.78h34.25a11,11,0,0,0,10.76-8.78h-5.71Z"/><rect class="cls-2" x="156.23" y="169.12" width="6.74" height="17.91" rx="2.52" ry="2.52"/><polygon class="cls-2" points="164.2 164.42 155 164.42 153.7 164.42 153.1 164.42 153.1 181.06 155 181.06 155 166.32 164.2 166.32 164.2 181.06 166.1 181.06 166.1 166.32 166.1 164.42 164.2 164.42"/><line class="cls-2" x1="159.6" y1="169.12" x2="159.6" y2="187.03"/><rect class="cls-2" x="77.03" y="169.12" width="6.74" height="17.91" rx="2.52" ry="2.52"/><polygon class="cls-2" points="85 164.42 75.79 164.42 74.49 164.42 73.89 164.42 73.89 181.06 75.79 181.06 75.79 166.32 85 166.32 85 181.06 86.9 181.06 86.9 166.32 86.9 164.42 85 164.42"/><line class="cls-2" x1="80.4" y1="169.12" x2="80.4" y2="187.03"/><rect class="cls-2" x="48.62" y="169.12" width="6.74" height="17.91" rx="2.52" ry="2.52"/><line class="cls-2" x1="51.99" y1="169.12" x2="51.99" y2="187.03"/><rect class="cls-2" x="184.64" y="169.12" width="6.74" height="17.91" rx="2.52" ry="2.52"/><line class="cls-2" x1="188" y1="169.12" x2="188" y2="187.03"/><rect class="cls-2" x="177.47" y="116.4" width="3.97" height="5.6"/><polygon class="cls-2" points="156.12 143.1 156.12 148.03 163.98 148.03 163.98 153.6 171.12 156.92 185.84 156.92 156.12 143.1"/><polygon class="cls-2" points="83.83 143.12 54.16 156.92 68.88 156.92 76.02 153.6 76.02 148.03 83.83 148.03 83.83 143.12"/><polygon class="cls-2" points="81.61 127.47 83.3 125.46 79.39 125.46 81.61 127.47"/><polygon class="cls-2" points="143.41 131.6 139.08 156.92 142.35 159.47 145.75 156.92 149.7 133.82 143.41 131.6"/><polygon class="cls-2" points="89.94 133.95 93.87 156.92 97.27 159.47 100.54 156.92 96.23 131.73 89.94 133.95"/><polygon class="cls-2" points="154.98 130.54 127.75 120.91 126.04 125.46 150.89 134.24 154.98 130.54"/><path class="cls-2" d="M120,124.36a17.37,17.37,0,0,0-6.05,1.07l-1.69-4.51,1.71,4.55H126l1.71-4.55-1.69,4.51A17.37,17.37,0,0,0,120,124.36Z"/><polygon class="cls-2" points="89.08 134.25 113.96 125.46 112.25 120.91 84.99 130.55 89.08 134.25"/><rect class="cls-2" x="177.47" y="114.6" width="3.97" height="9.4"/><path class="cls-2" d="M86.34,112.93H65.23v12.53h5.88L68,122.68a2.79,2.79,0,1,1,3.47-4.34l0,0,7.87,7.14h9.1Z"/><path class="cls-2" d="M146.6,112.93H93l2.14,12.53h4.22l12.87-4.55a22.71,22.71,0,0,1,7.75-1.34,23.56,23.56,0,0,1,7.75,1.34l12.87,4.55h3.84Z"/><path class="cls-2" d="M153.28,112.93l-2.14,12.53h9.44l7.87-7.14,0,0a2.79,2.79,0,1,1,3.47,4.34l-3.08,2.78h5.92V112.93H153.28Z"/><rect class="cls-2" x="39.55" y="113.74" width="12.88" height="8.16" transform="translate(25.5 -6.99) rotate(12)"/><polygon class="cls-2" points="78.34 66.17 77.16 66.17 67.22 112.93 73.89 112.93 80.79 80.48 78.34 66.17"/><polygon class="cls-2" points="162.83 66.17 161.28 66.17 159 79.5 166.11 112.93 172.78 112.93 162.83 66.17"/><path class="cls-2" d="M78.13,64.95a3.27,3.27,0,0,1,1.42-3.27H78v4.5h0.37Z"/><path class="cls-2" d="M84.61,63.84L85,66.18h69.59l0.4-2.34a3.27,3.27,0,0,1,1.41-2.16H83.2A3.27,3.27,0,0,1,84.61,63.84Z"/><polygon class="cls-2" points="78.34 66.17 77.97 66.17 77.97 67.95 78.64 67.95 78.34 66.17"/><polygon class="cls-2" points="85.32 67.95 154.3 67.95 154.6 66.17 85.01 66.17 85.32 67.95"/><path class="cls-2" d="M95.4,126.87l-10.79-63a3.29,3.29,0,1,0-6.48,1.11l11,64.15Z"/><path class="cls-2" d="M158.25,61.1A3.29,3.29,0,0,0,155,63.84l-10.76,62.91,6.29,2.22,11-64A3.29,3.29,0,0,0,158.25,61.1Z"/><path class="cls-2" d="M78,59.89v1.78h1.58a3.21,3.21,0,0,1,3.65,0h73.21a3.21,3.21,0,0,1,3.65,0h2V59.89H78Z"/><rect class="cls-2" x="58.55" y="116.4" width="3.97" height="5.6"/><path class="cls-2" d="M210.92,172.45c1.31-5,1.58-18.73-6.76-56a346.59,346.59,0,0,0-11.34-40.23c-5.58-15.36-8.82-17.75-9.49-18.1a2.86,2.86,0,0,0-.2.51,34,34,0,0,0-2.58-4.46,4.47,4.47,0,0,1,4.1-.68c2.46,0.77,6.47,3.84,12.85,21.54a349,349,0,0,1,11.36,40.38c11.93,53.4,6.58,60.16,4.82,62.38a5.83,5.83,0,0,1-3,2.06A34.43,34.43,0,0,0,210.92,172.45Z"/><rect class="cls-2" x="187.72" y="113.74" width="12.88" height="8.16" transform="translate(408.57 192.7) rotate(168)"/><path class="cls-2" d="M170.44,117.52a2.79,2.79,0,0,0-2,.82l0,0L149.61,135.4v21.52h5.48V148h1V136.95l15.8-14.27A2.79,2.79,0,0,0,170.44,117.52Z"/><rect class="cls-2" x="155.09" y="148.03" width="8.88" height="8.88"/><path class="cls-2" d="M71.51,118.32l0,0A2.79,2.79,0,1,0,68,122.68l15.8,14.27V148H84.9v8.88h5.44V135.4Z"/><rect class="cls-2" x="76.02" y="148.03" width="8.88" height="8.88"/><path class="cls-2" d="M187.18,121c0.53,2.11,1.07,4.29,1.62,6.52,3,12.14,5.51,21.82,7.72,29.41h5c-2.75-9.2-5.55-20.5-8-30.56l-1-4-3.76.8-1.7-8,3.51-.75A360.06,360.06,0,0,1,183.65,78c-0.1-.78-0.19-1.53-0.27-2.25a118.13,118.13,0,0,0-5.51-14.26c-0.4,5.49.46,12.52,0.92,16.32A376.27,376.27,0,0,0,187.18,121Z"/><path class="cls-2" d="M204.11,165l-0.48-1.36h-5c2.25,6.86,4.24,11.33,6.24,13.83A1.11,1.11,0,0,0,205,177,68.64,68.64,0,0,0,204.11,165Z"/><path class="cls-2" d="M43.63,156.92c2.22-7.58,4.72-17.26,7.72-29.41,0.55-2.22,1.09-4.41,1.62-6.52a376.27,376.27,0,0,0,8.4-43.19C61.83,74,62.69,67,62.28,61.49a118.13,118.13,0,0,0-5.51,14.26c-0.08.72-.17,1.47-0.27,2.25a360.06,360.06,0,0,1-6.88,36.42l3.51,0.75-1.7,8-3.76-.8-1,4c-2.49,10.05-5.28,21.36-8,30.56h5Z"/><path class="cls-2" d="M36.51,163.64L36,165a68.64,68.64,0,0,0-.87,12,1.11,1.11,0,0,0,.15.49c2-2.51,4-7,6.24-13.83h-5Z"/><polygon class="cls-2" points="145.75 156.92 142.35 159.47 139.08 156.92 100.54 156.92 97.27 159.47 93.87 156.92 36.2 156.92 36.2 163.64 203.8 163.64 203.8 156.92 145.75 156.92"/><polygon class="cls-2" points="192.61 164.42 183.4 164.42 182.1 164.42 181.5 164.42 181.5 181.06 183.4 181.06 183.4 166.32 192.61 166.32 192.61 181.06 194.51 181.06 194.51 166.32 194.51 164.42 192.61 164.42"/><path class="cls-2" d="M47.39,167.07l0.25-.75H47.39v0.75Z"/><polygon class="cls-2" points="56.59 164.42 47.39 164.42 46.09 164.42 45.49 164.42 45.49 181.06 47.39 181.06 47.39 166.32 56.59 166.32 56.59 181.06 58.49 181.06 58.49 166.32 58.49 164.42 56.59 164.42"/><path class="cls-2" d="M192.66,149v7.87h2.27C194.16,154.37,193.41,151.73,192.66,149Z"/><path class="cls-3" d="M200.09,116.91c-3.63-16.25-7.65-31.34-11.31-42.52-6.3-19.23-10-22.73-12.83-23.61a4.52,4.52,0,0,0-1.35-.21,4.58,4.58,0,0,0-3.12,1.27c-1.2,1.11-3.7,3.41-.42,25.35,1.58,10.53,4.19,23.59,7.46,37.4h3.07V124h-0.77c1.75,7,3.65,14.46,5.61,21.71h5.31c-2.26-8.28-4.43-16.88-6.4-24.75-7.8-31.24-10.7-51.81-10.82-60.65a1.52,1.52,0,0,1,2.86-.74,108.71,108.71,0,0,1,6.76,17.08c3.55,10.94,7.44,25.63,11,41.36,3.59,16,6.36,28.67,8.17,38.9h0.53V160c0.08,0.5.17,1,.24,1.49a83.53,83.53,0,0,1,1.38,15.5,1.55,1.55,0,0,1-1.23,1.46,1.58,1.58,0,0,1-.35,0,1.55,1.55,0,0,1-1.39-.86,101.69,101.69,0,0,1-5.43-14h-5.38l0.25,0.78h2.61V172c4.25,11.41,7.14,14.07,10,14.07v0.44l0.06-.44a5.14,5.14,0,0,0,4-2C213.43,177.92,209,156.81,200.09,116.91Z"/><polygon class="cls-2" points="185.81 145.71 168.81 125.49 161.94 131.7 183.13 156.92 183.35 156.92 183.35 145.71 185.81 145.71"/><polygon class="cls-2" points="192.66 153.87 192.66 156.92 195.22 156.92 192.66 153.87"/><rect class="cls-2" x="183.35" y="145.71" width="9.31" height="11.2"/><path class="cls-3" d="M68.66,51.84a4.58,4.58,0,0,0-3.12-1.27,4.52,4.52,0,0,0-1.35.21c-2.81.88-6.52,4.37-12.83,23.61-3.66,11.17-7.68,26.27-11.31,42.52-8.92,39.9-13.34,61-8.46,67.18a5.14,5.14,0,0,0,4,2l0.06,0.44v-0.44c2.78,0,5.63-2.58,9.8-13.65v-8h2.77l0.25-.78H43.13a101.69,101.69,0,0,1-5.43,14,1.55,1.55,0,0,1-1.39.86,1.58,1.58,0,0,1-.35,0A1.55,1.55,0,0,1,34.73,177a83.53,83.53,0,0,1,1.38-15.5L36.2,161v-4h0.68c1.81-10.23,4.59-22.85,8.17-38.9,3.52-15.74,7.41-30.43,11-41.36a108.71,108.71,0,0,1,6.76-17.08,1.52,1.52,0,0,1,2.86.74C65.5,69.15,62.6,89.73,54.8,121c-2,7.86-4.14,16.47-6.4,24.75h5.31c2-7.25,3.86-14.71,5.61-21.71H58.55v-9.4h3.07c3.27-13.81,5.88-26.88,7.46-37.4C72.36,55.25,69.86,52.95,68.66,51.84Z"/><path class="cls-2" d="M47.34,156.92v-7.33c-0.7,2.5-1.4,5-2.11,7.33h2.11Z"/><polygon class="cls-2" points="44.77 156.92 47.34 156.92 47.34 153.87 44.77 156.92"/><polygon class="cls-2" points="71.17 125.51 54.19 145.71 56.65 145.71 56.65 156.92 56.86 156.92 78.04 131.72 71.17 125.51"/><rect class="cls-2" x="47.34" y="145.71" width="9.31" height="11.2"/><polygon class="cls-2" points="158.41 127.47 156.72 125.46 160.63 125.46 158.41 127.47"/><line class="cls-4" x1="243.32" y1="49.18" x2="147.05" y2="49.18"/><line class="cls-4" x1="243.32" y1="167.06" x2="126.87" y2="167.06"/><path class="cls-5" d="M158.25,61.1A3.29,3.29,0,0,0,155,63.84l-11.6,67.76-4.33,25.32,3.27,2.55,3.4-2.55,3.74-21.56,12-70.41A3.29,3.29,0,0,0,158.25,61.1Z"/><path class="cls-5" d="M96.23,131.73L84.61,63.84a3.29,3.29,0,1,0-6.48,1.11l11.81,69,3.93,23,3.4,2.55,3.27-2.55Z"/></svg>