<svg id="Layer_1" data-name="Layer 1" xmlns="http://www.w3.org/2000/svg" viewBox="0 0 243.4 187.5"><title>lower_leg_legnth</title><line x1="227.8" y1="52.4" x2="227.8" y2="163.9" fill="none" stroke="#000" stroke-miterlimit="10" stroke-width="2"/><polygon points="219.6 59 221.1 60.4 227.8 53.1 234.5 60.4 236 59 227.8 50.2 219.6 59"/><polygon points="219.6 157.3 221.1 155.9 227.8 163.1 234.5 155.9 236 157.3 227.8 166.1 219.6 157.3"/><line x1="243.4" y1="187" y2="187" fill="none" stroke="#000" stroke-miterlimit="10" opacity="0.5"/><path d="M29.2,172.5c-1.3-5-1.6-18.7,6.8-56A346.6,346.6,0,0,1,47.3,76.2c5.6-15.4,8.8-17.8,9.5-18.1L57,58.6a34,34,0,0,1,2.6-4.5,4.5,4.5,0,0,0-4.1-.7C53,54.2,49,57.3,42.7,75a349,349,0,0,0-11.4,40.4c-11.9,53.4-6.6,60.2-4.8,62.4a5.8,5.8,0,0,0,3,2.1A34.4,34.4,0,0,1,29.2,172.5Z" fill="none" stroke="#4f9dff" stroke-miterlimit="10"/><rect x="83.8" y="29.9" width="72.3" height="4.96" transform="translate(240 64.8) rotate(180)" fill="none" stroke="#4f9dff" stroke-miterlimit="10"/><rect x="156.2" y="0.5" width="4.7" height="48.77" fill="none" stroke="#4f9dff" stroke-miterlimit="10"/><rect x="79.1" y="0.5" width="4.7" height="48.77" fill="none" stroke="#4f9dff" stroke-miterlimit="10"/><rect x="78.4" y="49.3" width="83.1" height="10.62" fill="none" stroke="#4f9dff" stroke-miterlimit="10"/><rect x="58.5" y="114.6" width="4" height="9.4" fill="none" stroke="#4f9dff" stroke-miterlimit="10"/><rect x="62.5" y="112.9" width="1.5" height="12.53" transform="translate(126.6 238.4) rotate(180)" fill="none" stroke="#4f9dff" stroke-miterlimit="10"/><rect x="175.9" y="112.9" width="1.5" height="12.53" transform="translate(353.4 238.4) rotate(180)" fill="none" stroke="#4f9dff" stroke-miterlimit="10"/><polygon points="145.7 156.9 149.6 156.9 149.6 150 146.9 150 145.7 156.9" fill="none" stroke="#4f9dff" stroke-miterlimit="10"/><polygon points="90.3 150 90.3 156.9 93.9 156.9 92.7 150 90.3 150" fill="none" stroke="#4f9dff" stroke-miterlimit="10"/><path d="M142.2,163.6a5.4,5.4,0,0,1-5.1,3.7H103a5.4,5.4,0,0,1-5.1-3.7H92.1a11,11,0,0,0,10.8,8.8h34.3a11,11,0,0,0,10.8-8.8h-5.7Z" fill="none" stroke="#4f9dff" stroke-miterlimit="10"/><rect x="156.2" y="169.1" width="6.7" height="17.91" rx="2.5" ry="2.5" fill="none" stroke="#4f9dff" stroke-miterlimit="10"/><polygon points="164.2 164.4 155 164.4 153.7 164.4 153.1 164.4 153.1 181.1 155 181.1 155 166.3 164.2 166.3 164.2 181.1 166.1 181.1 166.1 166.3 166.1 164.4 164.2 164.4" fill="none" stroke="#4f9dff" stroke-miterlimit="10"/><line x1="159.6" y1="169.1" x2="159.6" y2="187" fill="none" stroke="#4f9dff" stroke-miterlimit="10"/><rect x="77" y="169.1" width="6.7" height="17.91" rx="2.5" ry="2.5" fill="none" stroke="#4f9dff" stroke-miterlimit="10"/><polygon points="85 164.4 75.8 164.4 74.5 164.4 73.9 164.4 73.9 181.1 75.8 181.1 75.8 166.3 85 166.3 85 181.1 86.9 181.1 86.9 166.3 86.9 164.4 85 164.4" fill="none" stroke="#4f9dff" stroke-miterlimit="10"/><line x1="80.4" y1="169.1" x2="80.4" y2="187" fill="none" stroke="#4f9dff" stroke-miterlimit="10"/><rect x="48.6" y="169.1" width="6.7" height="17.91" rx="2.5" ry="2.5" fill="none" stroke="#4f9dff" stroke-miterlimit="10"/><line x1="52" y1="169.1" x2="52" y2="187" fill="none" stroke="#4f9dff" stroke-miterlimit="10"/><rect x="184.6" y="169.1" width="6.7" height="17.91" rx="2.5" ry="2.5" fill="none" stroke="#4f9dff" stroke-miterlimit="10"/><line x1="188" y1="169.1" x2="188" y2="187" fill="none" stroke="#4f9dff" stroke-miterlimit="10"/><rect x="177.5" y="116.4" width="4" height="5.6" fill="none" stroke="#4f9dff" stroke-miterlimit="10"/><polygon points="156.1 143.1 156.1 148 164 148 164 153.6 171.1 156.9 185.8 156.9 156.1 143.1" fill="none" stroke="#4f9dff" stroke-miterlimit="10"/><polygon points="83.8 143.1 54.2 156.9 68.9 156.9 76 153.6 76 148 83.8 148 83.8 143.1" fill="none" stroke="#4f9dff" stroke-miterlimit="10"/><polygon points="81.6 127.5 83.3 125.5 79.4 125.5 81.6 127.5" fill="none" stroke="#4f9dff" stroke-miterlimit="10"/><polygon points="143.4 131.6 139.1 156.9 142.3 159.5 145.7 156.9 149.7 133.8 143.4 131.6" fill="none" stroke="#4f9dff" stroke-miterlimit="10"/><polygon points="89.9 133.9 93.9 156.9 97.3 159.5 100.5 156.9 96.2 131.7 89.9 133.9" fill="none" stroke="#4f9dff" stroke-miterlimit="10"/><polygon points="155 130.5 127.7 120.9 126 125.5 150.9 134.2 155 130.5" fill="none" stroke="#4f9dff" stroke-miterlimit="10"/><path d="M120,124.4a17.4,17.4,0,0,0-6.1,1.1l-1.7-4.5,1.7,4.5H126l1.7-4.5-1.7,4.5A17.4,17.4,0,0,0,120,124.4Z" fill="none" stroke="#4f9dff" stroke-miterlimit="10"/><polygon points="89.1 134.3 114 125.5 112.2 120.9 85 130.5 89.1 134.3" fill="none" stroke="#4f9dff" stroke-miterlimit="10"/><rect x="177.5" y="114.6" width="4" height="9.4" fill="none" stroke="#4f9dff" stroke-miterlimit="10"/><path d="M86.3,112.9H65.2v12.5h5.9L68,122.7a2.8,2.8,0,1,1,3.5-4.3h0l7.9,7.1h9.1Z" fill="none" stroke="#4f9dff" stroke-miterlimit="10"/><path d="M146.6,112.9H93l2.1,12.5h4.2l12.9-4.5a22.7,22.7,0,0,1,7.7-1.3,23.6,23.6,0,0,1,7.7,1.3l12.9,4.5h3.8Z" fill="none" stroke="#4f9dff" stroke-miterlimit="10"/><path d="M153.3,112.9l-2.1,12.5h9.4l7.9-7.1h0a2.8,2.8,0,1,1,3.5,4.3l-3.1,2.8h5.9V112.9H153.3Z" fill="none" stroke="#4f9dff" stroke-miterlimit="10"/><rect x="39.6" y="113.7" width="12.9" height="8.16" transform="translate(25.5 -7) rotate(12)" fill="none" stroke="#4f9dff" stroke-miterlimit="10"/><polygon points="78.3 66.2 77.2 66.2 67.2 112.9 73.9 112.9 80.8 80.5 78.3 66.2" fill="none" stroke="#4f9dff" stroke-miterlimit="10"/><polygon points="162.8 66.2 161.3 66.2 159 79.5 166.1 112.9 172.8 112.9 162.8 66.2" fill="none" stroke="#4f9dff" stroke-miterlimit="10"/><path d="M78.1,64.9a3.3,3.3,0,0,1,1.4-3.3H78v4.5h0.4Z" fill="none" stroke="#4f9dff" stroke-miterlimit="10"/><path d="M84.6,63.8L85,66.2h69.6l0.4-2.3a3.3,3.3,0,0,1,1.4-2.2H83.2A3.3,3.3,0,0,1,84.6,63.8Z" fill="none" stroke="#4f9dff" stroke-miterlimit="10"/><polygon points="78.3 66.2 78 66.2 78 68 78.6 68 78.3 66.2" fill="none" stroke="#4f9dff" stroke-miterlimit="10"/><polygon points="85.3 68 154.3 68 154.6 66.2 85 66.2 85.3 68" fill="none" stroke="#4f9dff" stroke-miterlimit="10"/><path d="M95.4,126.9l-10.8-63a3.3,3.3,0,1,0-6.5,1.1l11,64.1Z" fill="none" stroke="#4f9dff" stroke-miterlimit="10"/><path d="M158.2,61.1a3.3,3.3,0,0,0-3.2,2.7l-10.8,62.9,6.3,2.2,11-64A3.3,3.3,0,0,0,158.2,61.1Z" fill="none" stroke="#4f9dff" stroke-miterlimit="10"/><path d="M78,59.9v1.8h1.6a3.2,3.2,0,0,1,3.7,0h73.2a3.2,3.2,0,0,1,3.7,0h2V59.9H78Z" fill="none" stroke="#4f9dff" stroke-miterlimit="10"/><rect x="58.5" y="116.4" width="4" height="5.6" fill="none" stroke="#4f9dff" stroke-miterlimit="10"/><path d="M210.9,172.5c1.3-5,1.6-18.7-6.8-56a346.6,346.6,0,0,0-11.3-40.2c-5.6-15.4-8.8-17.8-9.5-18.1l-0.2.5a34,34,0,0,0-2.6-4.5,4.5,4.5,0,0,1,4.1-.7c2.5,0.8,6.5,3.8,12.8,21.5a349,349,0,0,1,11.4,40.4c11.9,53.4,6.6,60.2,4.8,62.4a5.8,5.8,0,0,1-3,2.1A34.4,34.4,0,0,0,210.9,172.5Z" fill="none" stroke="#4f9dff" stroke-miterlimit="10"/><rect x="187.7" y="113.7" width="12.9" height="8.16" transform="translate(408.6 192.7) rotate(168)" fill="none" stroke="#4f9dff" stroke-miterlimit="10"/><path d="M170.4,117.5a2.8,2.8,0,0,0-2,.8h0l-18.8,17.1v21.5h5.5V148h1V136.9l15.8-14.3A2.8,2.8,0,0,0,170.4,117.5Z" fill="none" stroke="#4f9dff" stroke-miterlimit="10"/><rect x="155.1" y="148" width="8.9" height="8.88" fill="none" stroke="#4f9dff" stroke-miterlimit="10"/><path d="M71.5,118.3h0a2.8,2.8,0,1,0-3.5,4.3l15.8,14.3V148h1.1v8.9h5.4V135.4Z" fill="none" stroke="#4f9dff" stroke-miterlimit="10"/><rect x="76" y="148" width="8.9" height="8.88" fill="none" stroke="#4f9dff" stroke-miterlimit="10"/><path d="M187.2,121l1.6,6.5c3,12.1,5.5,21.8,7.7,29.4h5c-2.8-9.2-5.5-20.5-8-30.6l-1-4-3.8.8-1.7-8,3.5-.7A360.1,360.1,0,0,1,183.6,78l-0.3-2.3a118.1,118.1,0,0,0-5.5-14.3c-0.4,5.5.5,12.5,0.9,16.3A376.3,376.3,0,0,0,187.2,121Z" fill="none" stroke="#4f9dff" stroke-miterlimit="10"/><path d="M204.1,165l-0.5-1.4h-5c2.3,6.9,4.2,11.3,6.2,13.8a1.1,1.1,0,0,0,.1-0.5A68.6,68.6,0,0,0,204.1,165Z" fill="none" stroke="#4f9dff" stroke-miterlimit="10"/><path d="M43.6,156.9c2.2-7.6,4.7-17.3,7.7-29.4L53,121a376.3,376.3,0,0,0,8.4-43.2c0.5-3.8,1.3-10.8.9-16.3a118.1,118.1,0,0,0-5.5,14.3L56.5,78a360.1,360.1,0,0,1-6.9,36.4l3.5,0.7-1.7,8-3.8-.8-1,4c-2.5,10.1-5.3,21.4-8,30.6h5Z" fill="none" stroke="#4f9dff" stroke-miterlimit="10"/><path d="M36.5,163.6L36,165a68.6,68.6,0,0,0-.9,12,1.1,1.1,0,0,0,.1.5c2-2.5,4-7,6.2-13.8h-5Z" fill="none" stroke="#4f9dff" stroke-miterlimit="10"/><polygon points="145.7 156.9 142.3 159.5 139.1 156.9 100.5 156.9 97.3 159.5 93.9 156.9 36.2 156.9 36.2 163.6 203.8 163.6 203.8 156.9 145.7 156.9" fill="none" stroke="#4f9dff" stroke-miterlimit="10"/><polygon points="192.6 164.4 183.4 164.4 182.1 164.4 181.5 164.4 181.5 181.1 183.4 181.1 183.4 166.3 192.6 166.3 192.6 181.1 194.5 181.1 194.5 166.3 194.5 164.4 192.6 164.4" fill="none" stroke="#4f9dff" stroke-miterlimit="10"/><path d="M47.4,167.1l0.2-.7H47.4v0.7Z" fill="none" stroke="#4f9dff" stroke-miterlimit="10"/><polygon points="56.6 164.4 47.4 164.4 46.1 164.4 45.5 164.4 45.5 181.1 47.4 181.1 47.4 166.3 56.6 166.3 56.6 181.1 58.5 181.1 58.5 166.3 58.5 164.4 56.6 164.4" fill="none" stroke="#4f9dff" stroke-miterlimit="10"/><path d="M192.7,149v7.9h2.3Z" fill="none" stroke="#4f9dff" stroke-miterlimit="10"/><path d="M200.1,116.9c-3.6-16.2-7.6-31.3-11.3-42.5-6.3-19.2-10-22.7-12.8-23.6l-1.4-.2a4.6,4.6,0,0,0-3.1,1.3c-1.2,1.1-3.7,3.4-.4,25.4,1.6,10.5,4.2,23.6,7.5,37.4h3.1V124h-0.8c1.8,7,3.6,14.5,5.6,21.7h5.3c-2.3-8.3-4.4-16.9-6.4-24.7-7.8-31.2-10.7-51.8-10.8-60.6a1.5,1.5,0,0,1,2.9-.7,108.7,108.7,0,0,1,6.8,17.1c3.5,10.9,7.4,25.6,11,41.4s6.4,28.7,8.2,38.9h0.5V160l0.2,1.5a83.5,83.5,0,0,1,1.4,15.5,1.5,1.5,0,0,1-1.2,1.5h-0.3a1.6,1.6,0,0,1-1.4-.9,101.7,101.7,0,0,1-5.4-14h-5.4l0.3,0.8h2.6V172c4.3,11.4,7.1,14.1,10,14.1v0a5.1,5.1,0,0,0,4-2C213.4,177.9,209,156.8,200.1,116.9Z" fill="#4f9dff"/><polygon points="185.8 145.7 168.8 125.5 161.9 131.7 183.1 156.9 183.3 156.9 183.3 145.7 185.8 145.7" fill="none" stroke="#4f9dff" stroke-miterlimit="10"/><polygon points="192.7 153.9 192.7 156.9 195.2 156.9 192.7 153.9" fill="none" stroke="#4f9dff" stroke-miterlimit="10"/><rect x="183.3" y="145.7" width="9.3" height="11.2" fill="none" stroke="#4f9dff" stroke-miterlimit="10"/><path d="M68.7,51.8a4.6,4.6,0,0,0-3.1-1.3l-1.4.2c-2.8.9-6.5,4.4-12.8,23.6-3.7,11.2-7.7,26.3-11.3,42.5-8.9,39.9-13.3,61-8.5,67.2a5.1,5.1,0,0,0,4,2v0c2.8,0,5.6-2.6,9.8-13.7v-8h2.8l0.3-.8H43.1a101.7,101.7,0,0,1-5.4,14,1.6,1.6,0,0,1-1.4.9H36a1.5,1.5,0,0,1-1.2-1.5,83.5,83.5,0,0,1,1.4-15.5v-4.6h0.7c1.8-10.2,4.6-22.8,8.2-38.9s7.4-30.4,11-41.4a108.7,108.7,0,0,1,6.8-17.1,1.5,1.5,0,0,1,2.9.7c-0.1,8.8-3,29.4-10.8,60.6-2,7.9-4.1,16.5-6.4,24.7h5.3c2-7.2,3.9-14.7,5.6-21.7H58.5v-9.4h3.1c3.3-13.8,5.9-26.9,7.5-37.4C72.4,55.2,69.9,52.9,68.7,51.8Z" fill="#4f9dff"/><path d="M47.3,156.9v-7.3l-2.1,7.3h2.1Z" fill="none" stroke="#4f9dff" stroke-miterlimit="10"/><polygon points="44.8 156.9 47.3 156.9 47.3 153.9 44.8 156.9" fill="none" stroke="#4f9dff" stroke-miterlimit="10"/><polygon points="71.2 125.5 54.2 145.7 56.6 145.7 56.6 156.9 56.9 156.9 78 131.7 71.2 125.5" fill="none" stroke="#4f9dff" stroke-miterlimit="10"/><rect x="47.3" y="145.7" width="9.3" height="11.2" fill="none" stroke="#4f9dff" stroke-miterlimit="10"/><polygon points="158.4 127.5 156.7 125.5 160.6 125.5 158.4 127.5" fill="none" stroke="#4f9dff" stroke-miterlimit="10"/><line x1="243.3" y1="49.2" x2="147.1" y2="49.2" fill="none" stroke="#000" stroke-miterlimit="10" opacity="0.5"/><line x1="243.3" y1="167.1" x2="126.9" y2="167.1" fill="none" stroke="#000" stroke-miterlimit="10" opacity="0.5"/></svg>