<svg id="Layer_1" data-name="Layer 1" xmlns="http://www.w3.org/2000/svg" viewBox="0 0 244.4 208.2"><title>seat_depth</title><line x1="150.5" y1="23.9" x2="64.7" y2="25.2" fill="none" stroke="#000" stroke-miterlimit="10" stroke-width="2"/><polygon points="143.8 15.9 142.4 17.3 149.7 23.9 142.6 30.8 144 32.2 152.7 23.9 143.8 15.9"/><polygon points="71.2 16.9 72.6 18.4 65.5 25.2 72.8 31.8 71.5 33.3 62.6 25.2 71.2 16.9"/><rect x="62.7" y="69.3" width="91" height="11.66" fill="#fff" stroke="#4f9dff" stroke-miterlimit="10"/><polygon points="61.6 74.3 56 74.3 55.4 21.4 61 21.2 61.6 74.3" fill="#fff" stroke="#4f9dff" stroke-miterlimit="10"/><rect x="62.7" y="80.9" width="109.6" height="6.76" fill="#fff" stroke="#4f9dff" stroke-miterlimit="10"/><polygon points="150 155 143.2 152.8 143.2 152.8 96 137 96 144 124.4 153.5 124.4 153.5 125.6 153.9 140.3 158.9 140.3 158.8 147.7 161.3 150 155" fill="#fff" stroke="#4f9dff" stroke-miterlimit="10"/><rect x="88.9" y="80.3" width="12.8" height="7.98" fill="#fff" stroke="#4f9dff" stroke-miterlimit="10"/><rect x="114.8" y="80.3" width="12.8" height="7.98" fill="#fff" stroke="#4f9dff" stroke-miterlimit="10"/><rect x="140.9" y="80.3" width="12.8" height="7.98" fill="#fff" stroke="#4f9dff" stroke-miterlimit="10"/><rect x="90.6" y="88.3" width="7.1" height="47.91" fill="#fff" stroke="#4f9dff" stroke-miterlimit="10"/><polygon points="93.3 145.4 29.3 179.7 23.7 179.7 23.7 171.4 93.3 134.1 93.3 145.4" fill="#fff" stroke="#4f9dff" stroke-miterlimit="10"/><path d="M96,144V137l44.7,14.9a2,2,0,0,1,1.2,2.6L141,157a2,2,0,0,1-2.5,1.2Z" fill="#fff" stroke="#4f9dff" stroke-miterlimit="10"/><path d="M195.2,97.5c-2.8-10.3-11.8-16.5-22.9-16.6v6.7a17.6,17.6,0,0,1,16.6,12Z" fill="#fff" stroke="#4f9dff" stroke-miterlimit="10"/><rect x="162.3" y="151.1" width="9.2" height="5.3" transform="translate(13.2 320.6) rotate(-90)" fill="#fff" stroke="#4f9dff" stroke-miterlimit="10"/><rect x="161" y="160.7" width="11.9" height="7.15" transform="translate(2.7 331.2) rotate(-90)" fill="#fff" stroke="#4f9dff" stroke-miterlimit="10"/><rect x="163.4" y="171.1" width="7" height="5.3" transform="translate(-6.8 340.6) rotate(-90)" fill="#fff" stroke="#4f9dff" stroke-miterlimit="10"/><rect x="166.9" y="187.3" width="20.8" height="5.3" fill="#fff" stroke="#4f9dff" stroke-miterlimit="10"/><rect x="166.9" y="187.3" width="20.8" height="5.3" fill="#fff" stroke="#4f9dff" stroke-miterlimit="10"/><polygon points="147.7 161.3 150 155 217.1 177.3 195.3 177.1 147.7 161.3" fill="#fff" stroke="#4f9dff" stroke-miterlimit="10"/><path d="M55.8,50.4H45.6a2.4,2.4,0,0,0,0,4.8H55.8A2.4,2.4,0,0,0,55.8,50.4Z" fill="#fff" stroke="#4f9dff" stroke-miterlimit="10"/><circle cx="22" cy="196.2" r="9.7" fill="#fff" stroke="#4f9dff" stroke-miterlimit="10"/><circle cx="22" cy="196.2" r="6.8" fill="#fff" stroke="#4f9dff" stroke-miterlimit="10"/><path d="M223.1,177.2H204.5v6.6h18.6c1.1,0,1.9-1.5,1.9-3.3S224.2,177.2,223.1,177.2Z" fill="#fff" stroke="#4f9dff" stroke-miterlimit="10"/><path d="M213.2,177.2h-8.7v6.6h8.7c1.1,0,1.9-1.5,1.9-3.3S214.3,177.2,213.2,177.2Z" fill="#fff" stroke="#4f9dff" stroke-miterlimit="10"/><polygon points="24.6 198.6 17.8 198.6 24.3 181.9 31.1 181.9 24.6 198.6" fill="#fff" stroke="#4f9dff" stroke-miterlimit="10"/><polygon points="30 184.5 23.2 184.5 24.3 181.9 31.1 181.9 30 184.5" fill="#fff" stroke="#4f9dff" stroke-miterlimit="10"/><circle cx="22" cy="196.2" r="1" fill="#fff" stroke="#4f9dff" stroke-miterlimit="10"/><path d="M32.4,168.6v-2.9H23v14.7h9.5V179a2,2,0,0,0-2.2-1.9,4.3,4.3,0,0,0-2.8,1.2v-4.8A5,5,0,0,0,32.4,168.6Z" fill="#fff" stroke="#4f9dff" stroke-miterlimit="10"/><path d="M45.6,55.2a2.4,2.4,0,0,1,0-4.8H40.2a2.4,2.4,0,0,0,0,4.8h5.5Z" fill="#fff" stroke="#4f9dff" stroke-miterlimit="10"/><path d="M62.7,77a16.8,16.8,0,0,1-1.1-2.7H56.2a13,13,0,0,0,6.5,10.2h0V77Z" fill="#fff" stroke="#4f9dff" stroke-miterlimit="10"/><circle cx="94.2" cy="139.8" r="6.2" fill="#fff" stroke="#4f9dff" stroke-miterlimit="10"/><path d="M204.5,177.2H162.9c-1.1,0-1.9,1.5-1.9,3.3s0.9,3.3,1.9,3.3h41.7c1.1,0,1.9-1.5,1.9-3.3S205.6,177.2,204.5,177.2Z" fill="#fff" stroke="#4f9dff" stroke-miterlimit="10"/><polygon points="222 179.4 214.2 177.3 188.8 99.6 195.2 97.5 222 179.4" fill="#fff" stroke="#4f9dff" stroke-miterlimit="10"/><path d="M164.3,183.8v7a2.9,2.9,0,0,0,5.3,0v-7h-5.3Z" fill="#fff" stroke="#4f9dff" stroke-miterlimit="10"/><path d="M76.2,84.8H75.5V80.3H62.7v8h9.9l-23.8,70a9,9,0,0,0,8.5-6.1L79.5,86.8V86.6C79.6,86,79.2,84.8,76.2,84.8Z" fill="#fff" stroke="#4f9dff" stroke-miterlimit="10"/><line x1="62.7" y1="84.5" x2="75.5" y2="84.5" fill="#fff" stroke="#4f9dff" stroke-miterlimit="10"/><line x1="88.9" y1="84.5" x2="101.6" y2="84.5" fill="#fff" stroke="#4f9dff" stroke-miterlimit="10"/><line x1="114.8" y1="84.5" x2="127.6" y2="84.5" fill="#fff" stroke="#4f9dff" stroke-miterlimit="10"/><line x1="140.9" y1="84.5" x2="153.7" y2="84.5" fill="#fff" stroke="#4f9dff" stroke-miterlimit="10"/><path d="M187.5,177.2H177.3l-7.2-7a3.6,3.6,0,0,1-.3-4.8h0a3.6,3.6,0,0,1,5.3-.3Z" fill="#fff" stroke="#4f9dff" stroke-miterlimit="10"/><path d="M196.9,188.4h1.3v-1.2H187.7v5.3H189A9.6,9.6,0,0,1,196.9,188.4Z" fill="#fff" stroke="#4f9dff" stroke-miterlimit="10"/><circle cx="196.9" cy="198.1" r="9.7" fill="#fff" stroke="#4f9dff" stroke-miterlimit="10"/><circle cx="196.9" cy="198.1" r="6.8" fill="#fff" stroke="#4f9dff" stroke-miterlimit="10"/><polygon points="199.6 200.6 192.8 200.6 199.2 183.9 206 183.9 199.6 200.6" fill="#fff" stroke="#4f9dff" stroke-miterlimit="10"/><polygon points="205 186.4 198.2 186.4 199.2 183.9 206 183.9 205 186.4" fill="#fff" stroke="#4f9dff" stroke-miterlimit="10"/><circle cx="196.9" cy="198.1" r="1" fill="#fff" stroke="#4f9dff" stroke-miterlimit="10"/><polygon points="98.3 138.9 96.2 142.5 92.1 142.5 90 138.9 92.1 135.3 96.2 135.3 98.3 138.9" fill="#fff" stroke="#4f9dff" stroke-miterlimit="10"/><circle cx="94.2" cy="138.9" r="2.3" fill="#fff" stroke="#4f9dff" stroke-miterlimit="10"/><rect x="92.1" y="142.5" width="4.3" height="1.92" fill="#fff" stroke="#4f9dff" stroke-miterlimit="10"/><rect x="199.7" y="167.6" width="9.2" height="9.97" transform="translate(31.7 376.9) rotate(-90)" fill="#fff" stroke="#4f9dff" stroke-miterlimit="10"/><line x1="153.7" y1="80.9" x2="153.7" fill="none" stroke="#000" stroke-miterlimit="10" opacity="0.5"/><line x1="61.6" y1="80.9" x2="61.6" fill="none" stroke="#000" stroke-miterlimit="10" opacity="0.5"/><line x1="244.4" y1="207.7" y2="207.7" fill="none" stroke="#000" stroke-miterlimit="10" opacity="0.5"/></svg>