<svg id="Layer_1" data-name="Layer 1" xmlns="http://www.w3.org/2000/svg" viewBox="0 0 243.4 211.2"><title>seat_width</title><line x1="82.7" y1="16.1" x2="160.8" y2="16.1" fill="none" stroke="#000" stroke-miterlimit="10" stroke-width="0.75"/><polygon points="85.2 19.2 85.7 18.7 83 16.1 85.7 13.6 85.2 13.1 81.9 16.1 85.2 19.2"/><polygon points="158.3 19.2 157.8 18.7 160.5 16.1 157.8 13.6 158.3 13.1 161.6 16.1 158.3 19.2"/><path d="M30.9,196.1c-1.3-5-1.6-18.7,6.8-56A346.6,346.6,0,0,1,49,99.9c5.6-15.4,8.8-17.8,9.5-18.1l0.2,0.5a34,34,0,0,1,2.6-4.5,4.5,4.5,0,0,0-4.1-.7c-2.5.8-6.5,3.8-12.8,21.5A349,349,0,0,0,33,139.1c-11.9,53.4-6.6,60.2-4.8,62.4a5.8,5.8,0,0,0,3,2.1A34.4,34.4,0,0,1,30.9,196.1Z" fill="none" stroke="#4f9dff" stroke-miterlimit="10"/><rect x="85.5" y="53.6" width="72.3" height="4.96" transform="translate(243.3 112.1) rotate(180)" fill="none" stroke="#4f9dff" stroke-miterlimit="10"/><rect x="157.8" y="24.2" width="4.7" height="48.77" fill="none" stroke="#4f9dff" stroke-miterlimit="10"/><rect x="80.8" y="24.2" width="4.7" height="48.77" fill="none" stroke="#4f9dff" stroke-miterlimit="10"/><rect x="80.1" y="73" width="83.1" height="10.62" fill="none" stroke="#4f9dff" stroke-miterlimit="10"/><rect x="60.2" y="138.3" width="4" height="9.4" fill="none" stroke="#4f9dff" stroke-miterlimit="10"/><rect x="64.2" y="136.6" width="1.5" height="12.53" transform="translate(129.9 285.8) rotate(180)" fill="none" stroke="#4f9dff" stroke-miterlimit="10"/><rect x="177.6" y="136.6" width="1.5" height="12.53" transform="translate(356.7 285.8) rotate(180)" fill="none" stroke="#4f9dff" stroke-miterlimit="10"/><polygon points="147.4 180.6 151.2 180.6 151.2 173.7 148.6 173.7 147.4 180.6" fill="none" stroke="#4f9dff" stroke-miterlimit="10"/><polygon points="92 173.7 92 180.6 95.5 180.6 94.3 173.7 92 173.7" fill="none" stroke="#4f9dff" stroke-miterlimit="10"/><path d="M143.8,187.3a5.4,5.4,0,0,1-5.1,3.7h-34a5.4,5.4,0,0,1-5.1-3.7H93.8a11,11,0,0,0,10.8,8.8h34.3a11,11,0,0,0,10.8-8.8h-5.7Z" fill="none" stroke="#4f9dff" stroke-miterlimit="10"/><rect x="157.9" y="192.8" width="6.7" height="17.91" rx="2.5" ry="2.5" fill="none" stroke="#4f9dff" stroke-miterlimit="10"/><polygon points="165.8 188.1 156.6 188.1 155.3 188.1 154.7 188.1 154.7 204.7 156.6 204.7 156.6 190 165.8 190 165.8 204.7 167.8 204.7 167.8 190 167.8 188.1 165.8 188.1" fill="none" stroke="#4f9dff" stroke-miterlimit="10"/><line x1="161.2" y1="192.8" x2="161.2" y2="210.7" fill="none" stroke="#4f9dff" stroke-miterlimit="10"/><rect x="78.7" y="192.8" width="6.7" height="17.91" rx="2.5" ry="2.5" fill="none" stroke="#4f9dff" stroke-miterlimit="10"/><polygon points="86.6 188.1 77.4 188.1 76.1 188.1 75.5 188.1 75.5 204.7 77.4 204.7 77.4 190 86.6 190 86.6 204.7 88.5 204.7 88.5 190 88.5 188.1 86.6 188.1" fill="none" stroke="#4f9dff" stroke-miterlimit="10"/><line x1="82" y1="192.8" x2="82" y2="210.7" fill="none" stroke="#4f9dff" stroke-miterlimit="10"/><rect x="50.3" y="192.8" width="6.7" height="17.91" rx="2.5" ry="2.5" fill="none" stroke="#4f9dff" stroke-miterlimit="10"/><line x1="53.6" y1="192.8" x2="53.6" y2="210.7" fill="none" stroke="#4f9dff" stroke-miterlimit="10"/><rect x="186.3" y="192.8" width="6.7" height="17.91" rx="2.5" ry="2.5" fill="none" stroke="#4f9dff" stroke-miterlimit="10"/><line x1="189.7" y1="192.8" x2="189.7" y2="210.7" fill="none" stroke="#4f9dff" stroke-miterlimit="10"/><rect x="179.1" y="140.1" width="4" height="5.6" fill="none" stroke="#4f9dff" stroke-miterlimit="10"/><polygon points="157.8 166.8 157.8 171.7 165.6 171.7 165.6 177.3 172.8 180.6 187.5 180.6 157.8 166.8" fill="none" stroke="#4f9dff" stroke-miterlimit="10"/><polygon points="85.5 166.8 55.8 180.6 70.5 180.6 77.7 177.3 77.7 171.7 85.5 171.7 85.5 166.8" fill="none" stroke="#4f9dff" stroke-miterlimit="10"/><polygon points="83.3 151.2 84.9 149.2 81 149.2 83.3 151.2" fill="none" stroke="#4f9dff" stroke-miterlimit="10"/><polygon points="145.1 155.3 140.7 180.6 144 183.2 147.4 180.6 151.3 157.5 145.1 155.3" fill="none" stroke="#4f9dff" stroke-miterlimit="10"/><polygon points="91.6 157.6 95.5 180.6 98.9 183.2 102.2 180.6 97.9 155.4 91.6 157.6" fill="none" stroke="#4f9dff" stroke-miterlimit="10"/><polygon points="156.6 154.2 129.4 144.6 127.7 149.2 152.5 157.9 156.6 154.2" fill="none" stroke="#4f9dff" stroke-miterlimit="10"/><path d="M121.6,148a17.4,17.4,0,0,0-6.1,1.1l-1.7-4.5,1.7,4.5h12.1l1.7-4.5-1.7,4.5A17.4,17.4,0,0,0,121.6,148Z" fill="none" stroke="#4f9dff" stroke-miterlimit="10"/><polygon points="90.7 157.9 115.6 149.2 113.9 144.6 86.6 154.2 90.7 157.9" fill="none" stroke="#4f9dff" stroke-miterlimit="10"/><rect x="179.1" y="138.3" width="4" height="9.4" fill="none" stroke="#4f9dff" stroke-miterlimit="10"/><path d="M88,136.6H66.9v12.5h5.9l-3.1-2.8a2.8,2.8,0,1,1,3.5-4.3h0l7.9,7.1h9.1Z" fill="none" stroke="#4f9dff" stroke-miterlimit="10"/><path d="M148.3,136.6H94.7l2.1,12.5H101l12.9-4.5a22.7,22.7,0,0,1,7.7-1.3,23.6,23.6,0,0,1,7.7,1.3l12.9,4.5h3.8Z" fill="none" stroke="#4f9dff" stroke-miterlimit="10"/><path d="M154.9,136.6l-2.1,12.5h9.4l7.9-7.1h0a2.8,2.8,0,1,1,3.5,4.3l-3.1,2.8h5.9V136.6H154.9Z" fill="none" stroke="#4f9dff" stroke-miterlimit="10"/><rect x="41.2" y="137.4" width="12.9" height="8.16" transform="translate(30.5 -6.8) rotate(12)" fill="none" stroke="#4f9dff" stroke-miterlimit="10"/><polygon points="80 89.9 78.8 89.9 68.9 136.6 75.5 136.6 82.4 104.2 80 89.9" fill="none" stroke="#4f9dff" stroke-miterlimit="10"/><polygon points="164.5 89.9 162.9 89.9 160.6 103.2 167.8 136.6 174.4 136.6 164.5 89.9" fill="none" stroke="#4f9dff" stroke-miterlimit="10"/><path d="M79.8,88.6a3.3,3.3,0,0,1,1.4-3.3H79.6v4.5H80Z" fill="none" stroke="#4f9dff" stroke-miterlimit="10"/><path d="M86.3,87.5l0.4,2.3h69.6l0.4-2.3a3.3,3.3,0,0,1,1.4-2.2H84.8A3.3,3.3,0,0,1,86.3,87.5Z" fill="none" stroke="#4f9dff" stroke-miterlimit="10"/><polygon points="80 89.9 79.6 89.9 79.6 91.6 80.3 91.6 80 89.9" fill="none" stroke="#4f9dff" stroke-miterlimit="10"/><polygon points="87 91.6 155.9 91.6 156.3 89.9 86.7 89.9 87 91.6" fill="#4f9dff"/><path d="M97,150.6l-10.8-63a3.3,3.3,0,1,0-6.5,1.1l11,64.1Z" fill="none" stroke="#4f9dff" stroke-miterlimit="10"/><path d="M159.9,84.8a3.3,3.3,0,0,0-3.2,2.7l-10.8,62.9,6.3,2.2,11-64A3.3,3.3,0,0,0,159.9,84.8Z" fill="none" stroke="#4f9dff" stroke-miterlimit="10"/><path d="M79.6,83.6v1.8h1.6a3.2,3.2,0,0,1,3.7,0h73.2a3.2,3.2,0,0,1,3.7,0h2V83.6H79.6Z" fill="#4f9dff"/><rect x="60.2" y="140.1" width="4" height="5.6" fill="none" stroke="#4f9dff" stroke-miterlimit="10"/><path d="M212.6,196.1c1.3-5,1.6-18.7-6.8-56a346.6,346.6,0,0,0-11.3-40.2c-5.6-15.4-8.8-17.8-9.5-18.1l-0.2.5a34,34,0,0,0-2.6-4.5,4.5,4.5,0,0,1,4.1-.7c2.5,0.8,6.5,3.8,12.8,21.5a349,349,0,0,1,11.4,40.4c11.9,53.4,6.6,60.2,4.8,62.4a5.8,5.8,0,0,1-3,2.1A34.4,34.4,0,0,0,212.6,196.1Z" fill="none" stroke="#4f9dff" stroke-miterlimit="10"/><rect x="189.4" y="137.4" width="12.9" height="8.16" transform="translate(416.8 239.2) rotate(168)" fill="none" stroke="#4f9dff" stroke-miterlimit="10"/><path d="M172.1,141.2a2.8,2.8,0,0,0-2,.8h0l-18.8,17.1v21.5h5.5v-8.9h1V160.6l15.8-14.3A2.8,2.8,0,0,0,172.1,141.2Z" fill="none" stroke="#4f9dff" stroke-miterlimit="10"/><rect x="156.7" y="171.7" width="8.9" height="8.88" fill="none" stroke="#4f9dff" stroke-miterlimit="10"/><path d="M73.2,142h0a2.8,2.8,0,1,0-3.5,4.3l15.8,14.3v11.1h1.1v8.9H92V159.1Z" fill="none" stroke="#4f9dff" stroke-miterlimit="10"/><rect x="77.7" y="171.7" width="8.9" height="8.88" fill="none" stroke="#4f9dff" stroke-miterlimit="10"/><path d="M188.8,144.7l1.6,6.5c3,12.1,5.5,21.8,7.7,29.4h5c-2.8-9.2-5.5-20.5-8-30.6l-1-4-3.8.8-1.7-8,3.5-.7a360.1,360.1,0,0,1-6.9-36.4L185,99.4a118.1,118.1,0,0,0-5.5-14.3c-0.4,5.5.5,12.5,0.9,16.3A376.3,376.3,0,0,0,188.8,144.7Z" fill="none" stroke="#4f9dff" stroke-miterlimit="10"/><path d="M205.8,188.7l-0.5-1.4h-5c2.3,6.9,4.2,11.3,6.2,13.8a1.1,1.1,0,0,0,.1-0.5A68.6,68.6,0,0,0,205.8,188.7Z" fill="none" stroke="#4f9dff" stroke-miterlimit="10"/><path d="M45.3,180.6c2.2-7.6,4.7-17.3,7.7-29.4l1.6-6.5A376.3,376.3,0,0,0,63,101.5c0.5-3.8,1.3-10.8.9-16.3a118.1,118.1,0,0,0-5.5,14.3l-0.3,2.3a360.1,360.1,0,0,1-6.9,36.4l3.5,0.7-1.7,8-3.8-.8-1,4c-2.5,10.1-5.3,21.4-8,30.6h5Z" fill="none" stroke="#4f9dff" stroke-miterlimit="10"/><path d="M38.2,187.3l-0.5,1.4a68.6,68.6,0,0,0-.9,12,1.1,1.1,0,0,0,.1.5c2-2.5,4-7,6.2-13.8h-5Z" fill="none" stroke="#4f9dff" stroke-miterlimit="10"/><polygon points="147.4 180.6 144 183.2 140.7 180.6 102.2 180.6 98.9 183.2 95.5 180.6 37.8 180.6 37.8 187.3 205.4 187.3 205.4 180.6 147.4 180.6" fill="none" stroke="#4f9dff" stroke-miterlimit="10"/><polygon points="194.3 188.1 185 188.1 183.7 188.1 183.1 188.1 183.1 204.7 185 204.7 185 190 194.3 190 194.3 204.7 196.2 204.7 196.2 190 196.2 188.1 194.3 188.1" fill="none" stroke="#4f9dff" stroke-miterlimit="10"/><path d="M49,190.8l0.2-.7H49v0.7Z" fill="none" stroke="#4f9dff" stroke-miterlimit="10"/><polygon points="58.2 188.1 49 188.1 47.7 188.1 47.1 188.1 47.1 204.7 49 204.7 49 190 58.2 190 58.2 204.7 60.1 204.7 60.1 190 60.1 188.1 58.2 188.1" fill="none" stroke="#4f9dff" stroke-miterlimit="10"/><path d="M194.3,172.7v7.9h2.3Z" fill="none" stroke="#4f9dff" stroke-miterlimit="10"/><path d="M201.7,140.6c-3.6-16.2-7.6-31.3-11.3-42.5-6.3-19.2-10-22.7-12.8-23.6l-1.4-.2a4.6,4.6,0,0,0-3.1,1.3c-1.2,1.1-3.7,3.4-.4,25.4,1.6,10.5,4.2,23.6,7.5,37.4h3.1v9.4h-0.8c1.8,7,3.6,14.5,5.6,21.7h5.3c-2.3-8.3-4.4-16.9-6.4-24.7-7.8-31.2-10.7-51.8-10.8-60.6a1.5,1.5,0,0,1,2.9-.7,108.7,108.7,0,0,1,6.8,17.1c3.5,10.9,7.4,25.6,11,41.4s6.4,28.7,8.2,38.9h0.5v3.1l0.2,1.5a83.5,83.5,0,0,1,1.4,15.5,1.5,1.5,0,0,1-1.2,1.5h-0.3a1.6,1.6,0,0,1-1.4-.9,101.7,101.7,0,0,1-5.4-14h-5.4l0.3,0.8h2.6v7.6c4.3,11.4,7.1,14.1,10,14.1v0a5.1,5.1,0,0,0,4-2C215.1,201.6,210.7,180.5,201.7,140.6Z" fill="#4f9dff"/><polygon points="187.5 169.4 170.5 149.2 163.6 155.4 184.8 180.6 185 180.6 185 169.4 187.5 169.4" fill="none" stroke="#4f9dff" stroke-miterlimit="10"/><polygon points="194.3 177.6 194.3 180.6 196.9 180.6 194.3 177.6" fill="none" stroke="#4f9dff" stroke-miterlimit="10"/><rect x="185" y="169.4" width="9.3" height="11.2" fill="none" stroke="#4f9dff" stroke-miterlimit="10"/><path d="M70.3,75.5a4.6,4.6,0,0,0-3.1-1.3l-1.4.2c-2.8.9-6.5,4.4-12.8,23.6-3.7,11.2-7.7,26.3-11.3,42.5-8.9,39.9-13.3,61-8.5,67.2a5.1,5.1,0,0,0,4,2v0c2.8,0,5.6-2.6,9.8-13.7v-8h2.8l0.3-.8H44.8a101.7,101.7,0,0,1-5.4,14,1.6,1.6,0,0,1-1.4.9H37.6a1.5,1.5,0,0,1-1.2-1.5,83.5,83.5,0,0,1,1.4-15.5v-4.6h0.7c1.8-10.2,4.6-22.8,8.2-38.9s7.4-30.4,11-41.4a108.7,108.7,0,0,1,6.8-17.1,1.5,1.5,0,0,1,2.9.7c-0.1,8.8-3,29.4-10.8,60.6-2,7.9-4.1,16.5-6.4,24.7h5.3c2-7.2,3.9-14.7,5.6-21.7H60.2v-9.4h3.1c3.3-13.8,5.9-26.9,7.5-37.4C74,78.9,71.5,76.6,70.3,75.5Z" fill="#4f9dff"/><path d="M49,180.6v-7.3l-2.1,7.3H49Z" fill="none" stroke="#4f9dff" stroke-miterlimit="10"/><polygon points="46.4 180.6 49 180.6 49 177.6 46.4 180.6" fill="none" stroke="#4f9dff" stroke-miterlimit="10"/><polygon points="72.8 149.2 55.8 169.4 58.3 169.4 58.3 180.6 58.5 180.6 79.7 155.4 72.8 149.2" fill="none" stroke="#4f9dff" stroke-miterlimit="10"/><rect x="49" y="169.4" width="9.3" height="11.2" fill="none" stroke="#4f9dff" stroke-miterlimit="10"/><polygon points="160.1 151.2 158.4 149.2 162.3 149.2 160.1 151.2" fill="none" stroke="#4f9dff" stroke-miterlimit="10"/><line x1="80.9" x2="80.9" y2="34.1" fill="none" stroke="#000" stroke-miterlimit="10" stroke-width="0.5" opacity="0.5"/><line x1="162.6" x2="162.6" y2="34.1" fill="none" stroke="#000" stroke-miterlimit="10" stroke-width="0.5" opacity="0.5"/><line x1="243.4" y1="210.7" y2="210.7" fill="none" stroke="#000" stroke-miterlimit="10" stroke-width="0.5" opacity="0.5"/></svg>