<svg id="Layer_1" data-name="Layer 1" xmlns="http://www.w3.org/2000/svg" xmlns:xlink="http://www.w3.org/1999/xlink" viewBox="0 0 243.4 242.2"><defs><clipPath id="clip-path" transform="translate(-0.6 -0.3)"><rect x="15.5" y="13.8" width="106.7" height="227.78" fill="none"/></clipPath><clipPath id="clip-path-2" transform="translate(-0.6 -0.3)"><circle cx="157.9" cy="76.6" r="74.8" fill="none" stroke="#000" stroke-miterlimit="10" stroke-width="3"/></clipPath></defs><title>side_wheel_clearance</title><line x1="243.4" y1="241.7" y2="241.7" fill="none" stroke="#000" stroke-miterlimit="10" opacity="0.5"/><g clip-path="url(#clip-path)"><polygon points="52.7 182.1 51 180.1 45.5 180.1 46 177 44.9 183.6 38.6 181.4 40.3 171.1 38.8 180.1 34.9 180.1 22.1 175.5 49.3 185.2 45.2 188.9 44 188.5 41.2 204.7 43.9 204.7 43.9 211.6 43.9 211.6 43.9 190 52.7 182.1" fill="none"/><polygon points="58.3 211.6 65.4 211.6 58.3 208.2 58.3 211.6" fill="none"/><polygon points="56.3 186.3 50.4 191.6 50.4 197.7 75.7 209.5 56.3 186.3" fill="none"/><polygon points="58.3 202.7 50.4 202.7 49.4 202.7 49.4 202.7 58.3 202.7 58.3 202.7" fill="none"/><polygon points="20.4 180.1 13.7 180.1 13.7 211.6 33.4 211.6 37.7 186.2 20.4 180.1" fill="none"/><polygon points="40.1 211.6 40.1 211.6 40.1 211.2 40.1 211.6" fill="none"/><path d="M88.4,181.3c2.5,10.1,5.3,21.4,8,30.6h1.8c-1.7-9.5-4.2-20.9-7.4-35.3l-3.4.7Z" transform="translate(-0.6 -0.3)" fill="none"/><polygon points="75.8 176.6 75.8 178.6 75.9 178.6 75.9 169.2 75.8 169.2 75.8 171 75.8 176.6" fill="none"/><polygon points="84.5 177.5 83 177.8 83 177.8 84.5 177.5" fill="none"/><path d="M82.1,175.9a376.3,376.3,0,0,1-8.4-43.2c-0.5-3.8-1.3-10.8-.9-16.3a118.1,118.1,0,0,1,5.5,14.3l0.3,2.3a360.1,360.1,0,0,0,6.9,36.4l-3.5.7h0l7.1-1.5c-3.2-14.1-6.7-27.1-10-37a108.7,108.7,0,0,0-6.8-17.1,1.5,1.5,0,0,0-2.9.7c0.1,8.8,3,29.4,10.8,60.6,2,7.9,4.1,16.5,6.4,24.7h0.9V204l2.1,7.3,0.5,0.5h1.3c-2.2-7.6-4.7-17.3-7.7-29.4Z" transform="translate(-0.6 -0.3)" fill="none"/><polygon points="53.3 134.1 47.6 167.6 60.4 167.6 53.3 134.1" fill="none"/><path d="M50.2,118h0Z" transform="translate(-0.6 -0.3)" fill="none"/><path d="M51.7,116.4h0Z" transform="translate(-0.6 -0.3)" fill="none"/><path d="M53.2,116h0Z" transform="translate(-0.6 -0.3)" fill="none"/><path d="M52.2,116.2h0Z" transform="translate(-0.6 -0.3)" fill="none"/><path d="M50.5,117.5h0Z" transform="translate(-0.6 -0.3)" fill="none"/><path d="M54.1,116.2h0Z" transform="translate(-0.6 -0.3)" fill="none"/><polygon points="50.7 116.3 50.7 116.3 50.7 116.3 50.7 116.3" fill="none"/><path d="M50.8,117h0Z" transform="translate(-0.6 -0.3)" fill="none"/><polygon points="48.6 122.6 13.7 122.6 13.7 167.6 40.9 167.6 49.3 118.5 48.9 120.8 48.6 122.6" fill="none"/><path d="M14.3,174.5v4.8h0.6a17.4,17.4,0,0,1,6.1,1.1l1.7-4.5a23.6,23.6,0,0,0-7.7-1.3H14.3Z" transform="translate(-0.6 -0.3)" fill="none"/><path d="M52.7,116.1h0Z" transform="translate(-0.6 -0.3)" fill="none"/><path d="M32,222.3a5.4,5.4,0,0,0,5.1-3.7H14.3v3.7H32Z" transform="translate(-0.6 -0.3)" fill="none"/><path d="M98.6,218.6l0.5,1.4a68.6,68.6,0,0,1,.9,12,1.1,1.1,0,0,1-.1.5c-2-2.5-4-7-6.2-13.8H92a101.7,101.7,0,0,0,5.4,14,1.6,1.6,0,0,0,1.4.9h0.3a1.5,1.5,0,0,0,1.2-1.5A83.5,83.5,0,0,0,99,216.4l-0.2-1.5v3.6H98.6Z" transform="translate(-0.6 -0.3)" fill="none"/><rect x="13.7" y="89.5" width="36.8" height="14.41" fill="none"/><rect x="13.7" y="84.5" width="36.8" height="4.96" fill="none" stroke="#4f9dff" stroke-miterlimit="10"/><polygon points="50.5 103.9 55.2 103.9 55.2 55.1 50.5 55.1 50.5 84.5 50.5 89.5 50.5 103.9" fill="none" stroke="#4f9dff" stroke-miterlimit="10"/><polygon points="13.7 103.9 13.7 114.5 55.9 114.5 55.9 103.9 55.2 103.9 50.5 103.9 13.7 103.9" fill="none" stroke="#4f9dff" stroke-miterlimit="10"/><polygon points="71.8 171 71.8 169.2 71.8 167.6 70.3 167.6 70.3 180.1 71.8 180.1 71.8 178.6 71.8 176.6 71.8 171" fill="none" stroke="#4f9dff" stroke-miterlimit="10"/><polygon points="41.2 204.7 40.1 211.2 40.1 211.6 43.9 211.6 43.9 204.7 41.2 204.7" fill="none" stroke="#4f9dff" stroke-miterlimit="10"/><path d="M32,222.3H14.3v5.1H32.1a11,11,0,0,0,10.8-8.8H37.1A5.4,5.4,0,0,1,32,222.3Z" transform="translate(-0.6 -0.3)" fill="none" stroke="#4f9dff" stroke-miterlimit="10"/><path d="M55.4,224H54.5V242h0.9a2.5,2.5,0,0,0,2.5-2.5V226.6A2.5,2.5,0,0,0,55.4,224Z" transform="translate(-0.6 -0.3)" fill="none" stroke="#4f9dff" stroke-miterlimit="10"/><path d="M53.7,224a2.5,2.5,0,0,0-2.5,2.5v12.9a2.5,2.5,0,0,0,2.5,2.5h0.9V224H53.7Z" transform="translate(-0.6 -0.3)" fill="none" stroke="#4f9dff" stroke-miterlimit="10"/><polygon points="49.3 219.1 48 219.1 47.4 219.1 47.4 235.7 49.3 235.7 49.3 221 58.5 221 58.5 235.7 60.4 235.7 60.4 221 60.4 219.1 58.5 219.1 49.3 219.1" fill="none" stroke="#4f9dff" stroke-miterlimit="10"/><path d="M82.1,224a2.5,2.5,0,0,0-2.5,2.5v12.9a2.5,2.5,0,0,0,2.5,2.5H83V224H82.1Z" transform="translate(-0.6 -0.3)" fill="none" stroke="#4f9dff" stroke-miterlimit="10"/><path d="M83.8,224H83V242h0.9a2.5,2.5,0,0,0,2.5-2.5V226.6A2.5,2.5,0,0,0,83.8,224Z" transform="translate(-0.6 -0.3)" fill="none" stroke="#4f9dff" stroke-miterlimit="10"/><polygon points="50.4 197.7 50.4 202.7 58.3 202.7 58.3 202.7 58.3 208.2 65.4 211.6 77.5 211.6 75.7 209.5 50.4 197.7" fill="none" stroke="#4f9dff" stroke-miterlimit="10"/><polygon points="41.2 204.7 41.2 204.7 44 188.5 37.7 186.2 33.4 211.6 36.7 214.1 40.1 211.6 40.1 211.2 41.2 204.7" fill="none" stroke="#4f9dff" stroke-miterlimit="10"/><polygon points="40.1 211.2 41.2 204.7 41.2 204.7 40.1 211.2" fill="none" stroke="#4f9dff" stroke-miterlimit="10"/><polygon points="37.7 186.2 37.7 186.2 44 188.5 44 188.5 45.2 188.9 49.3 185.2 22.1 175.5 20.4 180.1 37.7 186.2" fill="none" stroke="#4f9dff" stroke-miterlimit="10"/><polygon points="37.7 186.2 37.7 186.2 44 188.5 44 188.5 37.7 186.2" fill="none" stroke="#4f9dff" stroke-miterlimit="10"/><path d="M14.9,179.3H14.3v1.1H21l1.7-4.5L21,180.3A17.4,17.4,0,0,0,14.9,179.3Z" transform="translate(-0.6 -0.3)" fill="none" stroke="#4f9dff" stroke-miterlimit="10"/><polygon points="75.8 178.6 75.8 176.6 71.8 176.6 71.8 178.6 75.1 178.6 75.1 178.6 75.8 178.6" fill="none" stroke="#4f9dff" stroke-miterlimit="10"/><polygon points="75.8 171 75.8 169.2 72.8 169.2 71.8 169.2 71.8 171 75.8 171" fill="none" stroke="#4f9dff" stroke-miterlimit="10"/><rect x="71.8" y="171" width="4" height="5.6" fill="none" stroke="#4f9dff" stroke-miterlimit="10"/><path d="M14.3,174.5h0.6a23.6,23.6,0,0,1,7.7,1.3l12.9,4.5h3.8l1.5-9,0.6-3.5H14.3v6.6Z" transform="translate(-0.6 -0.3)" fill="none" stroke="#4f9dff" stroke-miterlimit="10"/><path d="M48.2,167.9l-1.6,9.5-0.5,3.1h9.4l7.9-7.1h0a2.8,2.8,0,1,1,3.5,4.3l-3.1,2.8h5.9V167.9H48.2Z" transform="translate(-0.6 -0.3)" fill="none" stroke="#4f9dff" stroke-miterlimit="10"/><polygon points="60.4 167.6 67.1 167.6 57.2 120.8 55.6 120.8 53.3 134.1 60.4 167.6" fill="none" stroke="#4f9dff" stroke-miterlimit="10"/><path d="M49.6,121.1l0.4-2.3,0.2-.6h0.1l0.2-.4h0.1l0.4-.4h0l0.5-.4H14.3v4.5H49.6Z" transform="translate(-0.6 -0.3)" fill="none" stroke="#4f9dff" stroke-miterlimit="10"/><polygon points="48.6 122.6 48.9 120.8 13.7 120.8 13.7 122.6 48.6 122.6" fill="none" stroke="#4f9dff" stroke-miterlimit="10"/><path d="M54.4,116.3H51.7l-0.4.2h0l-0.5.4h0l-0.4.4H50.4l-0.2.4H50.1l-0.2.6-8.4,49.1h0l-0.6,3.5-1.8,10.3,6.3,2.2,1.1-6.6,1.6-9.5h0l5.7-33.4h0l2.3-13.3h0l0.2-1.2a3.3,3.3,0,0,0-1.4-3.3h0Z" transform="translate(-0.6 -0.3)" fill="none" stroke="#4f9dff" stroke-miterlimit="10"/><polygon points="40.9 167.6 40.9 167.6 40.3 171.1 40.9 167.6" fill="none" stroke="#4f9dff" stroke-miterlimit="10"/><polygon points="47.6 167.6 46 177 47.6 167.6 47.6 167.6" fill="none" stroke="#4f9dff" stroke-miterlimit="10"/><polygon points="53.3 134.1 53.3 134.1 55.6 120.8 55.6 120.8 53.3 134.1" fill="none" stroke="#4f9dff" stroke-miterlimit="10"/><path d="M50.4,117.6l-0.2.4Z" transform="translate(-0.6 -0.3)" fill="none" stroke="#4f9dff" stroke-miterlimit="10"/><path d="M50.1,118.1l-0.2.6Z" transform="translate(-0.6 -0.3)" fill="none" stroke="#4f9dff" stroke-miterlimit="10"/><path d="M50.9,117l0.5-.4Z" transform="translate(-0.6 -0.3)" fill="none" stroke="#4f9dff" stroke-miterlimit="10"/><path d="M50.8,117l-0.4.4Z" transform="translate(-0.6 -0.3)" fill="none" stroke="#4f9dff" stroke-miterlimit="10"/><path d="M14.3,116.6H51.4l0.4-.2h2.6l0.7,0.3h2v-1.8H14.3v1.8Z" transform="translate(-0.6 -0.3)" fill="none" stroke="#4f9dff" stroke-miterlimit="10"/><path d="M55,116.6h0l-0.7-.3Z" transform="translate(-0.6 -0.3)" fill="none" stroke="#4f9dff" stroke-miterlimit="10"/><path d="M53.8,116.1h0Z" transform="translate(-0.6 -0.3)" fill="none" stroke="#4f9dff" stroke-miterlimit="10"/><path d="M51.4,116.6l0.4-.2Z" transform="translate(-0.6 -0.3)" fill="none" stroke="#4f9dff" stroke-miterlimit="10"/><path d="M51.8,116.3h0Z" transform="translate(-0.6 -0.3)" fill="none" stroke="#4f9dff" stroke-miterlimit="10"/><path d="M52.4,116.1h0Z" transform="translate(-0.6 -0.3)" fill="none" stroke="#4f9dff" stroke-miterlimit="10"/><path d="M103.8,170.3a349,349,0,0,0-11.4-40.4c-6.4-17.7-10.4-20.8-12.8-21.5a4.5,4.5,0,0,0-4.1.7,34,34,0,0,1,2.6,4.5l0.2-.5c0.7,0.3,3.9,2.7,9.5,18.1a346.6,346.6,0,0,1,11.3,40.2c8.3,37.3,8.1,51,6.8,56a34.4,34.4,0,0,1-.3,7.4,5.8,5.8,0,0,0,3-2.1C110.4,230.5,115.7,223.7,103.8,170.3Z" transform="translate(-0.6 -0.3)" fill="none" stroke="#4f9dff" stroke-miterlimit="10"/><path d="M95.9,175.5h0.4l-1.7-8H94.1l1,4.3Z" transform="translate(-0.6 -0.3)" fill="none" stroke="#4f9dff" stroke-miterlimit="10"/><path d="M89.1,168.6L82,170.1l1.7,8,1.4-.3,2.3-.5h0l3.4-.7L90,172.9Z" transform="translate(-0.6 -0.3)" fill="none" stroke="#4f9dff" stroke-miterlimit="10"/><path d="M66.9,177.6a2.8,2.8,0,1,0-3.5-4.3h0l-7.9,7.1h0.1l-2.2,2h0l-8.8,8v21.5H50V203h1V191.9l5.8-5.2h0l2.8-2.6,4.1-3.7h0Z" transform="translate(-0.6 -0.3)" fill="none" stroke="#4f9dff" stroke-miterlimit="10"/><polygon points="63.2 180.1 63.2 180.1 66.2 177.3 63.2 180.1" fill="none" stroke="#4f9dff" stroke-miterlimit="10"/><polygon points="62.8 173 54.9 180.1 54.9 180.1 62.8 173" fill="none" stroke="#4f9dff" stroke-miterlimit="10"/><polygon points="58.3 202.7 49.4 202.7 49.4 211.6 58.3 211.6 58.3 208.2 58.3 202.7" fill="none" stroke="#4f9dff" stroke-miterlimit="10"/><path d="M87.4,177.3l-2.3.5-1.4.3h0l-1.7-8h0l3.5-.7a360.1,360.1,0,0,1-6.9-36.4l-0.3-2.3a118.1,118.1,0,0,0-5.5-14.3c-0.4,5.5.5,12.5,0.9,16.3a376.3,376.3,0,0,0,8.4,43.2l1.6,6.5c3,12.1,5.5,21.8,7.7,29.4h5c-2.8-9.2-5.5-20.5-8-30.6Z" transform="translate(-0.6 -0.3)" fill="none" stroke="#4f9dff" stroke-miterlimit="10"/><polygon points="83 177.8 83 177.8 81.3 169.8 81.3 169.8 83 177.8" fill="none" stroke="#4f9dff" stroke-miterlimit="10"/><polygon points="86.8 177 84.5 177.5 86.8 177 86.8 177" fill="none" stroke="#4f9dff" stroke-miterlimit="10"/><path d="M99.9,231.9a68.6,68.6,0,0,0-.9-12l-0.5-1.4h-5c2.3,6.9,4.2,11.3,6.2,13.8A1.1,1.1,0,0,0,99.9,231.9Z" transform="translate(-0.6 -0.3)" fill="none" stroke="#4f9dff" stroke-miterlimit="10"/><polygon points="92.9 218.3 98 218.3 98.1 218.3 98.1 214.6 98.1 211.6 97.6 211.6 95.8 211.6 90.8 211.6 89.5 211.6 89.2 211.6 87 211.6 87 211.6 77.7 211.6 77.7 211.6 77.5 211.6 65.4 211.6 58.3 211.6 58.3 211.6 49.4 211.6 49.4 211.6 43.9 211.6 43.9 211.6 43.9 211.6 40.1 211.6 40.1 211.6 40.1 211.6 36.7 214.1 33.4 211.6 13.7 211.6 13.7 218.3 36.5 218.3 42.2 218.3 86 218.3 91.3 218.3 92.9 218.3" fill="none" stroke="#4f9dff" stroke-miterlimit="10"/><rect x="40.1" y="211.6" width="3.8" fill="none" stroke="#4f9dff" stroke-miterlimit="10"/><rect x="49.4" y="211.6" width="8.9" fill="none" stroke="#4f9dff" stroke-miterlimit="10"/><polygon points="88.8 219.1 86.9 219.1 86.2 219.1 77.7 219.1 76.4 219.1 75.8 219.1 75.8 235.7 77.7 235.7 77.7 221 86.9 221 86.9 235.7 88.8 235.7 88.8 226.7 88.8 221 88.8 219.1" fill="none" stroke="#4f9dff" stroke-miterlimit="10"/><path d="M87.6,204v4.8l2.1,2.5Z" transform="translate(-0.6 -0.3)" fill="none" stroke="#4f9dff" stroke-miterlimit="10"/><path d="M80.3,175.9c-7.8-31.2-10.7-51.8-10.8-60.6a1.5,1.5,0,0,1,2.9-.7,108.7,108.7,0,0,1,6.8,17.1c3.2,9.9,6.7,22.9,10,37l5-1.1c-3.4-14.6-7-28-10.3-38.2-6.3-19.2-10-22.7-12.8-23.6l-1.4-.2a4.6,4.6,0,0,0-3.1,1.3c-1.2,1.1-3.7,3.4-.4,25.4,1.6,10.5,4.2,23.6,7.5,37.4h3.1v9.4H75.8c1.8,7,3.6,14.5,5.6,21.7h5.3C84.4,192.4,82.3,183.8,80.3,175.9Z" transform="translate(-0.6 -0.3)" fill="#4f9dff"/><path d="M90.8,176.5c3.2,14.3,5.7,25.8,7.4,35.3h0.5v3.1l0.2,1.5a83.5,83.5,0,0,1,1.4,15.5,1.5,1.5,0,0,1-1.2,1.5H98.8a1.6,1.6,0,0,1-1.4-.9,101.7,101.7,0,0,1-5.4-14H86.6l0.3,0.8h2.6v7.6c4.3,11.4,7.1,14.1,10,14.1v0a5.1,5.1,0,0,0,4-2c4.7-6,.7-26-7.6-63.5Z" transform="translate(-0.6 -0.3)" fill="#4f9dff"/><rect x="75.1" y="178.6" width="0.6" fill="#4f9dff"/><path d="M90,172.9l0.8,3.6,5-1.1L95,171.8l-1-4.3-5,1.1Z" transform="translate(-0.6 -0.3)" fill="#4f9dff"/><polygon points="75.7 209.5 77.7 210.4 77.7 200.3 80.1 200.3 63.1 180.1 59.1 183.8 56.3 186.3 75.7 209.5" fill="none" stroke="#4f9dff" stroke-miterlimit="10"/><polygon points="75.7 209.5 77.5 211.6 77.7 211.6 77.7 210.4 75.7 209.5" fill="none" stroke="#4f9dff" stroke-miterlimit="10"/><polygon points="56.3 186.3 59.1 183.8 56.3 186.3 56.3 186.3" fill="none" stroke="#4f9dff" stroke-miterlimit="10"/><path d="M89.9,211.8h0.3l-0.5-.5Z" transform="translate(-0.6 -0.3)" fill="none" stroke="#4f9dff" stroke-miterlimit="10"/><path d="M87.6,208.8v3.1h2.3l-0.2-.5Z" transform="translate(-0.6 -0.3)" fill="none" stroke="#4f9dff" stroke-miterlimit="10"/><polygon points="77.7 210.4 80.2 211.6 87 211.6 87 208.5 87 203.7 87 200.3 86.1 200.3 80.8 200.3 80.1 200.3 77.7 200.3 77.7 210.4" fill="none" stroke="#4f9dff" stroke-miterlimit="10"/><polygon points="77.7 210.4 77.7 211.6 80.2 211.6 77.7 210.4" fill="none" stroke="#4f9dff" stroke-miterlimit="10"/><polygon points="77.7 211.6 77.7 211.6 87 211.6 87 211.6 80.2 211.6 77.7 211.6" fill="none" stroke="#4f9dff" stroke-miterlimit="10"/><polygon points="54.9 180.1 51 180.1 52.7 182.1 54.9 180.1" fill="none" stroke="#4f9dff" stroke-miterlimit="10"/><polygon points="52.7 182.1 55 180.1 54.9 180.1 54.9 180.1 52.7 182.1 52.7 182.1" fill="none" stroke="#4f9dff" stroke-miterlimit="10"/></g><circle cx="61.2" cy="115" r="16.3" fill="none" stroke="#000" stroke-miterlimit="10" stroke-width="2"/><line x1="96.5" y1="33.8" x2="47.2" y2="106.4" fill="none" stroke="#000" stroke-miterlimit="10"/><line x1="144.9" y1="150.1" x2="61.2" y2="131.4" fill="none" stroke="#000" stroke-miterlimit="10"/><g clip-path="url(#clip-path-2)"><polyline points="132.5 5.7 132.5 44.2 113.9 44.2 113.9 15.1" fill="none" stroke="#4f9dff" stroke-miterlimit="10"/><polyline points="82.9 86.3 135.2 86.3 135.2 44.2 89.5 44.2" fill="none" stroke="#4f9dff" stroke-miterlimit="10"/><polyline points="148.6 150.1 140.3 111.2 134.1 111.2 128.3 145.1" fill="none" stroke="#4f9dff" stroke-miterlimit="10"/><polyline points="95 118.3 106.5 118.3 107.7 111.2 91.2 111.2" fill="none" stroke="#4f9dff" stroke-miterlimit="10"/><path d="M129,145.4l6.6-38.7a13,13,0,1,0-25.7-4.4l-4.7,27.5" transform="translate(-0.6 -0.3)" fill="none" stroke="#4f9dff" stroke-miterlimit="10"/><path d="M231.5,89.8c-5.1-7.5-8.3-9.8-9.5-10.4a11.3,11.3,0,0,0-.8,2,134.6,134.6,0,0,0-10.2-17.7,17.7,17.7,0,0,1,16.2-2.7,22.4,22.4,0,0,1,3.9,1.7" transform="translate(-0.6 -0.3)" fill="none" stroke="#4f9dff" stroke-miterlimit="10"/><path d="M201.8,136.8c-1.3-13.9-2.3-30.1-1.3-43.8,3.8,7.9,8.5,18.7,13.9,33.5A79.8,79.8,0,0,0,228.6,102c-16.1-39.8-27-48.8-35.6-51.5a17.9,17.9,0,0,0-5.3-.8,18.2,18.2,0,0,0-12.4,5c-4.7,4.3-14.2,13.1-2.4,95a88.1,88.1,0,0,0,34.7-16.6,56.4,56.4,0,0,0,6.8-6.6Z" transform="translate(-0.6 -0.3)" fill="#4f9dff"/><line x1="139.8" y1="81.2" x2="163.4" y2="81.2" fill="none" stroke="#000" stroke-miterlimit="10" stroke-width="2"/><polygon points="146.4 89.3 147.8 87.9 140.6 81.2 147.8 74.4 146.4 73 137.6 81.2 146.4 89.3"/><polygon points="156.8 89.3 155.4 87.9 162.6 81.2 155.4 74.4 156.8 73 165.6 81.2 156.8 89.3"/><line x1="166.4" y1="46.4" x2="166.4" y2="116.4" fill="none" stroke="#000" stroke-miterlimit="10" opacity="0.5"/><line x1="136.9" y1="46.4" x2="136.9" y2="116.4" fill="none" stroke="#000" stroke-miterlimit="10" opacity="0.5"/></g><circle cx="157.2" cy="76.3" r="74.8" fill="none" stroke="#000" stroke-miterlimit="10" stroke-width="3"/></svg>