<svg id="Layer_1" data-name="Layer 1" xmlns="http://www.w3.org/2000/svg" xmlns:xlink="http://www.w3.org/1999/xlink" viewBox="0 0 248.15 242.74"><defs><style>.cls-1,.cls-10,.cls-2,.cls-4,.cls-6,.cls-8{fill:none;}.cls-10,.cls-2,.cls-4,.cls-8{stroke:#000;}.cls-10,.cls-2,.cls-3,.cls-4,.cls-6,.cls-8{stroke-miterlimit:10;}.cls-2{stroke-width:3px;}.cls-3{fill:#fff;}.cls-3,.cls-6{stroke:#4f9dff;}.cls-4{opacity:0.5;}.cls-5{clip-path:url(#clip-path);}.cls-7{fill:#4f9dff;}.cls-9{clip-path:url(#clip-path-2);}.cls-10{stroke-width:2px;}</style><clipPath id="clip-path"><rect class="cls-1" x="15.49" y="13.76" width="106.69" height="227.78"/></clipPath><clipPath id="clip-path-2"><circle class="cls-2" cx="157.88" cy="76.57" r="74.78"/></clipPath></defs><title>side_wheel_clearance</title><path class="cls-3" d="M96.78,131.73L85.16,63.84a3.29,3.29,0,1,0-6.48,1.11l11.81,69,3.93,23,3.4,2.55,3.27-2.55Z"/><line class="cls-4" x1="244.07" y1="241.96" x2="0.63" y2="241.96"/><g class="cls-5"><polygon class="cls-1" points="53.33 182.37 51.67 180.38 46.08 180.38 46.6 177.32 45.48 183.89 39.19 181.66 40.95 171.39 39.41 180.38 35.57 180.38 22.7 175.83 49.92 185.46 45.84 189.17 44.65 188.75 41.88 204.96 44.52 204.96 44.52 211.84 44.56 211.84 44.56 190.32 53.33 182.37"/><polygon class="cls-1" points="58.92 211.84 66.07 211.84 58.92 208.52 58.92 211.84"/><polygon class="cls-1" points="56.89 186.62 51.07 191.87 51.07 198.02 76.35 209.78 56.89 186.62"/><polygon class="cls-1" points="58.92 202.96 51.07 202.96 50.04 202.96 50.04 202.96 58.92 202.96 58.92 202.96"/><polygon class="cls-1" points="20.99 180.38 14.3 180.38 14.3 211.84 34.03 211.84 38.36 186.52 20.99 180.38"/><polygon class="cls-1" points="40.7 211.84 40.7 211.84 40.75 211.53 40.7 211.84"/><path class="cls-1" d="M88.41,181.28c2.49,10.05,5.28,21.36,8,30.56h1.78c-1.67-9.45-4.17-20.95-7.37-35.3l-3.43.73Z"/><polygon class="cls-1" points="76.39 176.93 76.39 178.93 76.55 178.93 76.55 169.52 76.39 169.52 76.39 171.32 76.39 176.93"/><polygon class="cls-1" points="85.1 177.77 83.66 178.07 83.66 178.07 85.1 177.77"/><path class="cls-1" d="M82.13,175.92a376.27,376.27,0,0,1-8.4-43.19c-0.46-3.79-1.32-10.83-.92-16.32a118.13,118.13,0,0,1,5.51,14.26c0.08,0.72.17,1.47,0.27,2.25a360.07,360.07,0,0,0,6.88,36.42l-3.51.75h0l7.09-1.51c-3.25-14.07-6.75-27.09-10-37a108.7,108.7,0,0,0-6.76-17.08,1.52,1.52,0,0,0-2.86.74c0.12,8.84,3,29.41,10.82,60.65,2,7.86,4.14,16.47,6.4,24.75h0.92V204c0.7,2.5,1.4,5,2.11,7.33l0.46,0.54h1.3c-2.22-7.58-4.72-17.26-7.72-29.41C83.2,180.21,82.66,178,82.13,175.92Z"/><polygon class="cls-1" points="53.95 134.42 48.23 167.85 61.05 167.85 53.95 134.42"/><path class="cls-1" d="M50.19,118l-0.06.13Z"/><path class="cls-1" d="M51.75,116.37l0.08,0Z"/><path class="cls-1" d="M53.2,116a3.28,3.28,0,0,1,.63.07A3.11,3.11,0,0,0,53.2,116Z"/><path class="cls-1" d="M52.18,116.2l0.21-.06Z"/><path class="cls-1" d="M50.49,117.46l-0.06.09Z"/><path class="cls-1" d="M54.07,116.16l0.28,0.1Z"/><polygon class="cls-1" points="51.37 116.6 51.37 116.6 51.37 116.6 51.37 116.6"/><path class="cls-1" d="M50.84,117l0,0Z"/><polygon class="cls-1" points="49.25 122.88 14.3 122.88 14.3 167.85 41.55 167.85 49.95 118.76 49.55 121.1 49.25 122.88"/><path class="cls-1" d="M14.3,174.5v4.81l0.65,0A17.37,17.37,0,0,1,21,180.35l1.69-4.51a23.56,23.56,0,0,0-7.75-1.34H14.3Z"/><path class="cls-1" d="M52.66,116.07a3.28,3.28,0,0,1,.53,0A3.17,3.17,0,0,0,52.66,116.07Z"/><path class="cls-1" d="M32,222.26a5.44,5.44,0,0,0,5.15-3.69H14.3v3.69H32Z"/><path class="cls-1" d="M98.59,218.56l0.48,1.36a68.65,68.65,0,0,1,.87,12,1.11,1.11,0,0,1-.15.49c-2-2.51-4-7-6.24-13.83H92a101.69,101.69,0,0,0,5.43,14,1.55,1.55,0,0,0,1.39.86,1.58,1.58,0,0,0,.35,0,1.55,1.55,0,0,0,1.23-1.46A83.53,83.53,0,0,0,99,216.42c-0.08-.49-0.16-1-0.24-1.49v3.63H98.59Z"/><rect class="cls-1" x="14.3" y="89.78" width="36.81" height="14.41"/><rect class="cls-6" x="14.3" y="84.82" width="36.81" height="4.96"/><polygon class="cls-6" points="51.11 104.2 55.82 104.2 55.82 55.42 51.11 55.42 51.11 84.82 51.11 89.78 51.11 104.2"/><polygon class="cls-6" points="14.3 104.2 14.3 114.82 56.5 114.82 56.5 104.2 55.82 104.2 51.11 104.2 14.3 104.2"/><polygon class="cls-6" points="72.42 171.32 72.42 169.52 72.42 167.85 70.89 167.85 70.89 180.38 72.42 180.38 72.42 178.93 72.42 176.93 72.42 171.32"/><polygon class="cls-6" points="41.88 204.96 40.75 211.53 40.7 211.84 44.52 211.84 44.52 204.96 41.88 204.96"/><path class="cls-6" d="M32,222.26H14.3v5.09H32.07a11,11,0,0,0,10.76-8.78H37.11A5.44,5.44,0,0,1,32,222.26Z"/><path class="cls-6" d="M55.4,224H54.55V242H55.4a2.52,2.52,0,0,0,2.52-2.52V226.57A2.52,2.52,0,0,0,55.4,224Z"/><path class="cls-6" d="M53.7,224a2.52,2.52,0,0,0-2.52,2.52v12.87A2.52,2.52,0,0,0,53.7,242h0.85V224H53.7Z"/><polygon class="cls-6" points="49.95 219.34 48.65 219.34 48.05 219.34 48.05 235.98 49.95 235.98 49.95 221.25 59.15 221.25 59.15 235.98 61.05 235.98 61.05 221.25 61.05 219.34 59.15 219.34 49.95 219.34"/><path class="cls-6" d="M82.1,224a2.52,2.52,0,0,0-2.52,2.52v12.87A2.52,2.52,0,0,0,82.1,242H83V224H82.1Z"/><path class="cls-6" d="M83.8,224H83V242H83.8a2.52,2.52,0,0,0,2.52-2.52V226.57A2.52,2.52,0,0,0,83.8,224Z"/><polygon class="cls-6" points="51.07 198.02 51.07 202.96 58.92 202.96 58.92 202.96 58.92 208.52 66.07 211.84 78.08 211.84 76.35 209.78 51.07 198.02"/><polygon class="cls-6" points="41.87 204.96 41.88 204.96 44.65 188.75 38.36 186.52 34.03 211.84 37.3 214.39 40.7 211.84 40.75 211.53 41.87 204.96"/><polygon class="cls-6" points="40.75 211.53 41.88 204.96 41.87 204.96 40.75 211.53"/><polyline class="cls-6" points="38.36 186.52 38.36 186.52 44.65 188.75 44.65 188.75 45.84 189.17 49.92 185.46 45.57 183.92"/><polyline class="cls-6" points="39.13 181.64 22.7 175.83 20.99 180.38 38.36 186.52"/><path class="cls-6" d="M14.95,179.28l-0.65,0v1.08H21l1.71-4.55L21,180.35A17.37,17.37,0,0,0,14.95,179.28Z"/><polygon class="cls-6" points="76.39 178.93 76.39 176.93 72.42 176.93 72.42 178.93 75.78 178.93 75.78 178.93 76.39 178.93"/><polygon class="cls-6" points="76.39 171.32 76.39 169.52 73.48 169.52 72.42 169.52 72.42 171.32 76.39 171.32"/><rect class="cls-6" x="72.42" y="171.32" width="3.97" height="5.6"/><path class="cls-6" d="M14.3,174.5h0.65a23.56,23.56,0,0,1,7.75,1.34l12.87,4.55h3.84l1.54-9,0.6-3.54H14.3v6.65Z"/><path class="cls-6" d="M48.22,167.85l-1.62,9.47-0.52,3.06h9.44l7.87-7.14,0,0a2.79,2.79,0,1,1,3.47,4.34l-3.08,2.78h5.92V167.85H48.22Z"/><polygon class="cls-6" points="61.05 167.85 67.73 167.85 57.78 121.1 56.23 121.1 53.95 134.42 61.05 167.85"/><path class="cls-6" d="M49.55,121.1l0.4-2.34a3.28,3.28,0,0,1,.18-0.62l0.06-.13a3.26,3.26,0,0,1,.24-0.45l0.06-.09a3.28,3.28,0,0,1,.35-0.43l0,0a3.29,3.29,0,0,1,.48-0.4H14.3v4.5H49.55Z"/><polygon class="cls-6" points="49.25 122.88 49.55 121.1 14.3 121.1 14.3 122.88 49.25 122.88"/><path class="cls-6" d="M54.35,116.25l-0.28-.1-0.25-.06a2.91,2.91,0,0,0-1.16,0l-0.28.07-0.21.06-0.36.14-0.08,0a3.45,3.45,0,0,0-.38.22h0a3.38,3.38,0,0,0-.48.4l0,0a3.31,3.31,0,0,0-.35.43l-0.06.09a3.24,3.24,0,0,0-.24.45l-0.06.13a3.21,3.21,0,0,0-.18.62l-8.4,49.09h0l-0.6,3.54-1.76,10.28,6.29,2.22,1.12-6.57,1.62-9.47h0l5.72-33.43h0l2.28-13.33h0l0.21-1.23A3.27,3.27,0,0,0,55,116.6h0A3.44,3.44,0,0,0,54.35,116.25Z"/><polygon class="cls-6" points="41.55 167.85 41.55 167.85 40.95 171.39 41.55 167.85"/><polygon class="cls-6" points="48.23 167.85 46.6 177.32 48.23 167.85 48.23 167.85"/><polygon class="cls-6" points="53.95 134.42 53.95 134.42 56.23 121.1 56.23 121.1 53.95 134.42"/><path class="cls-6" d="M50.43,117.55a3.26,3.26,0,0,0-.24.45A3.24,3.24,0,0,1,50.43,117.55Z"/><path class="cls-6" d="M50.13,118.14a3.28,3.28,0,0,0-.18.62A3.21,3.21,0,0,1,50.13,118.14Z"/><path class="cls-6" d="M50.88,117a3.38,3.38,0,0,1,.48-0.4A3.29,3.29,0,0,0,50.88,117Z"/><path class="cls-6" d="M50.84,117a3.28,3.28,0,0,0-.35.43A3.31,3.31,0,0,1,50.84,117Z"/><path class="cls-6" d="M14.3,116.6H51.37a3.26,3.26,0,0,1,.38-0.22l0.08,0,0.36-.14,0.21-.06,0.28-.07a3.17,3.17,0,0,1,.53,0,3.11,3.11,0,0,1,.63.07l0.25,0.06,0.28,0.1a3.24,3.24,0,0,1,.67.34h2v-1.78H14.3v1.78Z"/><path class="cls-6" d="M55,116.6h0a3.24,3.24,0,0,0-.67-0.34A3.44,3.44,0,0,1,55,116.6Z"/><path class="cls-6" d="M53.82,116.1l0.25,0.06Z"/><path class="cls-6" d="M51.37,116.6a3.45,3.45,0,0,1,.38-0.22A3.26,3.26,0,0,0,51.37,116.6Z"/><path class="cls-6" d="M51.82,116.34l0.36-.14Z"/><path class="cls-6" d="M52.38,116.14l0.28-.07Z"/><path class="cls-6" d="M103.79,170.29a349,349,0,0,0-11.36-40.38c-6.38-17.7-10.39-20.77-12.85-21.54a4.47,4.47,0,0,0-4.1.68,34,34,0,0,1,2.58,4.46,2.86,2.86,0,0,1,.2-0.51c0.68,0.35,3.91,2.74,9.49,18.1a346.58,346.58,0,0,1,11.34,40.23c8.34,37.3,8.07,51,6.76,56a34.43,34.43,0,0,1-.27,7.36,5.83,5.83,0,0,0,3-2.06C110.38,230.45,115.73,223.69,103.79,170.29Z"/><path class="cls-6" d="M95.85,175.48l0.4-.08-1.7-8-0.49.1q0.49,2.14,1,4.31Z"/><path class="cls-6" d="M89.05,168.59L82,170.09l1.7,8,1.44-.31,2.32-.49h0l3.43-.73-0.8-3.6Q89.55,170.75,89.05,168.59Z"/><path class="cls-6" d="M66.88,177.6a2.79,2.79,0,1,0-3.47-4.34l0,0-7.87,7.14h0.06l-2.22,2,0,0-8.77,8v21.52H50V203h1V191.87l5.81-5.25h0l2.85-2.57,4.06-3.67h0Z"/><polygon class="cls-6" points="63.8 180.38 63.8 180.38 66.88 177.6 63.8 180.38"/><polygon class="cls-6" points="63.39 173.24 55.52 180.38 55.52 180.38 63.39 173.24"/><polygon class="cls-6" points="58.92 202.96 50.04 202.96 50.04 211.84 58.92 211.84 58.92 208.52 58.92 202.96"/><path class="cls-6" d="M87.42,177.27l-2.32.49-1.44.31h0l-1.7-8h0l3.51-.75a360.07,360.07,0,0,1-6.88-36.42c-0.1-.78-0.19-1.53-0.27-2.25a118.13,118.13,0,0,0-5.51-14.26c-0.4,5.49.46,12.52,0.92,16.32a376.27,376.27,0,0,0,8.4,43.19c0.53,2.11,1.07,4.29,1.62,6.52,3,12.14,5.51,21.82,7.72,29.41h5c-2.75-9.2-5.55-20.5-8-30.56Z"/><polygon class="cls-6" points="83.66 178.07 83.66 178.07 81.96 170.09 81.96 170.09 83.66 178.07"/><polygon class="cls-6" points="87.42 177.27 85.1 177.77 87.42 177.27 87.42 177.27"/><path class="cls-6" d="M99.93,231.9a68.65,68.65,0,0,0-.87-12l-0.48-1.36h-5c2.25,6.86,4.24,11.33,6.24,13.83A1.11,1.11,0,0,0,99.93,231.9Z"/><polygon class="cls-6" points="93.54 218.56 98.58 218.56 98.75 218.56 98.75 214.93 98.75 211.84 98.22 211.84 96.44 211.84 91.47 211.84 90.17 211.84 89.87 211.84 87.61 211.84 87.61 211.84 78.3 211.84 78.3 211.84 78.08 211.84 66.07 211.84 58.92 211.84 58.92 211.84 50.04 211.84 50.04 211.84 44.56 211.84 44.52 211.84 44.52 211.84 40.7 211.84 40.7 211.84 40.7 211.84 37.3 214.39 34.03 211.84 14.3 211.84 14.3 218.56 37.12 218.56 42.83 218.56 86.59 218.56 91.97 218.56 93.54 218.56"/><rect class="cls-6" x="40.7" y="211.84" width="3.82"/><rect class="cls-6" x="50.04" y="211.84" width="8.88"/><polygon class="cls-6" points="89.46 219.34 87.56 219.34 86.84 219.34 78.35 219.34 77.05 219.34 76.45 219.34 76.45 235.98 78.35 235.98 78.35 221.25 87.56 221.25 87.56 235.98 89.46 235.98 89.46 226.94 89.46 221.25 89.46 219.34"/><path class="cls-6" d="M87.61,204v4.82l2.11,2.51C89,208.92,88.3,206.47,87.61,204Z"/><path class="cls-7" d="M80.29,175.89c-7.8-31.24-10.7-51.81-10.82-60.65a1.52,1.52,0,0,1,2.86-.74,108.7,108.7,0,0,1,6.76,17.08c3.22,9.92,6.72,22.93,10,37l5-1.06c-3.36-14.59-7-28-10.33-38.21-6.3-19.23-10-22.73-12.83-23.61a4.52,4.52,0,0,0-1.35-.21,4.58,4.58,0,0,0-3.12,1.27c-1.2,1.11-3.7,3.41-.42,25.35,1.58,10.53,4.19,23.59,7.46,37.4h3.07v9.4H75.78c1.75,7,3.65,14.46,5.61,21.71h5.31C84.43,192.36,82.26,183.75,80.29,175.89Z"/><path class="cls-7" d="M90.85,176.54c3.2,14.35,5.7,25.85,7.37,35.3h0.53v3.09c0.08,0.5.17,1,.24,1.49a83.53,83.53,0,0,1,1.38,15.5,1.55,1.55,0,0,1-1.23,1.46,1.58,1.58,0,0,1-.35,0,1.55,1.55,0,0,1-1.39-.86,101.69,101.69,0,0,1-5.43-14H86.59l0.25,0.78h2.61v7.6c4.25,11.41,7.14,14.07,10,14.07v0.44l0.06-.44a5.14,5.14,0,0,0,4-2c4.73-6,.72-26-7.64-63.53Z"/><rect class="cls-7" x="75.78" y="178.93" width="0.62"/><path class="cls-7" d="M90,172.95l0.8,3.6,5-1.06L95,171.83q-0.48-2.17-1-4.31l-5,1.06Q89.55,170.75,90,172.95Z"/><polygon class="cls-6" points="76.35 209.78 78.3 210.68 78.3 200.64 80.75 200.64 63.76 180.42 59.73 184.05 56.89 186.62 76.35 209.78"/><polygon class="cls-6" points="76.35 209.78 78.08 211.84 78.3 211.84 78.3 210.68 76.35 209.78"/><polygon class="cls-6" points="56.89 186.62 59.73 184.05 56.89 186.62 56.89 186.62"/><path class="cls-6" d="M89.87,211.84h0.3l-0.46-.54Z"/><path class="cls-6" d="M87.61,208.79v3.05h2.27l-0.16-.54Z"/><polygon class="cls-6" points="78.3 210.68 80.79 211.84 87.61 211.84 87.61 208.79 87.61 203.97 87.61 200.64 86.69 200.64 81.38 200.64 80.75 200.64 78.3 200.64 78.3 210.68"/><polygon class="cls-6" points="78.3 210.68 78.3 211.84 80.79 211.84 78.3 210.68"/><polygon class="cls-6" points="78.3 211.84 78.3 211.84 87.61 211.84 87.61 211.84 80.79 211.84 78.3 211.84"/><polygon class="cls-6" points="55.52 180.38 51.67 180.38 53.33 182.37 55.52 180.38"/><polygon class="cls-6" points="53.36 182.4 55.58 180.38 55.52 180.38 55.52 180.38 53.33 182.37 53.36 182.4"/></g><path class="cls-3" d="M53.22,116.14A3.29,3.29,0,0,0,50,118.87l-11.6,67.76L34.05,212l3.27,2.55,3.4-2.55,3.74-21.56,12-70.41A3.29,3.29,0,0,0,53.22,116.14Z"/><line class="cls-8" x1="97.12" y1="34.1" x2="47.8" y2="106.64"/><line class="cls-8" x1="145.48" y1="150.39" x2="61.85" y2="131.64"/><g class="cls-9"><polyline class="cls-6" points="133.17 6.01 133.17 44.53 114.51 44.53 114.51 15.39"/><polyline class="cls-6" points="83.5 86.6 135.85 86.6 135.85 44.53 90.1 44.53"/><polyline class="cls-6" points="149.22 150.43 140.94 111.48 134.77 111.48 128.97 145.36"/><polyline class="cls-6" points="95.66 118.54 107.14 118.54 108.34 111.48 91.84 111.48"/><path class="cls-6" d="M129,145.36l6.63-38.75a13,13,0,1,0-25.67-4.39l-4.71,27.55"/><path class="cls-6" d="M231.55,89.81c-5.09-7.55-8.27-9.75-9.45-10.36a11.33,11.33,0,0,0-.79,2A134.63,134.63,0,0,0,211.09,63.8a17.72,17.72,0,0,1,16.22-2.7,22.41,22.41,0,0,1,3.95,1.67"/><path class="cls-7" d="M201.79,136.76c-1.33-13.86-2.32-30.08-1.31-43.84,3.84,7.91,8.46,18.73,13.87,33.48A79.79,79.79,0,0,0,228.57,102c-16.15-39.77-27-48.75-35.64-51.46a17.9,17.9,0,0,0-5.35-.83,18.15,18.15,0,0,0-12.35,5c-4.66,4.29-14.25,13.11-2.44,95a88.12,88.12,0,0,0,34.67-16.62,56.35,56.35,0,0,0,6.77-6.57Z"/><line class="cls-10" x1="140.42" y1="81.44" x2="164.02" y2="81.44"/><polygon points="147.05 89.62 148.42 88.15 141.19 81.44 148.42 74.72 147.05 73.26 138.26 81.44 147.05 89.62"/><polygon points="157.4 89.62 156.03 88.15 163.26 81.44 156.03 74.72 157.4 73.26 166.19 81.44 157.4 89.62"/><line class="cls-4" x1="167.05" y1="46.65" x2="167.05" y2="116.66"/><line class="cls-4" x1="137.55" y1="46.65" x2="137.55" y2="116.66"/></g><circle class="cls-2" cx="157.88" cy="76.57" r="74.78"/><circle class="cls-10" cx="61.85" cy="115.32" r="16.32"/></svg>