<svg id="Layer_1" data-name="Layer 1" xmlns="http://www.w3.org/2000/svg" viewBox="0 0 243.44 199.96"><defs><style>.cls-1,.cls-10,.cls-2,.cls-3,.cls-4,.cls-5,.cls-9{fill:none;}.cls-1,.cls-2,.cls-3,.cls-4,.cls-5,.cls-7,.cls-8{stroke:#4f9dff;}.cls-1,.cls-10,.cls-2,.cls-3,.cls-4,.cls-5,.cls-7,.cls-8,.cls-9{stroke-miterlimit:10;}.cls-1{stroke-width:1.06px;}.cls-3{stroke-width:0.99px;}.cls-4{stroke-width:0.89px;}.cls-5{stroke-width:0.87px;}.cls-6,.cls-7{fill:#4f9dff;}.cls-8{fill:#fff;}.cls-10,.cls-9{stroke:#000;}.cls-9{stroke-width:2px;}.cls-10{stroke-width:0.5px;opacity:0.5;}</style></defs><title>taper</title><line class="cls-1" x1="178" y1="60.65" x2="179.09" y2="54.91"/><path class="cls-1" d="M201.48,60.84c3.31,2,1,7.59-2.33,5.55"/><path class="cls-1" d="M221.39,71.31L195.47,57.67a3,3,0,0,0-.89-0.3l-32-5.49a3,3,0,0,0-.44,0l-5.27-.9,0,6.08,27.34,4.7v0l8.4,1.44a3,3,0,0,1,.89.3l25.08,13.2a3,3,0,0,0,4.05-1.26h0A3,3,0,0,0,221.39,71.31Z"/><line class="cls-1" x1="178" y1="129.98" x2="179.09" y2="135.72"/><path class="cls-1" d="M201.48,129.79c3.31-2,1-7.59-2.33-5.55"/><path class="cls-1" d="M221.39,119.32L195.47,133a3,3,0,0,1-.89.3l-32,5.49a3,3,0,0,1-.44,0l-5.27.9,0-6.08,27.34-4.7v0l8.4-1.44a3,3,0,0,0,.89-0.3L218.59,114a3,3,0,0,1,4.05,1.26h0A3,3,0,0,1,221.39,119.32Z"/><rect class="cls-2" x="102.6" y="139.1" width="3.97" height="5.6" transform="translate(246.48 37.31) rotate(90)"/><rect class="cls-2" x="102.59" y="44.27" width="3.97" height="9.4" transform="translate(153.54 -55.6) rotate(90)"/><rect class="cls-2" x="102.59" y="137.19" width="3.97" height="9.4" transform="translate(246.47 37.32) rotate(90)"/><rect class="cls-2" x="102.69" y="46.17" width="3.97" height="5.6" transform="translate(153.65 -55.7) rotate(90)"/><polyline class="cls-2" points="100.41 153.52 100.41 143.88 108.57 143.88 108.57 153.52"/><polyline class="cls-2" points="108.57 157.59 108.57 171.08 100.41 171.08 100.41 157.65"/><polyline class="cls-2" points="108.57 36.97 108.57 46.99 100.41 46.99 100.41 36.97"/><polyline class="cls-2" points="100.41 32.92 100.41 19.77 108.57 19.77 108.57 32.87"/><path class="cls-1" d="M220.08,70.62c-0.46-1.49-.81-2.71-1.27-4.19L213.9,50.51c-0.64-2.08-1-4.17-2.49-5.72-3.92-4-9.28-7.2-13.7-10.64L186,25c-1.22-.94-3.36-1.18-4.17.54-4,8.48-9.1,19.21-13.09,27.69m53.1,61,4-13c0.68-2.19,1.87-4.61,1.63-6.91-0.33-3.19-2.08-6.74-3-9.78l-2.56-8.28m-53,61.37c3.88,8.52,9,18.69,12.94,27.12,0.81,1.72,3,1.48,4.17.54l26-20.17a2.9,2.9,0,0,0,.91-1.9L220,120m-53.74,10.65a2.7,2.7,0,0,0,.23,1.26m-0.07-1-0.33-6,3.2-1.88c0,1.06,0,.85,0,1.88m0.15-12.75v1.27c0,2.33-.1,4.52-0.14,7.53m0.07-51.6c0,1.35.07,1.63,0.07,3V78m-0.12-12.12c0,0.81,0,.26,0,1.08m6.6-16-1.22,26.88h0V70m0,50.32c0-2.75,0-1.24,0-3.21v-4.4h0M209,137.76l-1.22,4-22.69,17.62c-3.09-6.58-7.61-16.22-10.7-22.8M211,131.23l-0.9,2.92m2.78-9,2.85-50c0.74,2.65,1.41,5.12,2.2,7.75s2.59,7.75,3.56,10.45a5.9,5.9,0,0,1,.08,3.74L219,105.48l-2.19,7.1-0.87,2.85m-5.8-59c0.49,1.61.45,1.31,0.94,2.92m-36.42-5.81C177.77,47,182,37.62,185.08,31L205.15,46.6c0.76,0.59,1.55,1.17,2.31,1.78a8.4,8.4,0,0,1,.83,2l0.78,2.56"/><line class="cls-1" x1="220.56" y1="90.9" x2="225.99" y2="89.16"/><line class="cls-1" x1="220.56" y1="100.29" x2="225.99" y2="102.04"/><line class="cls-1" x1="203.9" y1="45.83" x2="207.43" y2="41.48"/><line class="cls-1" x1="209.41" y1="53.93" x2="214.44" y2="52.15"/><line class="cls-1" x1="203.9" y1="144.8" x2="207.43" y2="149.15"/><line class="cls-1" x1="209.41" y1="136.38" x2="214.44" y2="138.16"/><path class="cls-1" d="M211.21,65.72L215,63.13a0.79,0.79,0,0,0,0-1.27l-3.19-2.4a0.81,0.81,0,0,0-.46-0.16c-2.25-.08-1-0.16-3.1-0.17"/><path class="cls-3" d="M175.33,65.6h3.89c7.36,0,11.61,0,18.47,0"/><polyline class="cls-1" points="166.55 59.5 156.89 59.5 156.89 65.6 170.45 65.6 170.45 65.6"/><path class="cls-1" d="M156.89,65.6h1.71a3.91,3.91,0,0,0,.5-1.88V61.37a3.91,3.91,0,0,0-.5-1.88h-1.72v6.1Z"/><path class="cls-1" d="M172.77,125.1h7c8.48,0,9.86,0,17.77,0"/><polyline class="cls-1" points="166.28 131.21 156.9 131.21 156.9 125.1 171.1 125.1"/><line class="cls-1" x1="204.12" y1="131.21" x2="198.79" y2="131.21"/><line class="cls-1" x1="203.93" y1="59.12" x2="198.2" y2="59.21"/><path class="cls-1" d="M211.37,125l3.6,2.61a0.79,0.79,0,0,1,0,1.27l-3.19,2.4a0.81,0.81,0,0,1-.46.16c-2.25.08-.83,0.11-2.91,0.12"/><path class="cls-1" d="M156.9,125.1h1.71a3.91,3.91,0,0,1,.5,1.88v2.34a3.91,3.91,0,0,1-.5,1.88H156.9v-6.1Z"/><path class="cls-4" d="M180.26,161.66a0.67,0.67,0,0,0,.3.29l3,1.42a0.66,0.66,0,0,0,.94-0.5l0.5-3.31a0.68,0.68,0,0,0-.06-0.4"/><path class="cls-4" d="M171.84,131.23a4.83,4.83,0,0,1-.27-0.55l-2-2.56a0.66,0.66,0,0,0-1.07,0l-2.06,2.64a0.68,0.68,0,0,0-.14.38"/><path class="cls-4" d="M166.37,58.93c-0.25.81,0.11-.24,0,0.58a0.67,0.67,0,0,0,.12.4l1.9,2.69a0.66,0.66,0,0,0,1.07,0L171.49,60a1.14,1.14,0,0,0,.21-0.29,1,1,0,0,0,.22-0.37"/><path class="cls-4" d="M180.26,28.72a0.67,0.67,0,0,1,.3-0.29l3-1.42a0.66,0.66,0,0,1,.94.5l0.5,3.31a0.68,0.68,0,0,1-.06.4"/><path class="cls-1" d="M194.18,112l-22.9.87a3.65,3.65,0,0,1-3.78-3.64v-28a3.65,3.65,0,0,1,3.78-3.64l23,0.87a3.65,3.65,0,0,1,2.33,1l4.35,4a3.65,3.65,0,0,1,1.16,2.33L203,94.91a3.65,3.65,0,0,1,0,.72l-0.89,8.74A3.65,3.65,0,0,1,201,106.6L196.61,111A3.65,3.65,0,0,1,194.18,112Z"/><circle class="cls-1" cx="174.37" cy="122.71" r="2.24"/><path class="cls-5" d="M172.13,122.71a2.24,2.24,0,0,1,2.24-2.24h0.12a3,3,0,1,0-.83,4.34A2.23,2.23,0,0,1,172.13,122.71Z"/><circle class="cls-1" cx="174.37" cy="122.71" r="2.24"/><path class="cls-1" d="M172.13,122.71a2.24,2.24,0,0,1,2.24-2.24h0.12a3,3,0,1,0-.83,4.34A2.23,2.23,0,0,1,172.13,122.71Z"/><circle class="cls-1" cx="174.37" cy="67.64" r="2.24"/><path class="cls-1" d="M172.13,67.64a2.24,2.24,0,0,0,2.24,2.24h0.12a3,3,0,1,1-.83-4.34A2.23,2.23,0,0,0,172.13,67.64Z"/><path class="cls-1" d="M205.13,138.45h-2.59v0.67a1.21,1.21,0,0,1-1.2,1.2h3.8A0.94,0.94,0,1,0,205.13,138.45Z"/><path class="cls-1" d="M210.15,134.35a4.11,4.11,0,0,0-8.19.55,4,4,0,0,0,.29,1.51,1.18,1.18,0,0,1,.24.49,4.17,4.17,0,0,0,1.53,1.55h1.12a0.94,0.94,0,0,1,.85.56h0.08A4.12,4.12,0,0,0,210.15,134.35Z"/><path class="cls-1" d="M199.07,54.56h2.26a1.21,1.21,0,0,0,1.2-1.2v-2a1.21,1.21,0,0,0-1.2-1.2h-6.27a1.21,1.21,0,0,0-1.2,1.2"/><path class="cls-1" d="M205.13,52.08h-2.59V51.41a1.21,1.21,0,0,0-1.2-1.2h3.8A0.94,0.94,0,1,1,205.13,52.08Z"/><path class="cls-1" d="M210.15,56.17a4.11,4.11,0,0,1-8.19-.55,4,4,0,0,1,.29-1.51,1.18,1.18,0,0,0,.24-0.49A4.17,4.17,0,0,1,204,52.08h1.12a0.94,0.94,0,0,0,.85-0.56h0.08A4.12,4.12,0,0,1,210.15,56.17Z"/><polygon class="cls-1" points="67.76 137.6 82.3 137.56 82.3 52.99 67.22 52.99 69.86 56.47 69.86 133.67 67.76 137.6"/><rect class="cls-1" x="82.3" y="52.99" width="12.43" height="84.58"/><rect class="cls-1" x="94.73" y="52.99" width="12.43" height="84.58"/><rect class="cls-1" x="107.16" y="52.99" width="12.43" height="84.58"/><rect class="cls-1" x="119.6" y="52.99" width="12.43" height="84.58"/><rect class="cls-1" x="132.03" y="52.99" width="12.43" height="84.58"/><rect class="cls-1" x="144.47" y="52.99" width="12.43" height="84.58"/><polygon class="cls-1" points="67.22 52.99 156.89 52.99 156.89 50.86 64.48 50.86 67.22 52.99"/><polygon class="cls-1" points="65.8 139.69 156.89 139.69 156.89 137.56 67.76 137.6 65.8 139.69"/><line class="cls-2" x1="41" y1="95.34" x2="33.13" y2="95.34"/><path class="cls-2" d="M41,95.34A3.37,3.37,0,0,1,44.36,92H35.65a2.52,2.52,0,0,0-2.52,2.52v1.7a2.52,2.52,0,0,0,2.52,2.52h8.71A3.37,3.37,0,0,1,41,95.34Z"/><polyline class="cls-2" points="44.36 88.84 38.11 88.84 38.11 90.74 44.36 90.74"/><polyline class="cls-2" points="44.36 99.94 38.11 99.94 38.11 101.84 44.36 101.84"/><path class="cls-2" d="M61.73,121.08L60,105.68a2,2,0,0,1,0-.23l0-20.55a2,2,0,0,1,0-.23l1.74-15.12c0.13-1.1,1.12-3.88,2.21-3.76h0C65,65.93,65.82,68.93,65.7,70L64,85a2,2,0,0,0,0,.23v20.09a2,2,0,0,0,0,.23l1.73,15.05c0.13,1.1-.66,4.09-1.76,4.21h0C62.84,125,61.85,122.17,61.73,121.08Z"/><path class="cls-2" d="M61.73,121.08L60,105.68a2,2,0,0,1,0-.23l0-20.55a2,2,0,0,1,0-.23l1.74-15.12c0.13-1.1,1.12-3.88,2.21-3.76h0C65,65.93,68.82,68.93,68.7,70L67,85a2,2,0,0,0,0,.23v20.09a2,2,0,0,0,0,.23l1.73,15.05c0.13,1.1-3.66,4.09-4.76,4.21h0C62.84,125,61.85,122.17,61.73,121.08Z"/><path class="cls-2" d="M56,123.05l-1.78-17.38a2,2,0,0,1,0-.2V84.92a2,2,0,0,1,0-.2L56,67.59c0.11-1.1,1.1-2.9,2.19-2.78h0c1.1,0.11,1.9,2.1,1.78,3.19L58.19,85a2,2,0,0,0,0,.2v20.13a2,2,0,0,0,0,.2l1.76,17.07c0.11,1.1-.69,3.08-1.78,3.19h0C57.06,125.95,56.08,124.15,56,123.05Z"/><path class="cls-2" d="M56,123.05l-1.78-17.38a2,2,0,0,1,0-.2V84.92a2,2,0,0,1,0-.2L56,67.59c0.11-1.1,1.1-2.9,2.19-2.78h0c1.1,0.11,3.9,2.1,3.78,3.19L60.19,85a2,2,0,0,0,0,.2v20.13a2,2,0,0,0,0,.2l1.76,17.07c0.11,1.1-2.69,3.08-3.78,3.19h0C57.06,125.95,56.08,124.15,56,123.05Z"/><line class="cls-2" x1="54.19" y1="95.1" x2="58.07" y2="95.1"/><line class="cls-2" x1="60.18" y1="95.1" x2="66.96" y2="95.1"/><rect class="cls-2" x="49.56" y="91.89" width="4.63" height="6.28"/><path class="cls-2" d="M62.81,140.66a4.85,4.85,0,0,1-4.76-4l-1-5.35a1.68,1.68,0,0,1,1.34-2h0a1.68,1.68,0,0,1,2,1.34l1,5.37a1.49,1.49,0,0,0,1.72,1.22,1.49,1.49,0,0,0,1.21-1.71l-1-5.35a1.68,1.68,0,0,1,1.34-2h0a1.68,1.68,0,0,1,2,1.34l1,5.37A4.84,4.84,0,0,1,62.81,140.66Z"/><path class="cls-2" d="M62.8,140.66a4.85,4.85,0,0,1-4.76-4l-1-5.35a3.83,3.83,0,0,1,2.72-3.76h0c0.91-.17,3.19,1.05,3.36,2,0,0,2.58-3.07,3.49-3.24h0a1.68,1.68,0,0,1,2,1.34l1,5.37c0.22,1.29-1.06,3.57-1.81,4.63a8.94,8.94,0,0,1-4.13,3A4.83,4.83,0,0,1,62.8,140.66Z"/><path class="cls-2" d="M57.3,58.7a2.5,2.5,0,0,0-2.31.44l-6.74,5.44a2.5,2.5,0,0,0-.62.73l-2.76,5a2.5,2.5,0,0,0-.31,1.21v48.09a2.5,2.5,0,0,0,.33,1.24l3,5.23a2.5,2.5,0,0,0,.61.71L55,132a2.49,2.49,0,0,0,2.26.45L57,131.3a3.36,3.36,0,0,1,.46-1.94s0-1-.07-1.89l-5.07-4a2.5,2.5,0,0,1-.61-0.71l-1.86-3.25a2.5,2.5,0,0,1-.33-1.24V72.81a2.5,2.5,0,0,1,.31-1.21l1.67-3a2.5,2.5,0,0,1,.62-0.73l6-4.82"/><line class="cls-2" x1="63.31" y1="129.11" x2="66.28" y2="126.23"/><polygon class="cls-2" points="67.16 122.8 64.07 125.28 64.55 127.72 66.28 126.23 67.46 125.84 67.16 122.8"/><polygon class="cls-2" points="60.78 124.5 58.16 125.84 57.38 125.61 57.47 129.09 59.2 127.59 60.38 127.21 60.78 124.5"/><line class="cls-2" x1="63.28" y1="130.21" x2="66.59" y2="129.6"/><line class="cls-2" x1="68.57" y1="127.6" x2="66.59" y2="129.6"/><line class="cls-2" x1="60.36" y1="130.68" x2="57.06" y2="131.3"/><line class="cls-2" x1="58.29" y1="137.57" x2="61.95" y2="137.01"/><line class="cls-2" x1="64.03" y1="136.67" x2="67.58" y2="135.66"/><line class="cls-2" x1="69.57" y1="132.97" x2="67.58" y2="135.66"/><line class="cls-2" x1="55.97" y1="123.05" x2="59.95" y2="122.64"/><line class="cls-2" x1="61.95" y1="122.64" x2="65.7" y2="120.62"/><line class="cls-2" x1="61.95" y1="68" x2="65.7" y2="70.02"/><line class="cls-2" x1="55.97" y1="67.59" x2="59.95" y2="68"/><line class="cls-2" x1="60.36" y1="130.68" x2="62.34" y2="129.11"/><path class="cls-2" d="M62.81,50.57a4.85,4.85,0,0,0-4.76,4l-1,5.35a1.68,1.68,0,0,0,1.34,2h0a1.68,1.68,0,0,0,2-1.34l1-5.37a1.49,1.49,0,0,1,1.72-1.22,1.49,1.49,0,0,1,1.21,1.71l-1,5.35a1.68,1.68,0,0,0,1.34,2h0a1.68,1.68,0,0,0,2-1.34l1-5.37A4.84,4.84,0,0,0,62.81,50.57Z"/><path class="cls-2" d="M62.8,50.57a4.85,4.85,0,0,0-4.76,4l-1,5.35a3.83,3.83,0,0,0,2.72,3.76h0c0.91,0.17,3.19-1.05,3.36-2,0,0,2.58,3.07,3.49,3.24h0a1.68,1.68,0,0,0,2-1.34l1-5.37c0.22-1.29-1.06-3.57-1.81-4.63a8.94,8.94,0,0,0-4.13-3A4.83,4.83,0,0,0,62.8,50.57Z"/><line class="cls-2" x1="63.31" y1="62.12" x2="66.28" y2="65"/><polygon class="cls-2" points="67.16 68.43 64.07 65.95 64.55 63.51 66.28 65 67.46 65.39 67.16 68.43"/><polygon class="cls-2" points="60.78 66.73 58.16 65.39 57.38 65.62 57.47 62.14 59.2 63.63 60.38 64.02 60.78 66.73"/><line class="cls-2" x1="63.28" y1="61.02" x2="66.59" y2="61.63"/><line class="cls-2" x1="68.57" y1="63.63" x2="66.59" y2="61.63"/><line class="cls-2" x1="60.36" y1="60.55" x2="57.06" y2="59.93"/><line class="cls-2" x1="58.29" y1="53.66" x2="61.95" y2="54.22"/><line class="cls-2" x1="64.03" y1="54.56" x2="67.58" y2="55.57"/><line class="cls-2" x1="69.57" y1="58.26" x2="67.58" y2="55.57"/><line class="cls-2" x1="60.36" y1="60.55" x2="62.34" y2="62.12"/><path class="cls-2" d="M108.57,28c0,0.8-1.83,1.44-4.08,1.44s-4.08-.65-4.08-1.44"/><path class="cls-2" d="M100.41,162.29c0-.8,1.83-1.44,4.08-1.44s4.08,0.65,4.08,1.44"/><path class="cls-2" d="M100.41,152.35c0-.8,1.83-1.44,4.08-1.44s4.08,0.65,4.08,1.44"/><path class="cls-6" d="M103.13,6.53c-42.24,0-63.45,8.46-63.45,13.2A2.34,2.34,0,0,0,40.16,21c2.95-2,7.78-4.23,15.12-6.21,13.11-3.54,30.57-5.48,49.18-5.48s36.07,1.95,49.18,5.48a59.13,59.13,0,0,1,12.94,4.87C166.43,14.93,145.24,6.53,103.13,6.53Z"/><path class="cls-6" d="M169.14,15.78a6.31,6.31,0,0,1,1.49,3.94,5.88,5.88,0,0,1-.51,2.34c1.67,1.44,2.4,2.79,2.4,3.91,0,2.93-5,7.41-18.89,11.17-13.11,3.54-30.57,5.48-49.18,5.48s-36.07-1.95-49.18-5.48C41.35,33.39,36.39,28.91,36.39,26a4,4,0,0,1,.82-2.2,6.37,6.37,0,0,1-1.58-4.05,5.79,5.79,0,0,1,.13-1.18c-2.6,2.23-4.07,4.7-4.07,7.43,0,13.86,37.49,21.35,72.76,21.35S177.21,39.84,177.21,26C177.21,22.06,174.22,18.66,169.14,15.78Z"/><path class="cls-7" d="M104.45,17.73c-4.37,0-6.56.88-6.56,1.37s2.19,1.37,6.56,1.37,6.56-.88,6.56-1.37S108.82,17.73,104.45,17.73Z"/><line class="cls-2" x1="69.05" y1="41.02" x2="111.02" y2="19.09"/><line class="cls-2" x1="41.07" y1="32.55" x2="108.4" y2="20.46"/><line class="cls-2" x1="39.36" y1="21.02" x2="104.45" y2="20.46"/><line class="cls-2" x1="66.64" y1="11.69" x2="99.27" y2="19.89"/><line class="cls-2" x1="115.47" y1="9.04" x2="97.89" y2="19.09"/><line class="cls-2" x1="152.9" y1="13.92" x2="100.28" y2="17.73"/><line class="cls-2" x1="174.75" y1="27.59" x2="109" y2="17.73"/><line class="cls-2" x1="158.77" y1="37.46" x2="109" y2="17.73"/><line class="cls-2" x1="120.97" y1="43.95" x2="111.02" y2="19.09"/><path class="cls-2" d="M108.57,38c0,0.8-1.83,1.44-4.08,1.44s-4.08-.65-4.08-1.44"/><line class="cls-2" x1="93.93" y1="43.66" x2="106.68" y2="39.19"/><line class="cls-2" x1="51.87" y1="37" x2="101.87" y2="39.08"/><line class="cls-2" x1="34.56" y1="25.63" x2="100.41" y2="37.97"/><line class="cls-2" x1="52.52" y1="14.07" x2="100.41" y2="37.97"/><line class="cls-2" x1="93.12" y1="8.25" x2="100.41" y2="37.97"/><line class="cls-2" x1="132.66" y1="9.11" x2="100.41" y2="36.97"/><line class="cls-2" x1="166.57" y1="19.68" x2="108.57" y2="32.87"/><line class="cls-2" x1="167.5" y1="32.92" x2="106.68" y2="36.23"/><line class="cls-2" x1="140.68" y1="41.42" x2="106.68" y2="36.23"/><path class="cls-8" d="M103.13,37C69.59,37,35.63,31,35.63,19.72c0-5.25,7-9.54,20.74-12.74,12.51-2.91,29.12-4.51,46.75-4.51,33.54,0,67.5,5.93,67.5,17.25,0,5.25-7,9.54-20.74,12.74C137.37,35.37,120.77,37,103.13,37Zm0-30.45c-42.24,0-63.45,8.46-63.45,13.2s21.2,13.2,63.45,13.2,63.45-8.46,63.45-13.2S145.37,6.53,103.13,6.53Z"/><path class="cls-6" d="M105.87,183.75c42.24,0,63.45-8.46,63.45-13.2a2.34,2.34,0,0,0-.48-1.29c-2.95,2-7.78,4.23-15.12,6.21C140.61,179,123.15,181,104.54,181S68.47,179,55.36,175.47a59.13,59.13,0,0,1-12.94-4.87C42.56,175.35,63.76,183.75,105.87,183.75Z"/><path class="cls-6" d="M39.86,174.5a6.31,6.31,0,0,1-1.49-3.94,5.88,5.88,0,0,1,.51-2.34c-1.67-1.44-2.4-2.79-2.4-3.91,0-2.93,5-7.41,18.89-11.17,13.11-3.54,30.57-5.48,49.18-5.48s36.07,1.95,49.18,5.48c13.92,3.76,18.89,8.23,18.89,11.17a4,4,0,0,1-.82,2.2,6.37,6.37,0,0,1,1.58,4.05,5.79,5.79,0,0,1-.13,1.18c2.6-2.23,4.07-4.7,4.07-7.43,0-13.86-37.49-21.35-72.76-21.35s-72.76,7.48-72.76,21.35C31.78,168.22,34.77,171.62,39.86,174.5Z"/><path class="cls-7" d="M104.54,172.55c4.37,0,6.56-.88,6.56-1.37s-2.19-1.37-6.56-1.37S98,170.7,98,171.19,100.17,172.55,104.54,172.55Z"/><line class="cls-2" x1="139.94" y1="149.26" x2="97.98" y2="171.19"/><line class="cls-2" x1="167.93" y1="157.73" x2="100.59" y2="169.82"/><line class="cls-2" x1="169.63" y1="169.26" x2="104.54" y2="169.82"/><line class="cls-2" x1="142.36" y1="178.59" x2="109.72" y2="170.39"/><line class="cls-2" x1="93.52" y1="181.24" x2="111.1" y2="171.19"/><line class="cls-2" x1="56.09" y1="176.36" x2="108.72" y2="172.55"/><line class="cls-2" x1="34.24" y1="162.69" x2="100" y2="172.55"/><line class="cls-2" x1="50.23" y1="152.82" x2="100" y2="172.55"/><line class="cls-2" x1="88.02" y1="146.33" x2="97.98" y2="171.19"/><line class="cls-2" x1="115.06" y1="146.62" x2="102.31" y2="151.09"/><line class="cls-2" x1="157.12" y1="153.28" x2="107.12" y2="151.2"/><line class="cls-2" x1="174.44" y1="164.65" x2="108.59" y2="152.31"/><line class="cls-2" x1="156.47" y1="176.21" x2="108.59" y2="152.31"/><line class="cls-2" x1="115.87" y1="182.03" x2="108.59" y2="152.31"/><line class="cls-2" x1="76.34" y1="181.17" x2="108.59" y2="153.31"/><line class="cls-2" x1="42.43" y1="170.6" x2="100.43" y2="157.41"/><line class="cls-2" x1="41.5" y1="157.36" x2="102.31" y2="154.05"/><line class="cls-2" x1="68.32" y1="148.86" x2="102.31" y2="154.05"/><path class="cls-8" d="M105.87,153.31c33.54,0,67.5,5.93,67.5,17.25,0,5.25-7,9.54-20.74,12.74-12.51,2.91-29.12,4.51-46.75,4.51-33.54,0-67.5-5.93-67.5-17.25,0-5.25,7-9.54,20.74-12.74C71.62,154.91,88.23,153.31,105.87,153.31Zm0,30.45c42.24,0,63.45-8.46,63.45-13.2s-21.2-13.2-63.45-13.2-63.45,8.46-63.45,13.2S63.62,183.75,105.87,183.75Z"/><rect class="cls-1" x="193.86" y="50.21" width="8.67" height="4.36" rx="1.16" ry="1.16"/><rect class="cls-1" x="193.86" y="135.96" width="8.67" height="4.36" rx="1.16" ry="1.16"/><path class="cls-1" d="M212.81,64.62c0.74,2.65-.05,0,0.74,2.65"/><line class="cls-9" x1="192.86" y1="125.14" x2="192.86" y2="65.99"/><polygon points="201.04 118.52 199.57 117.15 192.86 124.37 186.14 117.15 184.68 118.52 192.86 127.31 201.04 118.52"/><polygon points="201.04 72.62 199.57 73.98 192.86 66.76 186.14 73.98 184.68 72.62 192.86 63.82 201.04 72.62"/><line class="cls-10" x1="188.17" y1="127.59" x2="197.54" y2="127.59"/><line class="cls-10" x1="188.17" y1="63.58" x2="197.54" y2="63.58"/></svg>