<svg id="Layer_1" data-name="Layer 1" xmlns="http://www.w3.org/2000/svg" viewBox="0 0 243.44 211.22"><defs><style>.cls-1,.cls-2,.cls-4{fill:none;stroke-miterlimit:10;}.cls-1,.cls-4{stroke:#000;}.cls-1{stroke-width:2px;}.cls-2{stroke:#4f9dff;}.cls-3{fill:#4f9dff;}.cls-4{stroke-width:0.5px;opacity:0.5;}</style></defs><title>taper</title><line class="cls-1" x1="88.83" y1="16.13" x2="154.4" y2="16.13"/><polygon points="95.46 24.32 96.82 22.85 89.6 16.14 96.82 9.42 95.46 7.96 86.66 16.14 95.46 24.32"/><polygon points="147.77 24.32 146.41 22.85 153.63 16.14 146.41 9.42 147.77 7.96 156.57 16.14 147.77 24.32"/><path class="cls-2" d="M30.88,196.14c-1.31-5-1.58-18.73,6.76-56A346.59,346.59,0,0,1,49,99.88c5.58-15.36,8.82-17.75,9.49-18.1a2.86,2.86,0,0,1,.2.51,34,34,0,0,1,2.58-4.46,4.47,4.47,0,0,0-4.1-.68c-2.46.77-6.47,3.84-12.85,21.54A349,349,0,0,0,33,139.06c-11.93,53.4-6.58,60.16-4.82,62.38a5.83,5.83,0,0,0,3,2.06A34.43,34.43,0,0,1,30.88,196.14Z" transform="translate(0)"/><rect class="cls-2" x="85.48" y="53.59" width="72.33" height="4.96" transform="translate(243.29 112.14) rotate(180)"/><rect class="cls-2" x="157.81" y="24.19" width="4.71" height="48.77"/><rect class="cls-2" x="80.77" y="24.19" width="4.71" height="48.77"/><rect class="cls-2" x="80.09" y="72.96" width="83.11" height="10.62"/><rect class="cls-2" x="60.2" y="138.29" width="3.97" height="9.4"/><rect class="cls-2" x="64.17" y="136.62" width="1.53" height="12.53" transform="translate(129.86 285.77) rotate(180)"/><rect class="cls-2" x="177.59" y="136.62" width="1.53" height="12.53" transform="translate(356.72 285.77) rotate(180)"/><polygon class="cls-2" points="147.4 180.61 151.22 180.61 151.22 173.73 148.57 173.73 147.4 180.61"/><polygon class="cls-2" points="91.99 173.73 91.99 180.61 95.52 180.61 94.34 173.73 91.99 173.73"/><path class="cls-2" d="M143.81,187.33a5.44,5.44,0,0,1-5.15,3.69h-34a5.44,5.44,0,0,1-5.15-3.69H93.76a11,11,0,0,0,10.76,8.78h34.25a11,11,0,0,0,10.76-8.78h-5.71Z" transform="translate(0)"/><rect class="cls-2" x="157.88" y="192.81" width="6.74" height="17.91" rx="2.52" ry="2.52"/><polygon class="cls-2" points="165.85 188.11 156.64 188.11 155.34 188.11 154.74 188.11 154.74 204.75 156.64 204.75 156.64 190.01 165.85 190.01 165.85 204.75 167.75 204.75 167.75 190.01 167.75 188.11 165.85 188.11"/><line class="cls-2" x1="161.25" y1="192.81" x2="161.25" y2="210.72"/><rect class="cls-2" x="78.67" y="192.81" width="6.74" height="17.91" rx="2.52" ry="2.52"/><polygon class="cls-2" points="86.64 188.11 77.44 188.11 76.14 188.11 75.54 188.11 75.54 204.75 77.44 204.75 77.44 190.01 86.64 190.01 86.64 204.75 88.55 204.75 88.55 190.01 88.55 188.11 86.64 188.11"/><line class="cls-2" x1="82.04" y1="192.81" x2="82.04" y2="210.72"/><rect class="cls-2" x="50.27" y="192.81" width="6.74" height="17.91" rx="2.52" ry="2.52"/><line class="cls-2" x1="53.64" y1="192.81" x2="53.64" y2="210.72"/><rect class="cls-2" x="186.28" y="192.81" width="6.74" height="17.91" rx="2.52" ry="2.52"/><line class="cls-2" x1="189.65" y1="192.81" x2="189.65" y2="210.72"/><rect class="cls-2" x="179.12" y="140.09" width="3.97" height="5.6"/><polygon class="cls-2" points="157.77 166.79 157.77 171.72 165.62 171.72 165.62 177.29 172.77 180.61 187.49 180.61 157.77 166.79"/><polygon class="cls-2" points="85.48 166.81 55.8 180.61 70.52 180.61 77.67 177.29 77.67 171.72 85.48 171.72 85.48 166.81"/><polygon class="cls-2" points="83.25 151.16 84.95 149.15 81.03 149.15 83.25 151.16"/><polygon class="cls-2" points="145.06 155.29 140.72 180.61 144 183.16 147.4 180.61 151.35 157.51 145.06 155.29"/><polygon class="cls-2" points="91.59 157.64 95.52 180.61 98.92 183.16 102.19 180.61 97.88 155.42 91.59 157.64"/><polygon class="cls-2" points="156.62 154.23 129.39 144.6 127.69 149.15 152.54 157.93 156.62 154.23"/><path class="cls-2" d="M121.64,148a17.37,17.37,0,0,0-6.05,1.07l-1.69-4.51,1.71,4.55h12.08l1.71-4.55-1.69,4.51A17.37,17.37,0,0,0,121.64,148Z" transform="translate(0)"/><polygon class="cls-2" points="90.73 157.94 115.6 149.15 113.9 144.6 86.64 154.24 90.73 157.94"/><rect class="cls-2" x="179.12" y="138.29" width="3.97" height="9.4"/><path class="cls-2" d="M88,136.62H66.88v12.53h5.88l-3.08-2.78A2.79,2.79,0,1,1,73.14,142l0,0L81,149.15h9.1Z" transform="translate(0)"/><path class="cls-2" d="M148.25,136.62H94.66l2.14,12.53H101l12.87-4.55a22.71,22.71,0,0,1,7.75-1.34,23.56,23.56,0,0,1,7.75,1.34l12.87,4.55h3.84Z" transform="translate(0)"/><path class="cls-2" d="M154.92,136.62l-2.14,12.53h9.44l7.87-7.14,0,0a2.79,2.79,0,1,1,3.47,4.34l-3.08,2.78h5.92V136.62H154.92Z" transform="translate(0)"/><rect class="cls-2" x="41.2" y="137.43" width="12.88" height="8.16" transform="translate(30.46 -6.81) rotate(12)"/><polygon class="cls-2" points="79.99 89.86 78.81 89.86 68.86 136.62 75.54 136.62 82.44 104.17 79.99 89.86"/><polygon class="cls-2" points="164.48 89.86 162.92 89.86 160.64 103.19 167.75 136.62 174.43 136.62 164.48 89.86"/><path class="cls-2" d="M79.78,88.64a3.27,3.27,0,0,1,1.42-3.27H79.62v4.5H80Z" transform="translate(0)"/><path class="cls-2" d="M86.26,87.53l0.4,2.34h69.59l0.4-2.34a3.27,3.27,0,0,1,1.41-2.16H84.85A3.27,3.27,0,0,1,86.26,87.53Z" transform="translate(0)"/><polygon class="cls-2" points="79.99 89.86 79.62 89.86 79.62 91.64 80.29 91.64 79.99 89.86"/><polygon class="cls-3" points="86.96 91.64 155.95 91.64 156.25 89.86 86.66 89.86 86.96 91.64"/><path class="cls-2" d="M97,150.56l-10.79-63a3.29,3.29,0,1,0-6.48,1.11l11,64.15Z" transform="translate(0)"/><path class="cls-2" d="M159.89,84.79a3.29,3.29,0,0,0-3.24,2.73l-10.76,62.91,6.29,2.22,11-64A3.29,3.29,0,0,0,159.89,84.79Z" transform="translate(0)"/><path class="cls-3" d="M79.62,83.58v1.78H81.2a3.21,3.21,0,0,1,3.65,0h73.21a3.21,3.21,0,0,1,3.65,0h2V83.58H79.62Z" transform="translate(0)"/><rect class="cls-2" x="60.2" y="140.09" width="3.97" height="5.6"/><path class="cls-2" d="M212.56,196.14c1.31-5,1.58-18.73-6.76-56a346.59,346.59,0,0,0-11.34-40.23c-5.58-15.36-8.82-17.75-9.49-18.1a2.86,2.86,0,0,0-.2.51,34,34,0,0,0-2.58-4.46,4.47,4.47,0,0,1,4.1-.68c2.46,0.77,6.47,3.84,12.85,21.54a349,349,0,0,1,11.36,40.38c11.93,53.4,6.58,60.16,4.82,62.38a5.83,5.83,0,0,1-3,2.06A34.43,34.43,0,0,0,212.56,196.14Z" transform="translate(0)"/><rect class="cls-2" x="189.37" y="137.43" width="12.88" height="8.16" transform="translate(416.75 239.22) rotate(168)"/><path class="cls-2" d="M172.09,141.21a2.79,2.79,0,0,0-2,.82l0,0-18.83,17.08v21.52h5.48v-8.88h1V160.64l15.8-14.27A2.79,2.79,0,0,0,172.09,141.21Z" transform="translate(0)"/><rect class="cls-2" x="156.74" y="171.72" width="8.88" height="8.88"/><path class="cls-2" d="M73.16,142l0,0a2.79,2.79,0,1,0-3.47,4.34l15.8,14.27v11.09h1.07v8.88H92V159.09Z" transform="translate(0)"/><rect class="cls-2" x="77.67" y="171.72" width="8.88" height="8.88"/><path class="cls-2" d="M188.83,144.68c0.53,2.11,1.07,4.29,1.62,6.52,3,12.14,5.51,21.82,7.72,29.41h5c-2.75-9.2-5.55-20.5-8-30.56l-1-4-3.76.8-1.7-8,3.51-.75a360.06,360.06,0,0,1-6.88-36.42c-0.1-.78-0.19-1.53-0.27-2.25a118.13,118.13,0,0,0-5.51-14.26c-0.4,5.49.46,12.52,0.92,16.32A376.27,376.27,0,0,0,188.83,144.68Z" transform="translate(0)"/><path class="cls-2" d="M205.76,188.69l-0.48-1.36h-5c2.25,6.86,4.24,11.33,6.24,13.83a1.11,1.11,0,0,0,.15-0.49A68.64,68.64,0,0,0,205.76,188.69Z" transform="translate(0)"/><path class="cls-2" d="M45.28,180.61C47.49,173,50,163.34,53,151.2c0.55-2.22,1.09-4.41,1.62-6.52A376.27,376.27,0,0,0,63,101.5c0.46-3.79,1.32-10.83.92-16.32a118.13,118.13,0,0,0-5.51,14.26c-0.08.72-.17,1.47-0.27,2.25a360.06,360.06,0,0,1-6.88,36.42l3.51,0.75-1.7,8-3.76-.8-1,4c-2.49,10.05-5.28,21.36-8,30.56h5Z" transform="translate(0)"/><path class="cls-2" d="M38.16,187.33l-0.48,1.36a68.64,68.64,0,0,0-.87,12,1.11,1.11,0,0,0,.15.49c2-2.51,4-7,6.24-13.83h-5Z" transform="translate(0)"/><polygon class="cls-2" points="147.4 180.61 144 183.16 140.72 180.61 102.19 180.61 98.92 183.16 95.52 180.61 37.84 180.61 37.84 187.33 205.44 187.33 205.44 180.61 147.4 180.61"/><polygon class="cls-2" points="194.25 188.11 185.05 188.11 183.75 188.11 183.15 188.11 183.15 204.75 185.05 204.75 185.05 190.01 194.25 190.01 194.25 204.75 196.16 204.75 196.16 190.01 196.16 188.11 194.25 188.11"/><path class="cls-2" d="M49,190.76l0.25-.75H49v0.75Z" transform="translate(0)"/><polygon class="cls-2" points="58.24 188.11 49.04 188.11 47.73 188.11 47.13 188.11 47.13 204.75 49.04 204.75 49.04 190.01 58.24 190.01 58.24 204.75 60.14 204.75 60.14 190.01 60.14 188.11 58.24 188.11"/><path class="cls-2" d="M194.31,172.74v7.87h2.27C195.81,178.06,195.06,175.42,194.31,172.74Z" transform="translate(0)"/><path class="cls-3" d="M201.74,140.6c-3.63-16.25-7.65-31.34-11.31-42.52-6.3-19.23-10-22.73-12.83-23.61a4.52,4.52,0,0,0-1.35-.21,4.58,4.58,0,0,0-3.12,1.27c-1.2,1.11-3.7,3.41-.42,25.35,1.58,10.53,4.19,23.59,7.46,37.4h3.07v9.4h-0.77c1.75,7,3.65,14.46,5.61,21.71h5.31c-2.26-8.28-4.43-16.88-6.4-24.75-7.8-31.24-10.7-51.81-10.82-60.65a1.52,1.52,0,0,1,2.86-.74,108.71,108.71,0,0,1,6.76,17.08c3.55,10.94,7.44,25.63,11,41.36,3.59,16,6.36,28.67,8.17,38.9h0.53v3.09c0.08,0.5.17,1,.24,1.49a83.53,83.53,0,0,1,1.38,15.5,1.55,1.55,0,0,1-1.23,1.46,1.58,1.58,0,0,1-.35,0,1.55,1.55,0,0,1-1.39-.86,101.69,101.69,0,0,1-5.43-14h-5.38l0.25,0.78h2.61v7.6c4.25,11.41,7.14,14.07,10,14.07v0.44l0.06-.44a5.14,5.14,0,0,0,4-2C215.08,201.61,210.66,180.5,201.74,140.6Z" transform="translate(0)"/><polygon class="cls-2" points="187.45 169.4 170.46 149.18 163.59 155.39 184.78 180.61 185 180.61 185 169.4 187.45 169.4"/><polygon class="cls-2" points="194.31 177.56 194.31 180.61 196.87 180.61 194.31 177.56"/><rect class="cls-2" x="185" y="169.4" width="9.31" height="11.2"/><path class="cls-3" d="M70.31,75.53a4.58,4.58,0,0,0-3.12-1.27,4.52,4.52,0,0,0-1.35.21C63,75.35,59.31,78.85,53,98.08c-3.66,11.17-7.68,26.27-11.31,42.52-8.92,39.9-13.34,61-8.46,67.18a5.14,5.14,0,0,0,4,2l0.06,0.44v-0.44c2.78,0,5.63-2.58,9.8-13.65v-8H49.9l0.25-.78H44.78a101.69,101.69,0,0,1-5.43,14,1.55,1.55,0,0,1-1.39.86,1.58,1.58,0,0,1-.35,0,1.55,1.55,0,0,1-1.23-1.46,83.53,83.53,0,0,1,1.38-15.5l0.09-.55v-4h0.68c1.81-10.23,4.59-22.85,8.17-38.9,3.52-15.74,7.41-30.43,11-41.36a108.71,108.71,0,0,1,6.76-17.08,1.52,1.52,0,0,1,2.86.74c-0.12,8.84-3,29.41-10.82,60.65-2,7.86-4.14,16.47-6.4,24.75h5.31c2-7.25,3.86-14.71,5.61-21.71H60.2v-9.4h3.07c3.27-13.81,5.88-26.88,7.46-37.4C74,78.94,71.51,76.64,70.31,75.53Z" transform="translate(0)"/><path class="cls-2" d="M49,180.61v-7.33c-0.7,2.5-1.4,5-2.11,7.33H49Z" transform="translate(0)"/><polygon class="cls-2" points="46.42 180.61 48.98 180.61 48.98 177.56 46.42 180.61"/><polygon class="cls-2" points="72.81 149.2 55.84 169.4 58.29 169.4 58.29 180.61 58.51 180.61 79.69 155.41 72.81 149.2"/><rect class="cls-2" x="48.98" y="169.4" width="9.31" height="11.2"/><polygon class="cls-2" points="160.06 151.16 158.37 149.15 162.28 149.15 160.06 151.16"/><line class="cls-4" x1="86.66" x2="86.66" y2="89.87"/><line class="cls-4" x1="156.25" x2="156.25" y2="89.87"/><line class="cls-4" x1="243.44" y1="210.72" y2="210.72"/></svg>