<svg id="Layer_1" data-name="Layer 1" xmlns="http://www.w3.org/2000/svg" viewBox="0 0 244.4 232.7"><title>total_length</title><line x1="191.8" y1="20.6" x2="64.6" y2="21.9" fill="none" stroke="#000" stroke-miterlimit="10" stroke-width="2"/><polygon points="185.1 12.5 183.7 14 191 20.6 183.9 27.4 185.2 28.9 194 20.6 185.1 12.5"/><polygon points="71.2 13.7 72.5 15.1 65.4 21.9 72.7 28.5 71.3 30 62.5 21.9 71.2 13.7"/><rect x="62.6" y="93.7" width="91" height="11.66" fill="#fff" stroke="#4f9dff" stroke-miterlimit="10"/><polygon points="61.5 98.7 55.9 98.7 55.3 45.9 60.9 45.6 61.5 98.7" fill="#fff" stroke="#4f9dff" stroke-miterlimit="10"/><rect x="62.6" y="105.4" width="109.6" height="6.76" fill="#fff" stroke="#4f9dff" stroke-miterlimit="10"/><polygon points="149.9 179.5 143.1 177.2 143.1 177.2 95.9 161.4 95.9 168.4 124.3 177.9 124.3 177.9 125.5 178.4 140.2 183.3 140.2 183.3 147.6 185.7 149.9 179.5" fill="#fff" stroke="#4f9dff" stroke-miterlimit="10"/><rect x="88.8" y="104.8" width="12.8" height="7.98" fill="#fff" stroke="#4f9dff" stroke-miterlimit="10"/><rect x="114.7" y="104.8" width="12.8" height="7.98" fill="#fff" stroke="#4f9dff" stroke-miterlimit="10"/><rect x="140.8" y="104.8" width="12.8" height="7.98" fill="#fff" stroke="#4f9dff" stroke-miterlimit="10"/><rect x="90.5" y="112.7" width="7.1" height="47.91" fill="#fff" stroke="#4f9dff" stroke-miterlimit="10"/><polygon points="93.2 169.9 29.2 204.2 23.6 204.2 23.6 195.8 93.2 158.5 93.2 169.9" fill="#fff" stroke="#4f9dff" stroke-miterlimit="10"/><path d="M95.9,168.4v-7.1l44.7,14.9a2,2,0,0,1,1.2,2.6l-0.9,2.6a2,2,0,0,1-2.5,1.2Z" fill="#fff" stroke="#4f9dff" stroke-miterlimit="10"/><path d="M195.1,121.9c-2.8-10.3-11.8-16.5-22.9-16.6v6.7a17.6,17.6,0,0,1,16.6,12Z" fill="#fff" stroke="#4f9dff" stroke-miterlimit="10"/><rect x="162.2" y="175.5" width="9.2" height="5.3" transform="translate(-11.3 345) rotate(-90)" fill="#fff" stroke="#4f9dff" stroke-miterlimit="10"/><rect x="160.9" y="185.1" width="11.9" height="7.15" transform="translate(-21.8 355.5) rotate(-90)" fill="#fff" stroke="#4f9dff" stroke-miterlimit="10"/><rect x="163.3" y="195.5" width="7" height="5.3" transform="translate(-31.3 365) rotate(-90)" fill="#fff" stroke="#4f9dff" stroke-miterlimit="10"/><rect x="166.8" y="211.7" width="20.8" height="5.3" fill="#fff" stroke="#4f9dff" stroke-miterlimit="10"/><rect x="166.8" y="211.7" width="20.8" height="5.3" fill="#fff" stroke="#4f9dff" stroke-miterlimit="10"/><polygon points="147.6 185.7 149.9 179.4 217 201.8 195.2 201.6 147.6 185.7" fill="#fff" stroke="#4f9dff" stroke-miterlimit="10"/><path d="M55.7,74.9H45.5a2.4,2.4,0,0,0,0,4.8H55.7A2.4,2.4,0,0,0,55.7,74.9Z" fill="#fff" stroke="#4f9dff" stroke-miterlimit="10"/><circle cx="21.9" cy="220.6" r="9.7" fill="#fff" stroke="#4f9dff" stroke-miterlimit="10"/><circle cx="21.9" cy="220.6" r="6.8" fill="#fff" stroke="#4f9dff" stroke-miterlimit="10"/><path d="M223,201.6H204.4v6.6H223c1.1,0,1.9-1.5,1.9-3.3S224.1,201.6,223,201.6Z" fill="#fff" stroke="#4f9dff" stroke-miterlimit="10"/><path d="M213.1,201.6h-8.7v6.6h8.7c1.1,0,1.9-1.5,1.9-3.3S214.2,201.6,213.1,201.6Z" fill="#fff" stroke="#4f9dff" stroke-miterlimit="10"/><polygon points="24.5 223.1 17.7 223.1 24.2 206.4 31 206.4 24.5 223.1" fill="#fff" stroke="#4f9dff" stroke-miterlimit="10"/><polygon points="29.9 208.9 23.1 208.9 24.2 206.4 31 206.4 29.9 208.9" fill="#fff" stroke="#4f9dff" stroke-miterlimit="10"/><circle cx="21.9" cy="220.6" r="1" fill="#fff" stroke="#4f9dff" stroke-miterlimit="10"/><path d="M32.3,193v-2.9H22.9v14.7h9.5v-1.3a2,2,0,0,0-2.2-1.9,4.3,4.3,0,0,0-2.8,1.2V198A5,5,0,0,0,32.3,193Z" fill="#fff" stroke="#4f9dff" stroke-miterlimit="10"/><path d="M45.5,79.6a2.4,2.4,0,0,1,0-4.8H40.1a2.4,2.4,0,0,0,0,4.8h5.5Z" fill="#fff" stroke="#4f9dff" stroke-miterlimit="10"/><path d="M62.6,101.4a16.8,16.8,0,0,1-1.1-2.7H56.1a13,13,0,0,0,6.5,10.2h0v-7.3Z" fill="#fff" stroke="#4f9dff" stroke-miterlimit="10"/><circle cx="94.1" cy="164.2" r="6.2" fill="#fff" stroke="#4f9dff" stroke-miterlimit="10"/><path d="M204.4,201.6H162.8c-1.1,0-1.9,1.5-1.9,3.3s0.9,3.3,1.9,3.3h41.7c1.1,0,1.9-1.5,1.9-3.3S205.5,201.6,204.4,201.6Z" fill="#fff" stroke="#4f9dff" stroke-miterlimit="10"/><polygon points="221.9 203.8 214.1 201.7 188.7 124 195.1 121.9 221.9 203.8" fill="#fff" stroke="#4f9dff" stroke-miterlimit="10"/><path d="M164.2,208.2v7a2.9,2.9,0,0,0,5.3,0v-7h-5.3Z" fill="#fff" stroke="#4f9dff" stroke-miterlimit="10"/><path d="M76.1,109.3H75.4v-4.6H62.6v8h9.9l-23.8,70a9,9,0,0,0,8.5-6.1l22.2-65.4V111C79.5,110.4,79.1,109.3,76.1,109.3Z" fill="#fff" stroke="#4f9dff" stroke-miterlimit="10"/><line x1="62.6" y1="108.9" x2="75.4" y2="108.9" fill="#fff" stroke="#4f9dff" stroke-miterlimit="10"/><line x1="88.8" y1="108.9" x2="101.5" y2="108.9" fill="#fff" stroke="#4f9dff" stroke-miterlimit="10"/><line x1="114.7" y1="108.9" x2="127.5" y2="108.9" fill="#fff" stroke="#4f9dff" stroke-miterlimit="10"/><line x1="140.8" y1="108.9" x2="153.6" y2="108.9" fill="#fff" stroke="#4f9dff" stroke-miterlimit="10"/><path d="M187.4,201.7H177.2l-7.2-7a3.6,3.6,0,0,1-.3-4.8h0a3.6,3.6,0,0,1,5.3-.3Z" fill="#fff" stroke="#4f9dff" stroke-miterlimit="10"/><path d="M196.8,212.9h1.3v-1.2H187.6V217h1.3A9.6,9.6,0,0,1,196.8,212.9Z" fill="#fff" stroke="#4f9dff" stroke-miterlimit="10"/><circle cx="196.8" cy="222.5" r="9.7" fill="#fff" stroke="#4f9dff" stroke-miterlimit="10"/><circle cx="196.8" cy="222.5" r="6.8" fill="#fff" stroke="#4f9dff" stroke-miterlimit="10"/><polygon points="199.5 225 192.7 225 199.1 208.3 205.9 208.3 199.5 225" fill="#fff" stroke="#4f9dff" stroke-miterlimit="10"/><polygon points="204.9 210.8 198.1 210.8 199.1 208.3 205.9 208.3 204.9 210.8" fill="#fff" stroke="#4f9dff" stroke-miterlimit="10"/><circle cx="196.8" cy="222.5" r="1" fill="#fff" stroke="#4f9dff" stroke-miterlimit="10"/><polygon points="98.2 163.3 96.1 166.9 92 166.9 89.9 163.3 92 159.7 96.1 159.7 98.2 163.3" fill="#fff" stroke="#4f9dff" stroke-miterlimit="10"/><circle cx="94.1" cy="163.3" r="2.3" fill="#fff" stroke="#4f9dff" stroke-miterlimit="10"/><rect x="92" y="166.9" width="4.3" height="1.92" fill="#fff" stroke="#4f9dff" stroke-miterlimit="10"/><rect x="199.6" y="192.1" width="9.2" height="9.97" transform="translate(7.1 401.2) rotate(-90)" fill="#fff" stroke="#4f9dff" stroke-miterlimit="10"/><line x1="195.1" y1="121.9" x2="195" fill="none" stroke="#000" stroke-miterlimit="10" opacity="0.5"/><line x1="61.5" y1="121.9" x2="61.4" fill="none" stroke="#000" stroke-miterlimit="10" opacity="0.5"/><line x1="244.4" y1="232.2" y2="232.2" fill="none" stroke="#000" stroke-miterlimit="10" opacity="0.5"/></svg>